<svg width="914" height="226" viewBox="0 0 914 226" fill="none" xmlns="http://www.w3.org/2000/svg">
<rect width="914" height="226" fill="#2C313A"/>
<rect x="16" y="16" width="882" height="194" fill="#2F3746"/>
<path d="M250 153.25C249.586 153.25 249.25 153.586 249.25 154C249.25 154.414 249.586 154.75 250 154.75V153.25ZM352.53 154.53C352.823 154.237 352.823 153.763 352.53 153.47L347.757 148.697C347.464 148.404 346.99 148.404 346.697 148.697C346.404 148.99 346.404 149.464 346.697 149.757L350.939 154L346.697 158.243C346.404 158.536 346.404 159.01 346.697 159.303C346.99 159.596 347.464 159.596 347.757 159.303L352.53 154.53ZM250.125 154.75C250.539 154.75 250.875 154.414 250.875 154C250.875 153.586 250.539 153.25 250.125 153.25V154.75ZM254.125 153.25C253.711 153.25 253.375 153.586 253.375 154C253.375 154.414 253.711 154.75 254.125 154.75V153.25ZM254.375 154.75C254.789 154.75 255.125 154.414 255.125 154C255.125 153.586 254.789 153.25 254.375 153.25V154.75ZM258.375 153.25C257.961 153.25 257.625 153.586 257.625 154C257.625 154.414 257.961 154.75 258.375 154.75V153.25ZM258.625 154.75C259.039 154.75 259.375 154.414 259.375 154C259.375 153.586 259.039 153.25 258.625 153.25V154.75ZM262.625 153.25C262.211 153.25 261.875 153.586 261.875 154C261.875 154.414 262.211 154.75 262.625 154.75V153.25ZM262.875 154.75C263.289 154.75 263.625 154.414 263.625 154C263.625 153.586 263.289 153.25 262.875 153.25V154.75ZM266.875 153.25C266.461 153.25 266.125 153.586 266.125 154C266.125 154.414 266.461 154.75 266.875 154.75V153.25ZM267.125 154.75C267.539 154.75 267.875 154.414 267.875 154C267.875 153.586 267.539 153.25 267.125 153.25V154.75ZM271.125 153.25C270.711 153.25 270.375 153.586 270.375 154C270.375 154.414 270.711 154.75 271.125 154.75V153.25ZM271.375 154.75C271.789 154.75 272.125 154.414 272.125 154C272.125 153.586 271.789 153.25 271.375 153.25V154.75ZM275.375 153.25C274.961 153.25 274.625 153.586 274.625 154C274.625 154.414 274.961 154.75 275.375 154.75V153.25ZM275.625 154.75C276.039 154.75 276.375 154.414 276.375 154C276.375 153.586 276.039 153.25 275.625 153.25V154.75ZM279.625 153.25C279.211 153.25 278.875 153.586 278.875 154C278.875 154.414 279.211 154.75 279.625 154.75V153.25ZM279.875 154.75C280.289 154.75 280.625 154.414 280.625 154C280.625 153.586 280.289 153.25 279.875 153.25V154.75ZM283.875 153.25C283.461 153.25 283.125 153.586 283.125 154C283.125 154.414 283.461 154.75 283.875 154.75V153.25ZM284.125 154.75C284.539 154.75 284.875 154.414 284.875 154C284.875 153.586 284.539 153.25 284.125 153.25V154.75ZM288.125 153.25C287.711 153.25 287.375 153.586 287.375 154C287.375 154.414 287.711 154.75 288.125 154.75V153.25ZM288.375 154.75C288.789 154.75 289.125 154.414 289.125 154C289.125 153.586 288.789 153.25 288.375 153.25V154.75ZM292.375 153.25C291.961 153.25 291.625 153.586 291.625 154C291.625 154.414 291.961 154.75 292.375 154.75V153.25ZM292.625 154.75C293.039 154.75 293.375 154.414 293.375 154C293.375 153.586 293.039 153.25 292.625 153.25V154.75ZM296.625 153.25C296.211 153.25 295.875 153.586 295.875 154C295.875 154.414 296.211 154.75 296.625 154.75V153.25ZM296.875 154.75C297.289 154.75 297.625 154.414 297.625 154C297.625 153.586 297.289 153.25 296.875 153.25V154.75ZM300.875 153.25C300.461 153.25 300.125 153.586 300.125 154C300.125 154.414 300.461 154.75 300.875 154.75V153.25ZM301.125 154.75C301.539 154.75 301.875 154.414 301.875 154C301.875 153.586 301.539 153.25 301.125 153.25V154.75ZM305.125 153.25C304.711 153.25 304.375 153.586 304.375 154C304.375 154.414 304.711 154.75 305.125 154.75V153.25ZM305.375 154.75C305.789 154.75 306.125 154.414 306.125 154C306.125 153.586 305.789 153.25 305.375 153.25V154.75ZM309.375 153.25C308.961 153.25 308.625 153.586 308.625 154C308.625 154.414 308.961 154.75 309.375 154.75V153.25ZM309.625 154.75C310.039 154.75 310.375 154.414 310.375 154C310.375 153.586 310.039 153.25 309.625 153.25V154.75ZM313.625 153.25C313.211 153.25 312.875 153.586 312.875 154C312.875 154.414 313.211 154.75 313.625 154.75V153.25ZM313.875 154.75C314.289 154.75 314.625 154.414 314.625 154C314.625 153.586 314.289 153.25 313.875 153.25V154.75ZM317.875 153.25C317.461 153.25 317.125 153.586 317.125 154C317.125 154.414 317.461 154.75 317.875 154.75V153.25ZM318.125 154.75C318.539 154.75 318.875 154.414 318.875 154C318.875 153.586 318.539 153.25 318.125 153.25V154.75ZM322.125 153.25C321.711 153.25 321.375 153.586 321.375 154C321.375 154.414 321.711 154.75 322.125 154.75V153.25ZM322.375 154.75C322.789 154.75 323.125 154.414 323.125 154C323.125 153.586 322.789 153.25 322.375 153.25V154.75ZM326.375 153.25C325.961 153.25 325.625 153.586 325.625 154C325.625 154.414 325.961 154.75 326.375 154.75V153.25ZM326.625 154.75C327.039 154.75 327.375 154.414 327.375 154C327.375 153.586 327.039 153.25 326.625 153.25V154.75ZM330.625 153.25C330.211 153.25 329.875 153.586 329.875 154C329.875 154.414 330.211 154.75 330.625 154.75V153.25ZM330.875 154.75C331.289 154.75 331.625 154.414 331.625 154C331.625 153.586 331.289 153.25 330.875 153.25V154.75ZM334.875 153.25C334.461 153.25 334.125 153.586 334.125 154C334.125 154.414 334.461 154.75 334.875 154.75V153.25ZM335.125 154.75C335.539 154.75 335.875 154.414 335.875 154C335.875 153.586 335.539 153.25 335.125 153.25V154.75ZM339.125 153.25C338.711 153.25 338.375 153.586 338.375 154C338.375 154.414 338.711 154.75 339.125 154.75V153.25ZM339.375 154.75C339.789 154.75 340.125 154.414 340.125 154C340.125 153.586 339.789 153.25 339.375 153.25V154.75ZM343.375 153.25C342.961 153.25 342.625 153.586 342.625 154C342.625 154.414 342.961 154.75 343.375 154.75V153.25ZM343.625 154.75C344.039 154.75 344.375 154.414 344.375 154C344.375 153.586 344.039 153.25 343.625 153.25V154.75ZM347.625 153.25C347.211 153.25 346.875 153.586 346.875 154C346.875 154.414 347.211 154.75 347.625 154.75V153.25ZM347.875 154.75C348.289 154.75 348.625 154.414 348.625 154C348.625 153.586 348.289 153.25 347.875 153.25V154.75ZM351.875 153.25C351.461 153.25 351.125 153.586 351.125 154C351.125 154.414 351.461 154.75 351.875 154.75V153.25ZM250 154.75H250.125V153.25H250V154.75ZM254.125 154.75H254.375V153.25H254.125V154.75ZM258.375 154.75H258.625V153.25H258.375V154.75ZM262.625 154.75H262.875V153.25H262.625V154.75ZM266.875 154.75H267.125V153.25H266.875V154.75ZM271.125 154.75H271.375V153.25H271.125V154.75ZM275.375 154.75H275.625V153.25H275.375V154.75ZM279.625 154.75H279.875V153.25H279.625V154.75ZM283.875 154.75H284.125V153.25H283.875V154.75ZM288.125 154.75H288.375V153.25H288.125V154.75ZM292.375 154.75H292.625V153.25H292.375V154.75ZM296.625 154.75H296.875V153.25H296.625V154.75ZM300.875 154.75H301.125V153.25H300.875V154.75ZM305.125 154.75H305.375V153.25H305.125V154.75ZM309.375 154.75H309.625V153.25H309.375V154.75ZM313.625 154.75H313.875V153.25H313.625V154.75ZM317.875 154.75H318.125V153.25H317.875V154.75ZM322.125 154.75H322.375V153.25H322.125V154.75ZM326.375 154.75H326.625V153.25H326.375V154.75ZM330.625 154.75H330.875V153.25H330.625V154.75ZM334.875 154.75H335.125V153.25H334.875V154.75ZM339.125 154.75H339.375V153.25H339.125V154.75ZM343.375 154.75H343.625V153.25H343.375V154.75ZM347.625 154.75H347.875V153.25H347.625V154.75ZM351.875 154.75H352V153.25H351.875V154.75Z" fill="#C6E4F6"/>
<rect x="263" y="144" width="70" height="20" rx="2" fill="#2F3746"/>
<path d="M271.906 158V150.727H274.633C275.192 150.727 275.661 150.824 276.039 151.018C276.42 151.213 276.708 151.485 276.902 151.835C277.099 152.183 277.197 152.589 277.197 153.053C277.197 153.52 277.098 153.924 276.899 154.268C276.702 154.609 276.412 154.873 276.029 155.06C275.645 155.244 275.174 155.337 274.615 155.337H272.673V154.243H274.438C274.764 154.243 275.032 154.198 275.24 154.108C275.449 154.016 275.603 153.882 275.702 153.707C275.804 153.529 275.855 153.311 275.855 153.053C275.855 152.795 275.804 152.575 275.702 152.393C275.6 152.208 275.445 152.068 275.237 151.974C275.028 151.877 274.76 151.828 274.431 151.828H273.223V158H271.906ZM275.663 154.705L277.463 158H275.993L274.225 154.705H275.663ZM280.69 158.107C280.143 158.107 279.67 157.993 279.273 157.766C278.877 157.536 278.573 157.212 278.36 156.793C278.147 156.371 278.04 155.875 278.04 155.305C278.04 154.744 278.147 154.251 278.36 153.827C278.575 153.401 278.876 153.07 279.262 152.833C279.648 152.594 280.101 152.474 280.622 152.474C280.958 152.474 281.275 152.529 281.574 152.638C281.874 152.744 282.14 152.91 282.369 153.135C282.601 153.36 282.784 153.646 282.916 153.994C283.049 154.34 283.115 154.752 283.115 155.23V155.624H278.644V154.758H281.883C281.88 154.512 281.827 154.293 281.723 154.101C281.619 153.907 281.473 153.754 281.286 153.643C281.101 153.531 280.886 153.476 280.64 153.476C280.377 153.476 280.146 153.54 279.947 153.668C279.748 153.793 279.593 153.959 279.482 154.165C279.373 154.368 279.318 154.592 279.315 154.836V155.592C279.315 155.91 279.373 156.182 279.489 156.409C279.605 156.634 279.767 156.807 279.976 156.928C280.184 157.046 280.428 157.105 280.707 157.105C280.894 157.105 281.064 157.079 281.215 157.027C281.367 156.973 281.498 156.893 281.609 156.789C281.721 156.685 281.805 156.556 281.861 156.402L283.062 156.537C282.986 156.854 282.842 157.131 282.628 157.368C282.418 157.602 282.148 157.785 281.819 157.915C281.49 158.043 281.113 158.107 280.69 158.107ZM287.842 160.045V157.141H287.789C287.723 157.273 287.627 157.414 287.502 157.563C287.376 157.71 287.21 157.835 287.004 157.94C286.798 158.044 286.539 158.096 286.227 158.096C285.798 158.096 285.415 157.986 285.076 157.766C284.738 157.545 284.47 157.226 284.274 156.807C284.077 156.388 283.979 155.879 283.979 155.28C283.979 154.674 284.078 154.162 284.277 153.746C284.478 153.327 284.749 153.011 285.09 152.798C285.431 152.582 285.811 152.474 286.23 152.474C286.55 152.474 286.813 152.529 287.019 152.638C287.225 152.744 287.388 152.873 287.509 153.025C287.629 153.174 287.723 153.315 287.789 153.447H287.867V152.545H289.131V160.045H287.842ZM286.585 157.041C286.858 157.041 287.09 156.968 287.281 156.821C287.473 156.672 287.619 156.465 287.718 156.2C287.818 155.934 287.867 155.625 287.867 155.273C287.867 154.92 287.818 154.613 287.718 154.353C287.621 154.093 287.477 153.89 287.285 153.746C287.095 153.601 286.862 153.529 286.585 153.529C286.299 153.529 286.06 153.604 285.868 153.753C285.676 153.902 285.532 154.108 285.435 154.371C285.338 154.634 285.289 154.934 285.289 155.273C285.289 155.614 285.338 155.918 285.435 156.185C285.534 156.451 285.68 156.66 285.872 156.814C286.066 156.965 286.304 157.041 286.585 157.041ZM293.929 155.706V152.545H295.215V158H293.968V157.031H293.911C293.788 157.336 293.586 157.586 293.304 157.78C293.025 157.974 292.68 158.071 292.271 158.071C291.913 158.071 291.597 157.992 291.323 157.833C291.05 157.672 290.837 157.439 290.683 157.134C290.529 156.826 290.453 156.454 290.453 156.018V152.545H291.738V155.82C291.738 156.165 291.833 156.44 292.022 156.643C292.211 156.847 292.46 156.949 292.768 156.949C292.957 156.949 293.141 156.903 293.318 156.81C293.496 156.718 293.641 156.581 293.755 156.398C293.871 156.214 293.929 155.983 293.929 155.706ZM298.951 158.107C298.404 158.107 297.932 157.993 297.534 157.766C297.139 157.536 296.835 157.212 296.622 156.793C296.409 156.371 296.302 155.875 296.302 155.305C296.302 154.744 296.409 154.251 296.622 153.827C296.837 153.401 297.138 153.07 297.524 152.833C297.91 152.594 298.363 152.474 298.884 152.474C299.22 152.474 299.537 152.529 299.835 152.638C300.136 152.744 300.401 152.91 300.631 153.135C300.863 153.36 301.045 153.646 301.178 153.994C301.31 154.34 301.377 154.752 301.377 155.23V155.624H296.906V154.758H300.144C300.142 154.512 300.089 154.293 299.985 154.101C299.88 153.907 299.735 153.754 299.548 153.643C299.363 153.531 299.148 153.476 298.902 153.476C298.639 153.476 298.408 153.54 298.209 153.668C298.01 153.793 297.855 153.959 297.744 154.165C297.635 154.368 297.579 154.592 297.577 154.836V155.592C297.577 155.91 297.635 156.182 297.751 156.409C297.867 156.634 298.029 156.807 298.237 156.928C298.446 157.046 298.69 157.105 298.969 157.105C299.156 157.105 299.325 157.079 299.477 157.027C299.628 156.973 299.76 156.893 299.871 156.789C299.982 156.685 300.066 156.556 300.123 156.402L301.323 156.537C301.248 156.854 301.103 157.131 300.89 157.368C300.679 157.602 300.41 157.785 300.081 157.915C299.751 158.043 299.375 158.107 298.951 158.107ZM306.775 153.987L305.603 154.115C305.57 153.997 305.512 153.885 305.429 153.781C305.349 153.677 305.24 153.593 305.103 153.529C304.965 153.465 304.797 153.433 304.598 153.433C304.331 153.433 304.106 153.491 303.924 153.607C303.744 153.723 303.655 153.874 303.657 154.058C303.655 154.217 303.713 154.346 303.831 154.445C303.952 154.545 304.151 154.626 304.428 154.69L305.358 154.889C305.874 155 306.258 155.177 306.509 155.418C306.762 155.66 306.89 155.976 306.892 156.366C306.89 156.71 306.79 157.013 306.591 157.276C306.394 157.536 306.121 157.74 305.77 157.886C305.42 158.033 305.017 158.107 304.563 158.107C303.895 158.107 303.358 157.967 302.951 157.688C302.544 157.406 302.301 157.014 302.223 156.512L303.476 156.391C303.533 156.638 303.654 156.823 303.839 156.949C304.023 157.074 304.263 157.137 304.559 157.137C304.865 157.137 305.11 157.074 305.294 156.949C305.482 156.823 305.575 156.668 305.575 156.484C305.575 156.327 305.515 156.198 305.394 156.097C305.276 155.995 305.091 155.917 304.84 155.862L303.91 155.667C303.386 155.558 302.999 155.375 302.748 155.116C302.497 154.856 302.373 154.527 302.375 154.129C302.373 153.793 302.464 153.502 302.649 153.256C302.836 153.007 303.095 152.815 303.427 152.68C303.76 152.543 304.145 152.474 304.581 152.474C305.22 152.474 305.723 152.611 306.09 152.883C306.459 153.155 306.688 153.523 306.775 153.987ZM310.676 152.545V153.54H307.541V152.545H310.676ZM308.315 151.239H309.6V156.359C309.6 156.532 309.626 156.665 309.678 156.757C309.733 156.847 309.804 156.909 309.891 156.942C309.979 156.975 310.076 156.991 310.183 156.991C310.263 156.991 310.336 156.986 310.403 156.974C310.471 156.962 310.524 156.951 310.559 156.942L310.776 157.947C310.707 157.97 310.609 157.996 310.481 158.025C310.355 158.053 310.202 158.07 310.019 158.075C309.697 158.084 309.407 158.036 309.149 157.929C308.891 157.82 308.686 157.652 308.535 157.425C308.386 157.197 308.312 156.913 308.315 156.572V151.239ZM316.973 158L318.166 150.727H319.161L317.968 158H316.973ZM313.696 156.125L313.862 155.131H319.459L319.292 156.125H313.696ZM314.416 158L315.61 150.727H316.604L315.411 158H314.416ZM314.118 153.597L314.282 152.602H319.878L319.715 153.597H314.118ZM323.611 150.727V158H322.294V152.009H322.251L320.55 153.096V151.888L322.358 150.727H323.611Z" fill="#C6E4F6"/>
<path d="M597 153.25C596.586 153.25 596.25 153.586 596.25 154C596.25 154.414 596.586 154.75 597 154.75V153.25ZM699.53 154.53C699.823 154.237 699.823 153.763 699.53 153.47L694.757 148.697C694.464 148.404 693.99 148.404 693.697 148.697C693.404 148.99 693.404 149.464 693.697 149.757L697.939 154L693.697 158.243C693.404 158.536 693.404 159.01 693.697 159.303C693.99 159.596 694.464 159.596 694.757 159.303L699.53 154.53ZM597.125 154.75C597.539 154.75 597.875 154.414 597.875 154C597.875 153.586 597.539 153.25 597.125 153.25V154.75ZM601.125 153.25C600.711 153.25 600.375 153.586 600.375 154C600.375 154.414 600.711 154.75 601.125 154.75V153.25ZM601.375 154.75C601.789 154.75 602.125 154.414 602.125 154C602.125 153.586 601.789 153.25 601.375 153.25V154.75ZM605.375 153.25C604.961 153.25 604.625 153.586 604.625 154C604.625 154.414 604.961 154.75 605.375 154.75V153.25ZM605.625 154.75C606.039 154.75 606.375 154.414 606.375 154C606.375 153.586 606.039 153.25 605.625 153.25V154.75ZM609.625 153.25C609.211 153.25 608.875 153.586 608.875 154C608.875 154.414 609.211 154.75 609.625 154.75V153.25ZM609.875 154.75C610.289 154.75 610.625 154.414 610.625 154C610.625 153.586 610.289 153.25 609.875 153.25V154.75ZM613.875 153.25C613.461 153.25 613.125 153.586 613.125 154C613.125 154.414 613.461 154.75 613.875 154.75V153.25ZM614.125 154.75C614.539 154.75 614.875 154.414 614.875 154C614.875 153.586 614.539 153.25 614.125 153.25V154.75ZM618.125 153.25C617.711 153.25 617.375 153.586 617.375 154C617.375 154.414 617.711 154.75 618.125 154.75V153.25ZM618.375 154.75C618.789 154.75 619.125 154.414 619.125 154C619.125 153.586 618.789 153.25 618.375 153.25V154.75ZM622.375 153.25C621.961 153.25 621.625 153.586 621.625 154C621.625 154.414 621.961 154.75 622.375 154.75V153.25ZM622.625 154.75C623.039 154.75 623.375 154.414 623.375 154C623.375 153.586 623.039 153.25 622.625 153.25V154.75ZM626.625 153.25C626.211 153.25 625.875 153.586 625.875 154C625.875 154.414 626.211 154.75 626.625 154.75V153.25ZM626.875 154.75C627.289 154.75 627.625 154.414 627.625 154C627.625 153.586 627.289 153.25 626.875 153.25V154.75ZM630.875 153.25C630.461 153.25 630.125 153.586 630.125 154C630.125 154.414 630.461 154.75 630.875 154.75V153.25ZM631.125 154.75C631.539 154.75 631.875 154.414 631.875 154C631.875 153.586 631.539 153.25 631.125 153.25V154.75ZM635.125 153.25C634.711 153.25 634.375 153.586 634.375 154C634.375 154.414 634.711 154.75 635.125 154.75V153.25ZM635.375 154.75C635.789 154.75 636.125 154.414 636.125 154C636.125 153.586 635.789 153.25 635.375 153.25V154.75ZM639.375 153.25C638.961 153.25 638.625 153.586 638.625 154C638.625 154.414 638.961 154.75 639.375 154.75V153.25ZM639.625 154.75C640.039 154.75 640.375 154.414 640.375 154C640.375 153.586 640.039 153.25 639.625 153.25V154.75ZM643.625 153.25C643.211 153.25 642.875 153.586 642.875 154C642.875 154.414 643.211 154.75 643.625 154.75V153.25ZM643.875 154.75C644.289 154.75 644.625 154.414 644.625 154C644.625 153.586 644.289 153.25 643.875 153.25V154.75ZM647.875 153.25C647.461 153.25 647.125 153.586 647.125 154C647.125 154.414 647.461 154.75 647.875 154.75V153.25ZM648.125 154.75C648.539 154.75 648.875 154.414 648.875 154C648.875 153.586 648.539 153.25 648.125 153.25V154.75ZM652.125 153.25C651.711 153.25 651.375 153.586 651.375 154C651.375 154.414 651.711 154.75 652.125 154.75V153.25ZM652.375 154.75C652.789 154.75 653.125 154.414 653.125 154C653.125 153.586 652.789 153.25 652.375 153.25V154.75ZM656.375 153.25C655.961 153.25 655.625 153.586 655.625 154C655.625 154.414 655.961 154.75 656.375 154.75V153.25ZM656.625 154.75C657.039 154.75 657.375 154.414 657.375 154C657.375 153.586 657.039 153.25 656.625 153.25V154.75ZM660.625 153.25C660.211 153.25 659.875 153.586 659.875 154C659.875 154.414 660.211 154.75 660.625 154.75V153.25ZM660.875 154.75C661.289 154.75 661.625 154.414 661.625 154C661.625 153.586 661.289 153.25 660.875 153.25V154.75ZM664.875 153.25C664.461 153.25 664.125 153.586 664.125 154C664.125 154.414 664.461 154.75 664.875 154.75V153.25ZM665.125 154.75C665.539 154.75 665.875 154.414 665.875 154C665.875 153.586 665.539 153.25 665.125 153.25V154.75ZM669.125 153.25C668.711 153.25 668.375 153.586 668.375 154C668.375 154.414 668.711 154.75 669.125 154.75V153.25ZM669.375 154.75C669.789 154.75 670.125 154.414 670.125 154C670.125 153.586 669.789 153.25 669.375 153.25V154.75ZM673.375 153.25C672.961 153.25 672.625 153.586 672.625 154C672.625 154.414 672.961 154.75 673.375 154.75V153.25ZM673.625 154.75C674.039 154.75 674.375 154.414 674.375 154C674.375 153.586 674.039 153.25 673.625 153.25V154.75ZM677.625 153.25C677.211 153.25 676.875 153.586 676.875 154C676.875 154.414 677.211 154.75 677.625 154.75V153.25ZM677.875 154.75C678.289 154.75 678.625 154.414 678.625 154C678.625 153.586 678.289 153.25 677.875 153.25V154.75ZM681.875 153.25C681.461 153.25 681.125 153.586 681.125 154C681.125 154.414 681.461 154.75 681.875 154.75V153.25ZM682.125 154.75C682.539 154.75 682.875 154.414 682.875 154C682.875 153.586 682.539 153.25 682.125 153.25V154.75ZM686.125 153.25C685.711 153.25 685.375 153.586 685.375 154C685.375 154.414 685.711 154.75 686.125 154.75V153.25ZM686.375 154.75C686.789 154.75 687.125 154.414 687.125 154C687.125 153.586 686.789 153.25 686.375 153.25V154.75ZM690.375 153.25C689.961 153.25 689.625 153.586 689.625 154C689.625 154.414 689.961 154.75 690.375 154.75V153.25ZM690.625 154.75C691.039 154.75 691.375 154.414 691.375 154C691.375 153.586 691.039 153.25 690.625 153.25V154.75ZM694.625 153.25C694.211 153.25 693.875 153.586 693.875 154C693.875 154.414 694.211 154.75 694.625 154.75V153.25ZM694.875 154.75C695.289 154.75 695.625 154.414 695.625 154C695.625 153.586 695.289 153.25 694.875 153.25V154.75ZM698.875 153.25C698.461 153.25 698.125 153.586 698.125 154C698.125 154.414 698.461 154.75 698.875 154.75V153.25ZM597 154.75H597.125V153.25H597V154.75ZM601.125 154.75H601.375V153.25H601.125V154.75ZM605.375 154.75H605.625V153.25H605.375V154.75ZM609.625 154.75H609.875V153.25H609.625V154.75ZM613.875 154.75H614.125V153.25H613.875V154.75ZM618.125 154.75H618.375V153.25H618.125V154.75ZM622.375 154.75H622.625V153.25H622.375V154.75ZM626.625 154.75H626.875V153.25H626.625V154.75ZM630.875 154.75H631.125V153.25H630.875V154.75ZM635.125 154.75H635.375V153.25H635.125V154.75ZM639.375 154.75H639.625V153.25H639.375V154.75ZM643.625 154.75H643.875V153.25H643.625V154.75ZM647.875 154.75H648.125V153.25H647.875V154.75ZM652.125 154.75H652.375V153.25H652.125V154.75ZM656.375 154.75H656.625V153.25H656.375V154.75ZM660.625 154.75H660.875V153.25H660.625V154.75ZM664.875 154.75H665.125V153.25H664.875V154.75ZM669.125 154.75H669.375V153.25H669.125V154.75ZM673.375 154.75H673.625V153.25H673.375V154.75ZM677.625 154.75H677.875V153.25H677.625V154.75ZM681.875 154.75H682.125V153.25H681.875V154.75ZM686.125 154.75H686.375V153.25H686.125V154.75ZM690.375 154.75H690.625V153.25H690.375V154.75ZM694.625 154.75H694.875V153.25H694.625V154.75ZM698.875 154.75H699V153.25H698.875V154.75Z" fill="#C6E4F6"/>
<rect x="610" y="144" width="72" height="20" rx="2" fill="#2F3746"/>
<path d="M619.203 158V150.727H621.93C622.489 150.727 622.957 150.824 623.336 151.018C623.717 151.213 624.005 151.485 624.199 151.835C624.396 152.183 624.494 152.589 624.494 153.053C624.494 153.52 624.394 153.924 624.196 154.268C623.999 154.609 623.709 154.873 623.326 155.06C622.942 155.244 622.471 155.337 621.912 155.337H619.97V154.243H621.735C622.061 154.243 622.329 154.198 622.537 154.108C622.746 154.016 622.899 153.882 622.999 153.707C623.101 153.529 623.152 153.311 623.152 153.053C623.152 152.795 623.101 152.575 622.999 152.393C622.897 152.208 622.742 152.068 622.534 151.974C622.325 151.877 622.057 151.828 621.728 151.828H620.52V158H619.203ZM622.96 154.705L624.76 158H623.29L621.522 154.705H622.96ZM627.986 158.107C627.44 158.107 626.967 157.993 626.57 157.766C626.174 157.536 625.87 157.212 625.657 156.793C625.444 156.371 625.337 155.875 625.337 155.305C625.337 154.744 625.444 154.251 625.657 153.827C625.872 153.401 626.173 153.07 626.559 152.833C626.945 152.594 627.398 152.474 627.919 152.474C628.255 152.474 628.572 152.529 628.871 152.638C629.171 152.744 629.436 152.91 629.666 153.135C629.898 153.36 630.08 153.646 630.213 153.994C630.346 154.34 630.412 154.752 630.412 155.23V155.624H625.941V154.758H629.18C629.177 154.512 629.124 154.293 629.02 154.101C628.916 153.907 628.77 153.754 628.583 153.643C628.398 153.531 628.183 153.476 627.937 153.476C627.674 153.476 627.443 153.54 627.244 153.668C627.045 153.793 626.89 153.959 626.779 154.165C626.67 154.368 626.614 154.592 626.612 154.836V155.592C626.612 155.91 626.67 156.182 626.786 156.409C626.902 156.634 627.064 156.807 627.273 156.928C627.481 157.046 627.725 157.105 628.004 157.105C628.191 157.105 628.36 157.079 628.512 157.027C628.664 156.973 628.795 156.893 628.906 156.789C629.017 156.685 629.101 156.556 629.158 156.402L630.359 156.537C630.283 156.854 630.138 157.131 629.925 157.368C629.715 157.602 629.445 157.785 629.116 157.915C628.787 158.043 628.41 158.107 627.986 158.107ZM635.139 160.045V157.141H635.086C635.02 157.273 634.924 157.414 634.798 157.563C634.673 157.71 634.507 157.835 634.301 157.94C634.095 158.044 633.836 158.096 633.524 158.096C633.095 158.096 632.711 157.986 632.373 157.766C632.034 157.545 631.767 157.226 631.57 156.807C631.374 156.388 631.276 155.879 631.276 155.28C631.276 154.674 631.375 154.162 631.574 153.746C631.775 153.327 632.046 153.011 632.387 152.798C632.728 152.582 633.108 152.474 633.527 152.474C633.847 152.474 634.109 152.529 634.315 152.638C634.521 152.744 634.685 152.873 634.805 153.025C634.926 153.174 635.02 153.315 635.086 153.447H635.164V152.545H636.428V160.045H635.139ZM633.882 157.041C634.154 157.041 634.386 156.968 634.578 156.821C634.77 156.672 634.916 156.465 635.015 156.2C635.114 155.934 635.164 155.625 635.164 155.273C635.164 154.92 635.114 154.613 635.015 154.353C634.918 154.093 634.774 153.89 634.582 153.746C634.392 153.601 634.159 153.529 633.882 153.529C633.596 153.529 633.357 153.604 633.165 153.753C632.973 153.902 632.829 154.108 632.732 154.371C632.635 154.634 632.586 154.934 632.586 155.273C632.586 155.614 632.635 155.918 632.732 156.185C632.831 156.451 632.977 156.66 633.168 156.814C633.363 156.965 633.6 157.041 633.882 157.041ZM641.226 155.706V152.545H642.511V158H641.265V157.031H641.208C641.085 157.336 640.883 157.586 640.601 157.78C640.322 157.974 639.977 158.071 639.568 158.071C639.21 158.071 638.894 157.992 638.619 157.833C638.347 157.672 638.134 157.439 637.98 157.134C637.826 156.826 637.749 156.454 637.749 156.018V152.545H639.035V155.82C639.035 156.165 639.13 156.44 639.319 156.643C639.508 156.847 639.757 156.949 640.065 156.949C640.254 156.949 640.438 156.903 640.615 156.81C640.793 156.718 640.938 156.581 641.052 156.398C641.168 156.214 641.226 155.983 641.226 155.706ZM646.248 158.107C645.701 158.107 645.229 157.993 644.831 157.766C644.436 157.536 644.132 157.212 643.919 156.793C643.706 156.371 643.599 155.875 643.599 155.305C643.599 154.744 643.706 154.251 643.919 153.827C644.134 153.401 644.435 153.07 644.821 152.833C645.206 152.594 645.66 152.474 646.181 152.474C646.517 152.474 646.834 152.529 647.132 152.638C647.433 152.744 647.698 152.91 647.928 153.135C648.16 153.36 648.342 153.646 648.475 153.994C648.607 154.34 648.674 154.752 648.674 155.23V155.624H644.203V154.758H647.441C647.439 154.512 647.386 154.293 647.282 154.101C647.177 153.907 647.032 153.754 646.845 153.643C646.66 153.531 646.445 153.476 646.198 153.476C645.936 153.476 645.705 153.54 645.506 153.668C645.307 153.793 645.152 153.959 645.041 154.165C644.932 154.368 644.876 154.592 644.874 154.836V155.592C644.874 155.91 644.932 156.182 645.048 156.409C645.164 156.634 645.326 156.807 645.534 156.928C645.743 157.046 645.987 157.105 646.266 157.105C646.453 157.105 646.622 157.079 646.774 157.027C646.925 156.973 647.057 156.893 647.168 156.789C647.279 156.685 647.363 156.556 647.42 156.402L648.62 156.537C648.545 156.854 648.4 157.131 648.187 157.368C647.976 157.602 647.706 157.785 647.377 157.915C647.048 158.043 646.672 158.107 646.248 158.107ZM654.072 153.987L652.9 154.115C652.867 153.997 652.809 153.885 652.726 153.781C652.646 153.677 652.537 153.593 652.4 153.529C652.262 153.465 652.094 153.433 651.895 153.433C651.628 153.433 651.403 153.491 651.221 153.607C651.041 153.723 650.952 153.874 650.954 154.058C650.952 154.217 651.01 154.346 651.128 154.445C651.249 154.545 651.448 154.626 651.725 154.69L652.655 154.889C653.171 155 653.555 155.177 653.806 155.418C654.059 155.66 654.187 155.976 654.189 156.366C654.187 156.71 654.086 157.013 653.888 157.276C653.691 157.536 653.418 157.74 653.067 157.886C652.717 158.033 652.314 158.107 651.86 158.107C651.192 158.107 650.655 157.967 650.248 157.688C649.84 157.406 649.598 157.014 649.52 156.512L650.773 156.391C650.83 156.638 650.951 156.823 651.135 156.949C651.32 157.074 651.56 157.137 651.856 157.137C652.162 157.137 652.407 157.074 652.591 156.949C652.778 156.823 652.872 156.668 652.872 156.484C652.872 156.327 652.812 156.198 652.691 156.097C652.572 155.995 652.388 155.917 652.137 155.862L651.206 155.667C650.683 155.558 650.296 155.375 650.045 155.116C649.794 154.856 649.67 154.527 649.672 154.129C649.67 153.793 649.761 153.502 649.946 153.256C650.133 153.007 650.392 152.815 650.723 152.68C651.057 152.543 651.442 152.474 651.878 152.474C652.517 152.474 653.02 152.611 653.387 152.883C653.756 153.155 653.985 153.523 654.072 153.987ZM657.973 152.545V153.54H654.837V152.545H657.973ZM655.612 151.239H656.897V156.359C656.897 156.532 656.923 156.665 656.975 156.757C657.03 156.847 657.101 156.909 657.188 156.942C657.276 156.975 657.373 156.991 657.479 156.991C657.56 156.991 657.633 156.986 657.7 156.974C657.768 156.962 657.82 156.951 657.856 156.942L658.073 157.947C658.004 157.97 657.906 157.996 657.778 158.025C657.652 158.053 657.498 158.07 657.316 158.075C656.994 158.084 656.704 158.036 656.446 157.929C656.188 157.82 655.983 157.652 655.832 157.425C655.683 157.197 655.609 156.913 655.612 156.572V151.239ZM664.27 158L665.463 150.727H666.458L665.264 158H664.27ZM660.992 156.125L661.159 155.131H666.756L666.589 156.125H660.992ZM661.713 158L662.907 150.727H663.901L662.708 158H661.713ZM661.415 153.597L661.578 152.602H667.175L667.012 153.597H661.415ZM667.95 158V157.048L670.475 154.573C670.716 154.329 670.918 154.113 671.079 153.923C671.24 153.734 671.36 153.55 671.441 153.373C671.521 153.195 671.562 153.006 671.562 152.805C671.562 152.575 671.509 152.379 671.405 152.215C671.301 152.049 671.158 151.922 670.976 151.832C670.793 151.742 670.586 151.697 670.354 151.697C670.115 151.697 669.906 151.746 669.726 151.846C669.546 151.943 669.406 152.081 669.307 152.261C669.209 152.441 669.161 152.656 669.161 152.904H667.907C667.907 152.442 668.013 152.041 668.223 151.7C668.434 151.359 668.724 151.095 669.093 150.908C669.465 150.721 669.891 150.628 670.372 150.628C670.86 150.628 671.288 150.719 671.657 150.901C672.027 151.084 672.313 151.333 672.517 151.651C672.723 151.968 672.826 152.33 672.826 152.737C672.826 153.009 672.774 153.277 672.669 153.54C672.565 153.803 672.382 154.094 672.119 154.413C671.859 154.733 671.493 155.12 671.022 155.575L669.768 156.849V156.899H672.936V158H667.95Z" fill="#C6E4F6"/>
<rect x="56" y="138" width="174" height="32" rx="2" fill="#55385E"/>
<path d="M72.892 158V149.273H76.1648C76.8352 149.273 77.3977 149.398 77.8523 149.648C78.3097 149.898 78.6548 150.241 78.8878 150.679C79.1236 151.114 79.2415 151.608 79.2415 152.162C79.2415 152.722 79.1236 153.219 78.8878 153.653C78.652 154.088 78.304 154.43 77.8438 154.68C77.3835 154.928 76.8168 155.051 76.1435 155.051H73.9744V153.751H75.9304C76.3224 153.751 76.6435 153.683 76.8935 153.547C77.1435 153.411 77.3281 153.223 77.4474 152.984C77.5696 152.746 77.6307 152.472 77.6307 152.162C77.6307 151.852 77.5696 151.58 77.4474 151.344C77.3281 151.108 77.142 150.925 76.8892 150.794C76.6392 150.661 76.3168 150.594 75.9219 150.594H74.473V158H72.892ZM80.5465 158V151.455H82.0423V152.545H82.1104C82.2298 152.168 82.4343 151.876 82.7241 151.672C83.0167 151.464 83.3505 151.361 83.7255 151.361C83.8107 151.361 83.9059 151.365 84.011 151.374C84.119 151.379 84.2085 151.389 84.2795 151.403V152.822C84.2141 152.8 84.1104 152.78 83.9684 152.763C83.8292 152.743 83.6942 152.733 83.5636 152.733C83.2823 152.733 83.0295 152.794 82.805 152.916C82.5835 153.036 82.4087 153.202 82.2809 153.415C82.1531 153.628 82.0891 153.874 82.0891 154.152V158H80.5465ZM85.3043 158V151.455H86.8469V158H85.3043ZM86.0799 150.526C85.8356 150.526 85.6254 150.445 85.4492 150.283C85.2731 150.118 85.185 149.92 85.185 149.69C85.185 149.457 85.2731 149.26 85.4492 149.098C85.6254 148.933 85.8356 148.851 86.0799 148.851C86.3271 148.851 86.5373 148.933 86.7106 149.098C86.8867 149.26 86.9748 149.457 86.9748 149.69C86.9748 149.92 86.8867 150.118 86.7106 150.283C86.5373 150.445 86.3271 150.526 86.0799 150.526ZM94.2798 151.455L91.9489 158H90.2443L87.9134 151.455H89.5582L91.0625 156.317H91.1307L92.6392 151.455H94.2798ZM97.0433 158.132C96.6286 158.132 96.255 158.058 95.9226 157.911C95.593 157.76 95.3317 157.538 95.1385 157.246C94.9482 156.953 94.853 156.592 94.853 156.163C94.853 155.794 94.9212 155.489 95.0575 155.247C95.1939 155.006 95.38 154.812 95.6158 154.668C95.8516 154.523 96.1172 154.413 96.4126 154.339C96.7109 154.263 97.0192 154.207 97.3374 154.173C97.7209 154.134 98.032 154.098 98.2706 154.067C98.5092 154.033 98.6825 153.982 98.7905 153.913C98.9013 153.842 98.9567 153.733 98.9567 153.585V153.56C98.9567 153.239 98.8615 152.99 98.6712 152.814C98.4808 152.638 98.2067 152.55 97.8487 152.55C97.4709 152.55 97.1712 152.632 96.9496 152.797C96.7308 152.962 96.5831 153.156 96.5064 153.381L95.0661 153.176C95.1797 152.778 95.3672 152.446 95.6286 152.179C95.8899 151.909 96.2095 151.707 96.5874 151.574C96.9652 151.438 97.3828 151.369 97.8402 151.369C98.1555 151.369 98.4695 151.406 98.782 151.48C99.0945 151.554 99.38 151.676 99.6385 151.847C99.897 152.014 100.104 152.243 100.261 152.533C100.42 152.822 100.499 153.185 100.499 153.619V158H99.0163V157.101H98.9652C98.8714 157.283 98.7393 157.453 98.5689 157.612C98.4013 157.768 98.1896 157.895 97.9339 157.991C97.6811 158.085 97.3842 158.132 97.0433 158.132ZM97.4439 156.999C97.7536 156.999 98.022 156.937 98.2493 156.815C98.4766 156.69 98.6513 156.526 98.7734 156.321C98.8984 156.116 98.9609 155.893 98.9609 155.652V154.881C98.9126 154.92 98.8303 154.957 98.7138 154.991C98.6001 155.026 98.4723 155.055 98.3303 155.081C98.1882 155.107 98.0476 155.129 97.9084 155.149C97.7692 155.169 97.6484 155.186 97.5462 155.2C97.3161 155.232 97.1101 155.283 96.9283 155.354C96.7464 155.425 96.603 155.524 96.4979 155.652C96.3928 155.777 96.3402 155.939 96.3402 156.138C96.3402 156.422 96.4439 156.636 96.6513 156.781C96.8587 156.926 97.1229 156.999 97.4439 156.999ZM105.319 151.455V152.648H101.556V151.455H105.319ZM102.485 149.886H104.028V156.031C104.028 156.239 104.059 156.398 104.121 156.509C104.187 156.616 104.272 156.69 104.377 156.73C104.482 156.77 104.599 156.79 104.727 156.79C104.823 156.79 104.911 156.783 104.991 156.768C105.073 156.754 105.136 156.741 105.178 156.73L105.438 157.936C105.356 157.964 105.238 157.996 105.085 158.03C104.934 158.064 104.749 158.084 104.531 158.089C104.144 158.101 103.796 158.043 103.487 157.915C103.177 157.784 102.931 157.582 102.749 157.31C102.57 157.037 102.482 156.696 102.485 156.287V149.886ZM109.436 158.128C108.78 158.128 108.213 157.991 107.736 157.719C107.262 157.443 106.897 157.054 106.641 156.551C106.385 156.045 106.257 155.45 106.257 154.766C106.257 154.092 106.385 153.501 106.641 152.993C106.9 152.482 107.26 152.084 107.723 151.8C108.186 151.513 108.73 151.369 109.355 151.369C109.759 151.369 110.14 151.435 110.498 151.565C110.858 151.693 111.176 151.892 111.452 152.162C111.73 152.432 111.949 152.776 112.108 153.193C112.267 153.608 112.347 154.102 112.347 154.676V155.149H106.982V154.109H110.868C110.865 153.814 110.801 153.551 110.676 153.321C110.551 153.088 110.377 152.905 110.152 152.771C109.931 152.638 109.672 152.571 109.377 152.571C109.061 152.571 108.784 152.648 108.546 152.801C108.307 152.952 108.121 153.151 107.988 153.398C107.857 153.642 107.79 153.911 107.787 154.203V155.111C107.787 155.491 107.857 155.818 107.996 156.091C108.135 156.361 108.33 156.568 108.58 156.713C108.83 156.855 109.123 156.926 109.458 156.926C109.682 156.926 109.885 156.895 110.067 156.832C110.249 156.767 110.407 156.672 110.54 156.547C110.674 156.422 110.775 156.267 110.843 156.082L112.283 156.244C112.192 156.625 112.019 156.957 111.763 157.241C111.51 157.523 111.186 157.741 110.792 157.898C110.397 158.051 109.945 158.128 109.436 158.128ZM117.864 149.273L120.136 156.142H120.225L122.492 149.273H124.231L121.154 158H119.202L116.13 149.273H117.864ZM125.312 158V151.455H126.855V158H125.312ZM126.088 150.526C125.843 150.526 125.633 150.445 125.457 150.283C125.281 150.118 125.193 149.92 125.193 149.69C125.193 149.457 125.281 149.26 125.457 149.098C125.633 148.933 125.843 148.851 126.088 148.851C126.335 148.851 126.545 148.933 126.718 149.098C126.895 149.26 126.983 149.457 126.983 149.69C126.983 149.92 126.895 150.118 126.718 150.283C126.545 150.445 126.335 150.526 126.088 150.526ZM130.87 158.115C130.356 158.115 129.896 157.983 129.489 157.719C129.083 157.455 128.762 157.071 128.526 156.568C128.29 156.065 128.173 155.455 128.173 154.736C128.173 154.009 128.292 153.395 128.531 152.895C128.772 152.392 129.097 152.013 129.506 151.757C129.915 151.499 130.371 151.369 130.874 151.369C131.258 151.369 131.573 151.435 131.82 151.565C132.067 151.693 132.263 151.848 132.408 152.03C132.553 152.209 132.665 152.378 132.745 152.537H132.809V149.273H134.356V158H132.839V156.969H132.745C132.665 157.128 132.55 157.297 132.4 157.476C132.249 157.652 132.05 157.803 131.803 157.928C131.556 158.053 131.245 158.115 130.87 158.115ZM131.3 156.849C131.627 156.849 131.906 156.761 132.136 156.585C132.366 156.406 132.54 156.158 132.66 155.839C132.779 155.521 132.839 155.151 132.839 154.727C132.839 154.304 132.779 153.936 132.66 153.624C132.543 153.311 132.37 153.068 132.14 152.895C131.913 152.722 131.633 152.635 131.3 152.635C130.957 152.635 130.67 152.724 130.44 152.903C130.21 153.082 130.036 153.33 129.92 153.645C129.803 153.96 129.745 154.321 129.745 154.727C129.745 155.136 129.803 155.501 129.92 155.822C130.039 156.141 130.214 156.392 130.444 156.577C130.677 156.759 130.962 156.849 131.3 156.849ZM138.897 158.128C138.241 158.128 137.674 157.991 137.197 157.719C136.723 157.443 136.358 157.054 136.102 156.551C135.846 156.045 135.718 155.45 135.718 154.766C135.718 154.092 135.846 153.501 136.102 152.993C136.36 152.482 136.721 152.084 137.184 151.8C137.647 151.513 138.191 151.369 138.816 151.369C139.22 151.369 139.6 151.435 139.958 151.565C140.319 151.693 140.637 151.892 140.913 152.162C141.191 152.432 141.41 152.776 141.569 153.193C141.728 153.608 141.808 154.102 141.808 154.676V155.149H136.443V154.109H140.329C140.326 153.814 140.262 153.551 140.137 153.321C140.012 153.088 139.838 152.905 139.613 152.771C139.392 152.638 139.133 152.571 138.838 152.571C138.522 152.571 138.245 152.648 138.007 152.801C137.768 152.952 137.582 153.151 137.449 153.398C137.318 153.642 137.251 153.911 137.248 154.203V155.111C137.248 155.491 137.318 155.818 137.457 156.091C137.596 156.361 137.791 156.568 138.041 156.713C138.291 156.855 138.583 156.926 138.919 156.926C139.143 156.926 139.346 156.895 139.528 156.832C139.71 156.767 139.868 156.672 140.001 156.547C140.135 156.422 140.235 156.267 140.304 156.082L141.744 156.244C141.653 156.625 141.48 156.957 141.224 157.241C140.971 157.523 140.647 157.741 140.252 157.898C139.858 158.051 139.406 158.128 138.897 158.128ZM145.968 158.128C145.329 158.128 144.775 157.987 144.306 157.706C143.837 157.425 143.474 157.031 143.215 156.526C142.96 156.02 142.832 155.429 142.832 154.753C142.832 154.077 142.96 153.484 143.215 152.976C143.474 152.467 143.837 152.072 144.306 151.791C144.775 151.51 145.329 151.369 145.968 151.369C146.607 151.369 147.161 151.51 147.63 151.791C148.099 152.072 148.461 152.467 148.717 152.976C148.975 153.484 149.104 154.077 149.104 154.753C149.104 155.429 148.975 156.02 148.717 156.526C148.461 157.031 148.099 157.425 147.63 157.706C147.161 157.987 146.607 158.128 145.968 158.128ZM145.977 156.892C146.323 156.892 146.613 156.797 146.846 156.607C147.079 156.413 147.252 156.155 147.366 155.831C147.482 155.507 147.54 155.146 147.54 154.749C147.54 154.348 147.482 153.986 147.366 153.662C147.252 153.335 147.079 153.075 146.846 152.882C146.613 152.689 146.323 152.592 145.977 152.592C145.621 152.592 145.326 152.689 145.09 152.882C144.857 153.075 144.683 153.335 144.566 153.662C144.452 153.986 144.396 154.348 144.396 154.749C144.396 155.146 144.452 155.507 144.566 155.831C144.683 156.155 144.857 156.413 145.09 156.607C145.326 156.797 145.621 156.892 145.977 156.892ZM153.075 150.598V149.273H160.038V150.598H157.341V158H155.772V150.598H153.075ZM162.855 154.165V158H161.312V149.273H162.821V152.567H162.897C163.051 152.197 163.288 151.906 163.609 151.693C163.933 151.477 164.345 151.369 164.845 151.369C165.299 151.369 165.696 151.464 166.034 151.655C166.372 151.845 166.633 152.124 166.818 152.49C167.005 152.857 167.099 153.304 167.099 153.832V158H165.556V154.071C165.556 153.631 165.443 153.288 165.216 153.044C164.991 152.797 164.676 152.673 164.27 152.673C163.997 152.673 163.752 152.733 163.537 152.852C163.324 152.969 163.156 153.138 163.034 153.359C162.914 153.581 162.855 153.849 162.855 154.165ZM172.843 155.247V151.455H174.386V158H172.89V156.837H172.822C172.674 157.203 172.431 157.503 172.093 157.736C171.758 157.969 171.345 158.085 170.853 158.085C170.424 158.085 170.045 157.99 169.716 157.8C169.389 157.607 169.133 157.327 168.949 156.96C168.764 156.591 168.672 156.145 168.672 155.622V151.455H170.214V155.384C170.214 155.798 170.328 156.128 170.555 156.372C170.782 156.616 171.081 156.739 171.45 156.739C171.677 156.739 171.897 156.683 172.11 156.572C172.324 156.462 172.498 156.297 172.635 156.078C172.774 155.857 172.843 155.58 172.843 155.247ZM175.972 158V151.455H177.447V152.567H177.523C177.66 152.192 177.886 151.899 178.201 151.689C178.516 151.476 178.893 151.369 179.33 151.369C179.773 151.369 180.147 151.477 180.451 151.693C180.758 151.906 180.974 152.197 181.099 152.567H181.167C181.312 152.203 181.556 151.913 181.9 151.697C182.246 151.479 182.657 151.369 183.131 151.369C183.734 151.369 184.225 151.56 184.606 151.94C184.987 152.321 185.177 152.876 185.177 153.607V158H183.63V153.845C183.63 153.439 183.522 153.142 183.306 152.955C183.09 152.764 182.826 152.669 182.513 152.669C182.141 152.669 181.85 152.786 181.64 153.018C181.433 153.249 181.329 153.548 181.329 153.918V158H179.816V153.781C179.816 153.443 179.714 153.173 179.509 152.972C179.308 152.77 179.043 152.669 178.717 152.669C178.495 152.669 178.293 152.726 178.112 152.839C177.93 152.95 177.785 153.108 177.677 153.312C177.569 153.514 177.515 153.75 177.515 154.02V158H175.972ZM186.81 158V149.273H188.353V152.537H188.417C188.496 152.378 188.608 152.209 188.753 152.03C188.898 151.848 189.094 151.693 189.341 151.565C189.588 151.435 189.904 151.369 190.287 151.369C190.793 151.369 191.249 151.499 191.655 151.757C192.064 152.013 192.388 152.392 192.627 152.895C192.868 153.395 192.989 154.009 192.989 154.736C192.989 155.455 192.871 156.065 192.635 156.568C192.4 157.071 192.078 157.455 191.672 157.719C191.266 157.983 190.806 158.115 190.292 158.115C189.917 158.115 189.605 158.053 189.358 157.928C189.111 157.803 188.912 157.652 188.762 157.476C188.614 157.297 188.499 157.128 188.417 156.969H188.327V158H186.81ZM188.323 154.727C188.323 155.151 188.382 155.521 188.502 155.839C188.624 156.158 188.799 156.406 189.026 156.585C189.256 156.761 189.534 156.849 189.861 156.849C190.202 156.849 190.488 156.759 190.718 156.577C190.948 156.392 191.121 156.141 191.238 155.822C191.357 155.501 191.417 155.136 191.417 154.727C191.417 154.321 191.358 153.96 191.242 153.645C191.125 153.33 190.952 153.082 190.722 152.903C190.492 152.724 190.205 152.635 189.861 152.635C189.532 152.635 189.252 152.722 189.022 152.895C188.792 153.068 188.617 153.311 188.498 153.624C188.381 153.936 188.323 154.304 188.323 154.727ZM195.843 154.165V158H194.3V151.455H195.775V152.567H195.852C196.002 152.2 196.242 151.909 196.572 151.693C196.904 151.477 197.315 151.369 197.803 151.369C198.255 151.369 198.648 151.466 198.984 151.659C199.322 151.852 199.583 152.132 199.768 152.499C199.955 152.865 200.048 153.31 200.045 153.832V158H198.502V154.071C198.502 153.634 198.388 153.291 198.161 153.044C197.937 152.797 197.626 152.673 197.228 152.673C196.958 152.673 196.718 152.733 196.508 152.852C196.3 152.969 196.137 153.138 196.018 153.359C195.901 153.581 195.843 153.849 195.843 154.165ZM203.496 158.132C203.082 158.132 202.708 158.058 202.376 157.911C202.046 157.76 201.785 157.538 201.592 157.246C201.401 156.953 201.306 156.592 201.306 156.163C201.306 155.794 201.374 155.489 201.511 155.247C201.647 155.006 201.833 154.812 202.069 154.668C202.305 154.523 202.57 154.413 202.866 154.339C203.164 154.263 203.472 154.207 203.79 154.173C204.174 154.134 204.485 154.098 204.724 154.067C204.962 154.033 205.136 153.982 205.244 153.913C205.354 153.842 205.41 153.733 205.41 153.585V153.56C205.41 153.239 205.315 152.99 205.124 152.814C204.934 152.638 204.66 152.55 204.302 152.55C203.924 152.55 203.624 152.632 203.403 152.797C203.184 152.962 203.036 153.156 202.96 153.381L201.519 153.176C201.633 152.778 201.82 152.446 202.082 152.179C202.343 151.909 202.663 151.707 203.04 151.574C203.418 151.438 203.836 151.369 204.293 151.369C204.609 151.369 204.923 151.406 205.235 151.48C205.548 151.554 205.833 151.676 206.092 151.847C206.35 152.014 206.558 152.243 206.714 152.533C206.873 152.822 206.952 153.185 206.952 153.619V158H205.469V157.101H205.418C205.325 157.283 205.192 157.453 205.022 157.612C204.854 157.768 204.643 157.895 204.387 157.991C204.134 158.085 203.837 158.132 203.496 158.132ZM203.897 156.999C204.207 156.999 204.475 156.937 204.702 156.815C204.93 156.69 205.104 156.526 205.227 156.321C205.352 156.116 205.414 155.893 205.414 155.652V154.881C205.366 154.92 205.283 154.957 205.167 154.991C205.053 155.026 204.925 155.055 204.783 155.081C204.641 155.107 204.501 155.129 204.362 155.149C204.222 155.169 204.102 155.186 203.999 155.2C203.769 155.232 203.563 155.283 203.381 155.354C203.2 155.425 203.056 155.524 202.951 155.652C202.846 155.777 202.793 155.939 202.793 156.138C202.793 156.422 202.897 156.636 203.104 156.781C203.312 156.926 203.576 156.999 203.897 156.999ZM208.504 158V151.455H210.046V158H208.504ZM209.279 150.526C209.035 150.526 208.825 150.445 208.648 150.283C208.472 150.118 208.384 149.92 208.384 149.69C208.384 149.457 208.472 149.26 208.648 149.098C208.825 148.933 209.035 148.851 209.279 148.851C209.526 148.851 209.737 148.933 209.91 149.098C210.086 149.26 210.174 149.457 210.174 149.69C210.174 149.92 210.086 150.118 209.91 150.283C209.737 150.445 209.526 150.526 209.279 150.526ZM213.175 149.273V158H211.632V149.273H213.175Z" fill="#F5DDFF"/>
<rect x="372" y="138" width="205" height="32" rx="2" fill="#55385E"/>
<path d="M389.158 158V149.273H392.43C393.101 149.273 393.663 149.398 394.118 149.648C394.575 149.898 394.92 150.241 395.153 150.679C395.389 151.114 395.507 151.608 395.507 152.162C395.507 152.722 395.389 153.219 395.153 153.653C394.918 154.088 394.57 154.43 394.109 154.68C393.649 154.928 393.082 155.051 392.409 155.051H390.24V153.751H392.196C392.588 153.751 392.909 153.683 393.159 153.547C393.409 153.411 393.594 153.223 393.713 152.984C393.835 152.746 393.896 152.472 393.896 152.162C393.896 151.852 393.835 151.58 393.713 151.344C393.594 151.108 393.408 150.925 393.155 150.794C392.905 150.661 392.582 150.594 392.188 150.594H390.739V158H389.158ZM396.812 158V151.455H398.308V152.545H398.376C398.495 152.168 398.7 151.876 398.99 151.672C399.282 151.464 399.616 151.361 399.991 151.361C400.076 151.361 400.172 151.365 400.277 151.374C400.385 151.379 400.474 151.389 400.545 151.403V152.822C400.48 152.8 400.376 152.78 400.234 152.763C400.095 152.743 399.96 152.733 399.829 152.733C399.548 152.733 399.295 152.794 399.071 152.916C398.849 153.036 398.674 153.202 398.547 153.415C398.419 153.628 398.355 153.874 398.355 154.152V158H396.812ZM401.57 158V151.455H403.113V158H401.57ZM402.346 150.526C402.101 150.526 401.891 150.445 401.715 150.283C401.539 150.118 401.451 149.92 401.451 149.69C401.451 149.457 401.539 149.26 401.715 149.098C401.891 148.933 402.101 148.851 402.346 148.851C402.593 148.851 402.803 148.933 402.976 149.098C403.152 149.26 403.24 149.457 403.24 149.69C403.24 149.92 403.152 150.118 402.976 150.283C402.803 150.445 402.593 150.526 402.346 150.526ZM410.545 151.455L408.214 158H406.51L404.179 151.455H405.824L407.328 156.317H407.396L408.905 151.455H410.545ZM413.309 158.132C412.894 158.132 412.521 158.058 412.188 157.911C411.859 157.76 411.597 157.538 411.404 157.246C411.214 156.953 411.119 156.592 411.119 156.163C411.119 155.794 411.187 155.489 411.323 155.247C411.46 155.006 411.646 154.812 411.881 154.668C412.117 154.523 412.383 154.413 412.678 154.339C412.977 154.263 413.285 154.207 413.603 154.173C413.987 154.134 414.298 154.098 414.536 154.067C414.775 154.033 414.948 153.982 415.056 153.913C415.167 153.842 415.222 153.733 415.222 153.585V153.56C415.222 153.239 415.127 152.99 414.937 152.814C414.746 152.638 414.472 152.55 414.114 152.55C413.737 152.55 413.437 152.632 413.215 152.797C412.996 152.962 412.849 153.156 412.772 153.381L411.332 153.176C411.445 152.778 411.633 152.446 411.894 152.179C412.156 151.909 412.475 151.707 412.853 151.574C413.231 151.438 413.648 151.369 414.106 151.369C414.421 151.369 414.735 151.406 415.048 151.48C415.36 151.554 415.646 151.676 415.904 151.847C416.163 152.014 416.37 152.243 416.526 152.533C416.685 152.822 416.765 153.185 416.765 153.619V158H415.282V157.101H415.231C415.137 157.283 415.005 157.453 414.835 157.612C414.667 157.768 414.455 157.895 414.2 157.991C413.947 158.085 413.65 158.132 413.309 158.132ZM413.71 156.999C414.019 156.999 414.288 156.937 414.515 156.815C414.742 156.69 414.917 156.526 415.039 156.321C415.164 156.116 415.227 155.893 415.227 155.652V154.881C415.178 154.92 415.096 154.957 414.979 154.991C414.866 155.026 414.738 155.055 414.596 155.081C414.454 155.107 414.313 155.129 414.174 155.149C414.035 155.169 413.914 155.186 413.812 155.2C413.582 155.232 413.376 155.283 413.194 155.354C413.012 155.425 412.869 155.524 412.763 155.652C412.658 155.777 412.606 155.939 412.606 156.138C412.606 156.422 412.71 156.636 412.917 156.781C413.124 156.926 413.388 156.999 413.71 156.999ZM421.585 151.455V152.648H417.822V151.455H421.585ZM418.751 149.886H420.293V156.031C420.293 156.239 420.325 156.398 420.387 156.509C420.452 156.616 420.538 156.69 420.643 156.73C420.748 156.77 420.864 156.79 420.992 156.79C421.089 156.79 421.177 156.783 421.256 156.768C421.339 156.754 421.401 156.741 421.444 156.73L421.704 157.936C421.621 157.964 421.504 157.996 421.35 158.03C421.2 158.064 421.015 158.084 420.796 158.089C420.41 158.101 420.062 158.043 419.752 157.915C419.442 157.784 419.197 157.582 419.015 157.31C418.836 157.037 418.748 156.696 418.751 156.287V149.886ZM425.702 158.128C425.046 158.128 424.479 157.991 424.002 157.719C423.527 157.443 423.162 157.054 422.907 156.551C422.651 156.045 422.523 155.45 422.523 154.766C422.523 154.092 422.651 153.501 422.907 152.993C423.165 152.482 423.526 152.084 423.989 151.8C424.452 151.513 424.996 151.369 425.621 151.369C426.025 151.369 426.405 151.435 426.763 151.565C427.124 151.693 427.442 151.892 427.718 152.162C427.996 152.432 428.215 152.776 428.374 153.193C428.533 153.608 428.613 154.102 428.613 154.676V155.149H423.248V154.109H427.134C427.131 153.814 427.067 153.551 426.942 153.321C426.817 153.088 426.642 152.905 426.418 152.771C426.196 152.638 425.938 152.571 425.642 152.571C425.327 152.571 425.05 152.648 424.811 152.801C424.573 152.952 424.387 153.151 424.253 153.398C424.123 153.642 424.056 153.911 424.053 154.203V155.111C424.053 155.491 424.123 155.818 424.262 156.091C424.401 156.361 424.596 156.568 424.846 156.713C425.096 156.855 425.388 156.926 425.723 156.926C425.948 156.926 426.151 156.895 426.333 156.832C426.515 156.767 426.672 156.672 426.806 156.547C426.939 156.422 427.04 156.267 427.108 156.082L428.549 156.244C428.458 156.625 428.284 156.957 428.029 157.241C427.776 157.523 427.452 157.741 427.057 157.898C426.662 158.051 426.211 158.128 425.702 158.128ZM434.13 149.273L436.401 156.142H436.491L438.758 149.273H440.496L437.42 158H435.468L432.396 149.273H434.13ZM441.578 158V151.455H443.12V158H441.578ZM442.353 150.526C442.109 150.526 441.899 150.445 441.723 150.283C441.547 150.118 441.458 149.92 441.458 149.69C441.458 149.457 441.547 149.26 441.723 149.098C441.899 148.933 442.109 148.851 442.353 148.851C442.6 148.851 442.811 148.933 442.984 149.098C443.16 149.26 443.248 149.457 443.248 149.69C443.248 149.92 443.16 150.118 442.984 150.283C442.811 150.445 442.6 150.526 442.353 150.526ZM447.136 158.115C446.621 158.115 446.161 157.983 445.755 157.719C445.349 157.455 445.028 157.071 444.792 156.568C444.556 156.065 444.438 155.455 444.438 154.736C444.438 154.009 444.558 153.395 444.796 152.895C445.038 152.392 445.363 152.013 445.772 151.757C446.181 151.499 446.637 151.369 447.14 151.369C447.523 151.369 447.839 151.435 448.086 151.565C448.333 151.693 448.529 151.848 448.674 152.03C448.819 152.209 448.931 152.378 449.011 152.537H449.075V149.273H450.621V158H449.104V156.969H449.011C448.931 157.128 448.816 157.297 448.665 157.476C448.515 157.652 448.316 157.803 448.069 157.928C447.822 158.053 447.511 158.115 447.136 158.115ZM447.566 156.849C447.893 156.849 448.171 156.761 448.401 156.585C448.631 156.406 448.806 156.158 448.925 155.839C449.045 155.521 449.104 155.151 449.104 154.727C449.104 154.304 449.045 153.936 448.925 153.624C448.809 153.311 448.636 153.068 448.406 152.895C448.178 152.722 447.898 152.635 447.566 152.635C447.222 152.635 446.935 152.724 446.705 152.903C446.475 153.082 446.302 153.33 446.185 153.645C446.069 153.96 446.011 154.321 446.011 154.727C446.011 155.136 446.069 155.501 446.185 155.822C446.305 156.141 446.479 156.392 446.71 156.577C446.942 156.759 447.228 156.849 447.566 156.849ZM455.163 158.128C454.507 158.128 453.94 157.991 453.463 157.719C452.988 157.443 452.623 157.054 452.368 156.551C452.112 156.045 451.984 155.45 451.984 154.766C451.984 154.092 452.112 153.501 452.368 152.993C452.626 152.482 452.987 152.084 453.45 151.8C453.913 151.513 454.457 151.369 455.082 151.369C455.485 151.369 455.866 151.435 456.224 151.565C456.585 151.693 456.903 151.892 457.179 152.162C457.457 152.432 457.676 152.776 457.835 153.193C457.994 153.608 458.074 154.102 458.074 154.676V155.149H452.708V154.109H456.595C456.592 153.814 456.528 153.551 456.403 153.321C456.278 153.088 456.103 152.905 455.879 152.771C455.657 152.638 455.399 152.571 455.103 152.571C454.788 152.571 454.511 152.648 454.272 152.801C454.034 152.952 453.848 153.151 453.714 153.398C453.583 153.642 453.517 153.911 453.514 154.203V155.111C453.514 155.491 453.583 155.818 453.723 156.091C453.862 156.361 454.056 156.568 454.306 156.713C454.556 156.855 454.849 156.926 455.184 156.926C455.409 156.926 455.612 156.895 455.794 156.832C455.975 156.767 456.133 156.672 456.267 156.547C456.4 156.422 456.501 156.267 456.569 156.082L458.01 156.244C457.919 156.625 457.745 156.957 457.49 157.241C457.237 157.523 456.913 157.741 456.518 157.898C456.123 158.051 455.672 158.128 455.163 158.128ZM462.234 158.128C461.594 158.128 461.04 157.987 460.572 157.706C460.103 157.425 459.739 157.031 459.481 156.526C459.225 156.02 459.097 155.429 459.097 154.753C459.097 154.077 459.225 153.484 459.481 152.976C459.739 152.467 460.103 152.072 460.572 151.791C461.04 151.51 461.594 151.369 462.234 151.369C462.873 151.369 463.427 151.51 463.896 151.791C464.364 152.072 464.727 152.467 464.982 152.976C465.241 153.484 465.37 154.077 465.37 154.753C465.37 155.429 465.241 156.02 464.982 156.526C464.727 157.031 464.364 157.425 463.896 157.706C463.427 157.987 462.873 158.128 462.234 158.128ZM462.242 156.892C462.589 156.892 462.879 156.797 463.112 156.607C463.344 156.413 463.518 156.155 463.631 155.831C463.748 155.507 463.806 155.146 463.806 154.749C463.806 154.348 463.748 153.986 463.631 153.662C463.518 153.335 463.344 153.075 463.112 152.882C462.879 152.689 462.589 152.592 462.242 152.592C461.887 152.592 461.592 152.689 461.356 152.882C461.123 153.075 460.948 153.335 460.832 153.662C460.718 153.986 460.661 154.348 460.661 154.749C460.661 155.146 460.718 155.507 460.832 155.831C460.948 156.155 461.123 156.413 461.356 156.607C461.592 156.797 461.887 156.892 462.242 156.892ZM471.539 158.132C471.125 158.132 470.751 158.058 470.419 157.911C470.089 157.76 469.828 157.538 469.635 157.246C469.444 156.953 469.349 156.592 469.349 156.163C469.349 155.794 469.417 155.489 469.554 155.247C469.69 155.006 469.876 154.812 470.112 154.668C470.348 154.523 470.613 154.413 470.909 154.339C471.207 154.263 471.515 154.207 471.833 154.173C472.217 154.134 472.528 154.098 472.767 154.067C473.005 154.033 473.179 153.982 473.287 153.913C473.397 153.842 473.453 153.733 473.453 153.585V153.56C473.453 153.239 473.358 152.99 473.167 152.814C472.977 152.638 472.703 152.55 472.345 152.55C471.967 152.55 471.667 152.632 471.446 152.797C471.227 152.962 471.079 153.156 471.002 153.381L469.562 153.176C469.676 152.778 469.863 152.446 470.125 152.179C470.386 151.909 470.706 151.707 471.083 151.574C471.461 151.438 471.879 151.369 472.336 151.369C472.652 151.369 472.966 151.406 473.278 151.48C473.591 151.554 473.876 151.676 474.135 151.847C474.393 152.014 474.6 152.243 474.757 152.533C474.916 152.822 474.995 153.185 474.995 153.619V158H473.512V157.101H473.461C473.368 157.283 473.235 157.453 473.065 157.612C472.897 157.768 472.686 157.895 472.43 157.991C472.177 158.085 471.88 158.132 471.539 158.132ZM471.94 156.999C472.25 156.999 472.518 156.937 472.745 156.815C472.973 156.69 473.147 156.526 473.27 156.321C473.395 156.116 473.457 155.893 473.457 155.652V154.881C473.409 154.92 473.326 154.957 473.21 154.991C473.096 155.026 472.968 155.055 472.826 155.081C472.684 155.107 472.544 155.129 472.404 155.149C472.265 155.169 472.145 155.186 472.042 155.2C471.812 155.232 471.606 155.283 471.424 155.354C471.243 155.425 471.099 155.524 470.994 155.652C470.889 155.777 470.836 155.939 470.836 156.138C470.836 156.422 470.94 156.636 471.147 156.781C471.355 156.926 471.619 156.999 471.94 156.999ZM476.547 160.455V151.455H478.064V152.537H478.153C478.233 152.378 478.345 152.209 478.49 152.03C478.635 151.848 478.831 151.693 479.078 151.565C479.325 151.435 479.64 151.369 480.024 151.369C480.529 151.369 480.985 151.499 481.392 151.757C481.801 152.013 482.125 152.392 482.363 152.895C482.605 153.395 482.725 154.009 482.725 154.736C482.725 155.455 482.608 156.065 482.372 156.568C482.136 157.071 481.815 157.455 481.409 157.719C481.002 157.983 480.542 158.115 480.028 158.115C479.653 158.115 479.342 158.053 479.095 157.928C478.848 157.803 478.649 157.652 478.498 157.476C478.35 157.297 478.235 157.128 478.153 156.969H478.089V160.455H476.547ZM478.059 154.727C478.059 155.151 478.119 155.521 478.238 155.839C478.36 156.158 478.535 156.406 478.762 156.585C478.993 156.761 479.271 156.849 479.598 156.849C479.939 156.849 480.224 156.759 480.454 156.577C480.684 156.392 480.858 156.141 480.974 155.822C481.093 155.501 481.153 155.136 481.153 154.727C481.153 154.321 481.095 153.96 480.978 153.645C480.862 153.33 480.689 153.082 480.458 152.903C480.228 152.724 479.941 152.635 479.598 152.635C479.268 152.635 478.988 152.722 478.758 152.895C478.528 153.068 478.353 153.311 478.234 153.624C478.118 153.936 478.059 154.304 478.059 154.727ZM484.047 158V151.455H485.589V158H484.047ZM484.822 150.526C484.578 150.526 484.368 150.445 484.191 150.283C484.015 150.118 483.927 149.92 483.927 149.69C483.927 149.457 484.015 149.26 484.191 149.098C484.368 148.933 484.578 148.851 484.822 148.851C485.069 148.851 485.279 148.933 485.453 149.098C485.629 149.26 485.717 149.457 485.717 149.69C485.717 149.92 485.629 150.118 485.453 150.283C485.279 150.445 485.069 150.526 484.822 150.526ZM488.126 158.094C487.867 158.094 487.646 158.003 487.461 157.821C487.276 157.639 487.185 157.418 487.188 157.156C487.185 156.901 487.276 156.682 487.461 156.5C487.646 156.318 487.867 156.227 488.126 156.227C488.376 156.227 488.593 156.318 488.778 156.5C488.965 156.682 489.06 156.901 489.063 157.156C489.06 157.33 489.015 157.487 488.927 157.629C488.842 157.771 488.728 157.885 488.586 157.97C488.447 158.053 488.293 158.094 488.126 158.094ZM496.502 151.455L494.172 158H492.467L490.136 151.455H491.781L493.285 156.317H493.353L494.862 151.455H496.502ZM497.57 158V151.455H499.113V158H497.57ZM498.346 150.526C498.101 150.526 497.891 150.445 497.715 150.283C497.539 150.118 497.451 149.92 497.451 149.69C497.451 149.457 497.539 149.26 497.715 149.098C497.891 148.933 498.101 148.851 498.346 148.851C498.593 148.851 498.803 148.933 498.976 149.098C499.152 149.26 499.24 149.457 499.24 149.69C499.24 149.92 499.152 150.118 498.976 150.283C498.803 150.445 498.593 150.526 498.346 150.526ZM503.128 158.115C502.614 158.115 502.153 157.983 501.747 157.719C501.341 157.455 501.02 157.071 500.784 156.568C500.548 156.065 500.43 155.455 500.43 154.736C500.43 154.009 500.55 153.395 500.788 152.895C501.03 152.392 501.355 152.013 501.764 151.757C502.173 151.499 502.629 151.369 503.132 151.369C503.516 151.369 503.831 151.435 504.078 151.565C504.325 151.693 504.521 151.848 504.666 152.03C504.811 152.209 504.923 152.378 505.003 152.537H505.067V149.273H506.614V158H505.097V156.969H505.003C504.923 157.128 504.808 157.297 504.658 157.476C504.507 157.652 504.308 157.803 504.061 157.928C503.814 158.053 503.503 158.115 503.128 158.115ZM503.558 156.849C503.885 156.849 504.163 156.761 504.393 156.585C504.624 156.406 504.798 156.158 504.918 155.839C505.037 155.521 505.097 155.151 505.097 154.727C505.097 154.304 505.037 153.936 504.918 153.624C504.801 153.311 504.628 153.068 504.398 152.895C504.17 152.722 503.891 152.635 503.558 152.635C503.214 152.635 502.928 152.724 502.697 152.903C502.467 153.082 502.294 153.33 502.178 153.645C502.061 153.96 502.003 154.321 502.003 154.727C502.003 155.136 502.061 155.501 502.178 155.822C502.297 156.141 502.472 156.392 502.702 156.577C502.935 156.759 503.22 156.849 503.558 156.849ZM511.155 158.128C510.499 158.128 509.932 157.991 509.455 157.719C508.98 157.443 508.615 157.054 508.36 156.551C508.104 156.045 507.976 155.45 507.976 154.766C507.976 154.092 508.104 153.501 508.36 152.993C508.618 152.482 508.979 152.084 509.442 151.8C509.905 151.513 510.449 151.369 511.074 151.369C511.478 151.369 511.858 151.435 512.216 151.565C512.577 151.693 512.895 151.892 513.171 152.162C513.449 152.432 513.668 152.776 513.827 153.193C513.986 153.608 514.066 154.102 514.066 154.676V155.149H508.701V154.109H512.587C512.584 153.814 512.52 153.551 512.395 153.321C512.27 153.088 512.096 152.905 511.871 152.771C511.65 152.638 511.391 152.571 511.096 152.571C510.78 152.571 510.503 152.648 510.265 152.801C510.026 152.952 509.84 153.151 509.706 153.398C509.576 153.642 509.509 153.911 509.506 154.203V155.111C509.506 155.491 509.576 155.818 509.715 156.091C509.854 156.361 510.049 156.568 510.299 156.713C510.549 156.855 510.841 156.926 511.176 156.926C511.401 156.926 511.604 156.895 511.786 156.832C511.968 156.767 512.125 156.672 512.259 156.547C512.392 156.422 512.493 156.267 512.561 156.082L514.002 156.244C513.911 156.625 513.738 156.957 513.482 157.241C513.229 157.523 512.905 157.741 512.51 157.898C512.115 158.051 511.664 158.128 511.155 158.128ZM518.226 158.128C517.587 158.128 517.033 157.987 516.564 157.706C516.095 157.425 515.732 157.031 515.473 156.526C515.217 156.02 515.089 155.429 515.089 154.753C515.089 154.077 515.217 153.484 515.473 152.976C515.732 152.467 516.095 152.072 516.564 151.791C517.033 151.51 517.587 151.369 518.226 151.369C518.865 151.369 519.419 151.51 519.888 151.791C520.357 152.072 520.719 152.467 520.974 152.976C521.233 153.484 521.362 154.077 521.362 154.753C521.362 155.429 521.233 156.02 520.974 156.526C520.719 157.031 520.357 157.425 519.888 157.706C519.419 157.987 518.865 158.128 518.226 158.128ZM518.234 156.892C518.581 156.892 518.871 156.797 519.104 156.607C519.337 156.413 519.51 156.155 519.624 155.831C519.74 155.507 519.798 155.146 519.798 154.749C519.798 154.348 519.74 153.986 519.624 153.662C519.51 153.335 519.337 153.075 519.104 152.882C518.871 152.689 518.581 152.592 518.234 152.592C517.879 152.592 517.584 152.689 517.348 152.882C517.115 153.075 516.94 153.335 516.824 153.662C516.71 153.986 516.653 154.348 516.653 154.749C516.653 155.146 516.71 155.507 516.824 155.831C516.94 156.155 517.115 156.413 517.348 156.607C517.584 156.797 517.879 156.892 518.234 156.892ZM525.648 160.455V151.455H527.165V152.537H527.255C527.334 152.378 527.446 152.209 527.591 152.03C527.736 151.848 527.932 151.693 528.179 151.565C528.426 151.435 528.742 151.369 529.125 151.369C529.631 151.369 530.087 151.499 530.493 151.757C530.902 152.013 531.226 152.392 531.465 152.895C531.706 153.395 531.827 154.009 531.827 154.736C531.827 155.455 531.709 156.065 531.473 156.568C531.238 157.071 530.917 157.455 530.51 157.719C530.104 157.983 529.644 158.115 529.13 158.115C528.755 158.115 528.444 158.053 528.196 157.928C527.949 157.803 527.75 157.652 527.6 157.476C527.452 157.297 527.337 157.128 527.255 156.969H527.191V160.455H525.648ZM527.161 154.727C527.161 155.151 527.221 155.521 527.34 155.839C527.462 156.158 527.637 156.406 527.864 156.585C528.094 156.761 528.373 156.849 528.699 156.849C529.04 156.849 529.326 156.759 529.556 156.577C529.786 156.392 529.959 156.141 530.076 155.822C530.195 155.501 530.255 155.136 530.255 154.727C530.255 154.321 530.196 153.96 530.08 153.645C529.963 153.33 529.79 153.082 529.56 152.903C529.33 152.724 529.043 152.635 528.699 152.635C528.37 152.635 528.09 152.722 527.86 152.895C527.63 153.068 527.455 153.311 527.336 153.624C527.219 153.936 527.161 154.304 527.161 154.727ZM534.691 149.273V158H533.148V149.273H534.691ZM538.161 158.132C537.746 158.132 537.372 158.058 537.04 157.911C536.71 157.76 536.449 157.538 536.256 157.246C536.065 156.953 535.97 156.592 535.97 156.163C535.97 155.794 536.038 155.489 536.175 155.247C536.311 155.006 536.497 154.812 536.733 154.668C536.969 154.523 537.234 154.413 537.53 154.339C537.828 154.263 538.136 154.207 538.455 154.173C538.838 154.134 539.149 154.098 539.388 154.067C539.626 154.033 539.8 153.982 539.908 153.913C540.018 153.842 540.074 153.733 540.074 153.585V153.56C540.074 153.239 539.979 152.99 539.788 152.814C539.598 152.638 539.324 152.55 538.966 152.55C538.588 152.55 538.288 152.632 538.067 152.797C537.848 152.962 537.7 153.156 537.624 153.381L536.183 153.176C536.297 152.778 536.484 152.446 536.746 152.179C537.007 151.909 537.327 151.707 537.705 151.574C538.082 151.438 538.5 151.369 538.957 151.369C539.273 151.369 539.587 151.406 539.899 151.48C540.212 151.554 540.497 151.676 540.756 151.847C541.014 152.014 541.222 152.243 541.378 152.533C541.537 152.822 541.616 153.185 541.616 153.619V158H540.134V157.101H540.082C539.989 157.283 539.857 157.453 539.686 157.612C539.518 157.768 539.307 157.895 539.051 157.991C538.798 158.085 538.501 158.132 538.161 158.132ZM538.561 156.999C538.871 156.999 539.139 156.937 539.366 156.815C539.594 156.69 539.768 156.526 539.891 156.321C540.016 156.116 540.078 155.893 540.078 155.652V154.881C540.03 154.92 539.947 154.957 539.831 154.991C539.717 155.026 539.589 155.055 539.447 155.081C539.305 155.107 539.165 155.129 539.026 155.149C538.886 155.169 538.766 155.186 538.663 155.2C538.433 155.232 538.227 155.283 538.045 155.354C537.864 155.425 537.72 155.524 537.615 155.652C537.51 155.777 537.457 155.939 537.457 156.138C537.457 156.422 537.561 156.636 537.768 156.781C537.976 156.926 538.24 156.999 538.561 156.999ZM543.892 160.455C543.682 160.455 543.487 160.438 543.308 160.403C543.132 160.372 542.991 160.335 542.886 160.293L543.244 159.091C543.469 159.156 543.669 159.188 543.845 159.185C544.021 159.182 544.176 159.126 544.31 159.018C544.446 158.913 544.561 158.737 544.655 158.49L544.787 158.136L542.413 151.455H544.05L545.558 156.398H545.626L547.139 151.455H548.78L546.159 158.793C546.037 159.139 545.875 159.436 545.673 159.683C545.472 159.933 545.224 160.124 544.932 160.254C544.642 160.388 544.295 160.455 543.892 160.455ZM552.522 158.128C551.866 158.128 551.299 157.991 550.822 157.719C550.348 157.443 549.983 157.054 549.727 156.551C549.471 156.045 549.343 155.45 549.343 154.766C549.343 154.092 549.471 153.501 549.727 152.993C549.985 152.482 550.346 152.084 550.809 151.8C551.272 151.513 551.816 151.369 552.441 151.369C552.845 151.369 553.225 151.435 553.583 151.565C553.944 151.693 554.262 151.892 554.538 152.162C554.816 152.432 555.035 152.776 555.194 153.193C555.353 153.608 555.433 154.102 555.433 154.676V155.149H550.068V154.109H553.954C553.951 153.814 553.887 153.551 553.762 153.321C553.637 153.088 553.463 152.905 553.238 152.771C553.017 152.638 552.758 152.571 552.463 152.571C552.147 152.571 551.87 152.648 551.632 152.801C551.393 152.952 551.207 153.151 551.074 153.398C550.943 153.642 550.876 153.911 550.873 154.203V155.111C550.873 155.491 550.943 155.818 551.082 156.091C551.221 156.361 551.416 156.568 551.666 156.713C551.916 156.855 552.208 156.926 552.544 156.926C552.768 156.926 552.971 156.895 553.153 156.832C553.335 156.767 553.493 156.672 553.626 156.547C553.76 156.422 553.86 156.267 553.929 156.082L555.369 156.244C555.278 156.625 555.105 156.957 554.849 157.241C554.596 157.523 554.272 157.741 553.877 157.898C553.483 158.051 553.031 158.128 552.522 158.128ZM556.738 158V151.455H558.234V152.545H558.302C558.421 152.168 558.626 151.876 558.915 151.672C559.208 151.464 559.542 151.361 559.917 151.361C560.002 151.361 560.097 151.365 560.202 151.374C560.31 151.379 560.4 151.389 560.471 151.403V152.822C560.406 152.8 560.302 152.78 560.16 152.763C560.021 152.743 559.886 152.733 559.755 152.733C559.474 152.733 559.221 152.794 558.996 152.916C558.775 153.036 558.6 153.202 558.472 153.415C558.344 153.628 558.281 153.874 558.281 154.152V158H556.738Z" fill="#F5DDFF"/>
<rect x="719" y="138" width="139" height="32" rx="2" fill="#55385E"/>
<path d="M735.947 158V149.273H739.219C739.89 149.273 740.452 149.398 740.907 149.648C741.364 149.898 741.71 150.241 741.942 150.679C742.178 151.114 742.296 151.608 742.296 152.162C742.296 152.722 742.178 153.219 741.942 153.653C741.707 154.088 741.359 154.43 740.898 154.68C740.438 154.928 739.871 155.051 739.198 155.051H737.029V153.751H738.985C739.377 153.751 739.698 153.683 739.948 153.547C740.198 153.411 740.383 153.223 740.502 152.984C740.624 152.746 740.685 152.472 740.685 152.162C740.685 151.852 740.624 151.58 740.502 151.344C740.383 151.108 740.197 150.925 739.944 150.794C739.694 150.661 739.371 150.594 738.977 150.594H737.528V158H735.947ZM743.601 158V151.455H745.097V152.545H745.165C745.284 152.168 745.489 151.876 745.779 151.672C746.071 151.464 746.405 151.361 746.78 151.361C746.865 151.361 746.961 151.365 747.066 151.374C747.174 151.379 747.263 151.389 747.334 151.403V152.822C747.269 152.8 747.165 152.78 747.023 152.763C746.884 152.743 746.749 152.733 746.618 152.733C746.337 152.733 746.084 152.794 745.86 152.916C745.638 153.036 745.463 153.202 745.336 153.415C745.208 153.628 745.144 153.874 745.144 154.152V158H743.601ZM748.359 158V151.455H749.902V158H748.359ZM749.135 150.526C748.89 150.526 748.68 150.445 748.504 150.283C748.328 150.118 748.24 149.92 748.24 149.69C748.24 149.457 748.328 149.26 748.504 149.098C748.68 148.933 748.89 148.851 749.135 148.851C749.382 148.851 749.592 148.933 749.765 149.098C749.941 149.26 750.029 149.457 750.029 149.69C750.029 149.92 749.941 150.118 749.765 150.283C749.592 150.445 749.382 150.526 749.135 150.526ZM757.335 151.455L755.004 158H753.299L750.968 151.455H752.613L754.117 156.317H754.185L755.694 151.455H757.335ZM760.098 158.132C759.683 158.132 759.31 158.058 758.977 157.911C758.648 157.76 758.386 157.538 758.193 157.246C758.003 156.953 757.908 156.592 757.908 156.163C757.908 155.794 757.976 155.489 758.112 155.247C758.249 155.006 758.435 154.812 758.67 154.668C758.906 154.523 759.172 154.413 759.467 154.339C759.766 154.263 760.074 154.207 760.392 154.173C760.776 154.134 761.087 154.098 761.325 154.067C761.564 154.033 761.737 153.982 761.845 153.913C761.956 153.842 762.011 153.733 762.011 153.585V153.56C762.011 153.239 761.916 152.99 761.726 152.814C761.536 152.638 761.261 152.55 760.903 152.55C760.526 152.55 760.226 152.632 760.004 152.797C759.786 152.962 759.638 153.156 759.561 153.381L758.121 153.176C758.234 152.778 758.422 152.446 758.683 152.179C758.945 151.909 759.264 151.707 759.642 151.574C760.02 151.438 760.438 151.369 760.895 151.369C761.21 151.369 761.524 151.406 761.837 151.48C762.149 151.554 762.435 151.676 762.693 151.847C762.952 152.014 763.159 152.243 763.315 152.533C763.474 152.822 763.554 153.185 763.554 153.619V158H762.071V157.101H762.02C761.926 157.283 761.794 157.453 761.624 157.612C761.456 157.768 761.244 157.895 760.989 157.991C760.736 158.085 760.439 158.132 760.098 158.132ZM760.499 156.999C760.808 156.999 761.077 156.937 761.304 156.815C761.531 156.69 761.706 156.526 761.828 156.321C761.953 156.116 762.016 155.893 762.016 155.652V154.881C761.967 154.92 761.885 154.957 761.768 154.991C761.655 155.026 761.527 155.055 761.385 155.081C761.243 155.107 761.102 155.129 760.963 155.149C760.824 155.169 760.703 155.186 760.601 155.2C760.371 155.232 760.165 155.283 759.983 155.354C759.801 155.425 759.658 155.524 759.553 155.652C759.447 155.777 759.395 155.939 759.395 156.138C759.395 156.422 759.499 156.636 759.706 156.781C759.913 156.926 760.178 156.999 760.499 156.999ZM768.374 151.455V152.648H764.611V151.455H768.374ZM765.54 149.886H767.082V156.031C767.082 156.239 767.114 156.398 767.176 156.509C767.241 156.616 767.327 156.69 767.432 156.73C767.537 156.77 767.653 156.79 767.781 156.79C767.878 156.79 767.966 156.783 768.045 156.768C768.128 156.754 768.19 156.741 768.233 156.73L768.493 157.936C768.411 157.964 768.293 157.996 768.139 158.03C767.989 158.064 767.804 158.084 767.585 158.089C767.199 158.101 766.851 158.043 766.541 157.915C766.232 157.784 765.986 157.582 765.804 157.31C765.625 157.037 765.537 156.696 765.54 156.287V149.886ZM772.491 158.128C771.835 158.128 771.268 157.991 770.791 157.719C770.316 157.443 769.951 157.054 769.696 156.551C769.44 156.045 769.312 155.45 769.312 154.766C769.312 154.092 769.44 153.501 769.696 152.993C769.954 152.482 770.315 152.084 770.778 151.8C771.241 151.513 771.785 151.369 772.41 151.369C772.814 151.369 773.194 151.435 773.552 151.565C773.913 151.693 774.231 151.892 774.507 152.162C774.785 152.432 775.004 152.776 775.163 153.193C775.322 153.608 775.402 154.102 775.402 154.676V155.149H770.037V154.109H773.923C773.92 153.814 773.856 153.551 773.731 153.321C773.606 153.088 773.431 152.905 773.207 152.771C772.985 152.638 772.727 152.571 772.431 152.571C772.116 152.571 771.839 152.648 771.6 152.801C771.362 152.952 771.176 153.151 771.042 153.398C770.912 153.642 770.845 153.911 770.842 154.203V155.111C770.842 155.491 770.912 155.818 771.051 156.091C771.19 156.361 771.385 156.568 771.635 156.713C771.885 156.855 772.177 156.926 772.512 156.926C772.737 156.926 772.94 156.895 773.122 156.832C773.304 156.767 773.461 156.672 773.595 156.547C773.728 156.422 773.829 156.267 773.897 156.082L775.338 156.244C775.247 156.625 775.074 156.957 774.818 157.241C774.565 157.523 774.241 157.741 773.846 157.898C773.451 158.051 773 158.128 772.491 158.128ZM780.919 149.273L783.19 156.142H783.28L785.547 149.273H787.286L784.209 158H782.257L779.185 149.273H780.919ZM788.367 158V151.455H789.909V158H788.367ZM789.142 150.526C788.898 150.526 788.688 150.445 788.512 150.283C788.336 150.118 788.248 149.92 788.248 149.69C788.248 149.457 788.336 149.26 788.512 149.098C788.688 148.933 788.898 148.851 789.142 148.851C789.39 148.851 789.6 148.933 789.773 149.098C789.949 149.26 790.037 149.457 790.037 149.69C790.037 149.92 789.949 150.118 789.773 150.283C789.6 150.445 789.39 150.526 789.142 150.526ZM793.925 158.115C793.411 158.115 792.95 157.983 792.544 157.719C792.138 157.455 791.817 157.071 791.581 156.568C791.345 156.065 791.227 155.455 791.227 154.736C791.227 154.009 791.347 153.395 791.585 152.895C791.827 152.392 792.152 152.013 792.561 151.757C792.97 151.499 793.426 151.369 793.929 151.369C794.313 151.369 794.628 151.435 794.875 151.565C795.122 151.693 795.318 151.848 795.463 152.03C795.608 152.209 795.72 152.378 795.8 152.537H795.864V149.273H797.411V158H795.893V156.969H795.8C795.72 157.128 795.605 157.297 795.455 157.476C795.304 157.652 795.105 157.803 794.858 157.928C794.611 158.053 794.3 158.115 793.925 158.115ZM794.355 156.849C794.682 156.849 794.96 156.761 795.19 156.585C795.42 156.406 795.595 156.158 795.714 155.839C795.834 155.521 795.893 155.151 795.893 154.727C795.893 154.304 795.834 153.936 795.714 153.624C795.598 153.311 795.425 153.068 795.195 152.895C794.967 152.722 794.688 152.635 794.355 152.635C794.011 152.635 793.724 152.724 793.494 152.903C793.264 153.082 793.091 153.33 792.974 153.645C792.858 153.96 792.8 154.321 792.8 154.727C792.8 155.136 792.858 155.501 792.974 155.822C793.094 156.141 793.268 156.392 793.499 156.577C793.732 156.759 794.017 156.849 794.355 156.849ZM801.952 158.128C801.296 158.128 800.729 157.991 800.252 157.719C799.777 157.443 799.412 157.054 799.157 156.551C798.901 156.045 798.773 155.45 798.773 154.766C798.773 154.092 798.901 153.501 799.157 152.993C799.415 152.482 799.776 152.084 800.239 151.8C800.702 151.513 801.246 151.369 801.871 151.369C802.275 151.369 802.655 151.435 803.013 151.565C803.374 151.693 803.692 151.892 803.968 152.162C804.246 152.432 804.465 152.776 804.624 153.193C804.783 153.608 804.863 154.102 804.863 154.676V155.149H799.498V154.109H803.384C803.381 153.814 803.317 153.551 803.192 153.321C803.067 153.088 802.892 152.905 802.668 152.771C802.446 152.638 802.188 152.571 801.892 152.571C801.577 152.571 801.3 152.648 801.061 152.801C800.823 152.952 800.637 153.151 800.503 153.398C800.373 153.642 800.306 153.911 800.303 154.203V155.111C800.303 155.491 800.373 155.818 800.512 156.091C800.651 156.361 800.846 156.568 801.096 156.713C801.346 156.855 801.638 156.926 801.973 156.926C802.198 156.926 802.401 156.895 802.583 156.832C802.765 156.767 802.922 156.672 803.056 156.547C803.189 156.422 803.29 156.267 803.358 156.082L804.799 156.244C804.708 156.625 804.534 156.957 804.279 157.241C804.026 157.523 803.702 157.741 803.307 157.898C802.912 158.051 802.461 158.128 801.952 158.128ZM809.023 158.128C808.384 158.128 807.83 157.987 807.361 157.706C806.892 157.425 806.528 157.031 806.27 156.526C806.014 156.02 805.886 155.429 805.886 154.753C805.886 154.077 806.014 153.484 806.27 152.976C806.528 152.467 806.892 152.072 807.361 151.791C807.83 151.51 808.384 151.369 809.023 151.369C809.662 151.369 810.216 151.51 810.685 151.791C811.153 152.072 811.516 152.467 811.771 152.976C812.03 153.484 812.159 154.077 812.159 154.753C812.159 155.429 812.03 156.02 811.771 156.526C811.516 157.031 811.153 157.425 810.685 157.706C810.216 157.987 809.662 158.128 809.023 158.128ZM809.031 156.892C809.378 156.892 809.668 156.797 809.901 156.607C810.134 156.413 810.307 156.155 810.42 155.831C810.537 155.507 810.595 155.146 810.595 154.749C810.595 154.348 810.537 153.986 810.42 153.662C810.307 153.335 810.134 153.075 809.901 152.882C809.668 152.689 809.378 152.592 809.031 152.592C808.676 152.592 808.381 152.689 808.145 152.882C807.912 153.075 807.737 153.335 807.621 153.662C807.507 153.986 807.45 154.348 807.45 154.749C807.45 155.146 807.507 155.507 807.621 155.831C807.737 156.155 807.912 156.413 808.145 156.607C808.381 156.797 808.676 156.892 809.031 156.892ZM816.445 158V151.455H817.919V152.567H817.996C818.132 152.192 818.358 151.899 818.674 151.689C818.989 151.476 819.365 151.369 819.803 151.369C820.246 151.369 820.62 151.477 820.924 151.693C821.23 151.906 821.446 152.197 821.571 152.567H821.64C821.784 152.203 822.029 151.913 822.373 151.697C822.719 151.479 823.13 151.369 823.604 151.369C824.206 151.369 824.698 151.56 825.078 151.94C825.459 152.321 825.65 152.876 825.65 153.607V158H824.103V153.845C824.103 153.439 823.995 153.142 823.779 152.955C823.563 152.764 823.299 152.669 822.986 152.669C822.614 152.669 822.323 152.786 822.113 153.018C821.905 153.249 821.801 153.548 821.801 153.918V158H820.289V153.781C820.289 153.443 820.186 153.173 819.982 152.972C819.78 152.77 819.516 152.669 819.189 152.669C818.968 152.669 818.766 152.726 818.584 152.839C818.402 152.95 818.257 153.108 818.15 153.312C818.042 153.514 817.988 153.75 817.988 154.02V158H816.445ZM827.214 160.455V151.455H828.732V152.537H828.821C828.901 152.378 829.013 152.209 829.158 152.03C829.303 151.848 829.499 151.693 829.746 151.565C829.993 151.435 830.308 151.369 830.692 151.369C831.197 151.369 831.653 151.499 832.06 151.757C832.469 152.013 832.793 152.392 833.031 152.895C833.273 153.395 833.393 154.009 833.393 154.736C833.393 155.455 833.276 156.065 833.04 156.568C832.804 157.071 832.483 157.455 832.077 157.719C831.67 157.983 831.21 158.115 830.696 158.115C830.321 158.115 830.01 158.053 829.763 157.928C829.516 157.803 829.317 157.652 829.166 157.476C829.018 157.297 828.903 157.128 828.821 156.969H828.757V160.455H827.214ZM828.727 154.727C828.727 155.151 828.787 155.521 828.906 155.839C829.028 156.158 829.203 156.406 829.43 156.585C829.661 156.761 829.939 156.849 830.266 156.849C830.607 156.849 830.892 156.759 831.122 156.577C831.352 156.392 831.526 156.141 831.642 155.822C831.761 155.501 831.821 155.136 831.821 154.727C831.821 154.321 831.763 153.96 831.646 153.645C831.53 153.33 831.357 153.082 831.126 152.903C830.896 152.724 830.609 152.635 830.266 152.635C829.936 152.635 829.656 152.722 829.426 152.895C829.196 153.068 829.021 153.311 828.902 153.624C828.786 153.936 828.727 154.304 828.727 154.727ZM834.54 156.381V155.124L838.243 149.273H839.291V151.062H838.652L836.159 155.013V155.081H841.328V156.381H834.54ZM838.703 158V155.997L838.72 155.435V149.273H840.212V158H838.703Z" fill="#F5DDFF"/>
<rect x="56" y="56" width="802" height="32" rx="2" fill="#DB763E"/>
<path d="M401.098 69.6719C401.058 69.2997 400.89 69.0099 400.595 68.8026C400.302 68.5952 399.922 68.4915 399.453 68.4915C399.123 68.4915 398.841 68.5412 398.605 68.6406C398.369 68.7401 398.189 68.875 398.064 69.0455C397.939 69.2159 397.875 69.4105 397.872 69.6293C397.872 69.8111 397.913 69.9687 397.996 70.1023C398.081 70.2358 398.196 70.3494 398.341 70.4432C398.486 70.5341 398.646 70.6108 398.822 70.6733C398.998 70.7358 399.176 70.7884 399.355 70.831L400.173 71.0355C400.503 71.1122 400.819 71.2159 401.123 71.3466C401.43 71.4773 401.704 71.642 401.946 71.8409C402.19 72.0398 402.383 72.2798 402.525 72.5611C402.667 72.8423 402.738 73.1719 402.738 73.5497C402.738 74.0611 402.608 74.5114 402.346 74.9006C402.085 75.2869 401.707 75.5895 401.213 75.8082C400.721 76.0241 400.126 76.1321 399.427 76.1321C398.748 76.1321 398.159 76.027 397.659 75.8168C397.162 75.6065 396.773 75.2997 396.491 74.8963C396.213 74.4929 396.062 74.0014 396.04 73.4219H397.595C397.618 73.7259 397.711 73.9787 397.876 74.1804C398.041 74.3821 398.256 74.5327 398.52 74.6321C398.787 74.7315 399.085 74.7812 399.415 74.7812C399.758 74.7812 400.059 74.7301 400.318 74.6278C400.579 74.5227 400.784 74.3778 400.932 74.1932C401.079 74.0057 401.155 73.7869 401.157 73.5369C401.155 73.3097 401.088 73.1222 400.957 72.9744C400.827 72.8239 400.643 72.6989 400.407 72.5994C400.175 72.4972 399.902 72.4062 399.589 72.3267L398.596 72.071C397.878 71.8864 397.309 71.6065 396.892 71.2315C396.477 70.8537 396.27 70.3523 396.27 69.7273C396.27 69.2131 396.409 68.7628 396.687 68.3764C396.969 67.9901 397.351 67.6903 397.834 67.4773C398.317 67.2614 398.863 67.1534 399.474 67.1534C400.094 67.1534 400.636 67.2614 401.102 67.4773C401.571 67.6903 401.939 67.9872 402.206 68.3679C402.473 68.7457 402.611 69.1804 402.619 69.6719H401.098ZM404.08 76V69.4545H405.622V76H404.08ZM404.855 68.5256C404.611 68.5256 404.401 68.4446 404.225 68.2827C404.048 68.1179 403.96 67.9205 403.96 67.6903C403.96 67.4574 404.048 67.2599 404.225 67.098C404.401 66.9332 404.611 66.8509 404.855 66.8509C405.102 66.8509 405.313 66.9332 405.486 67.098C405.662 67.2599 405.75 67.4574 405.75 67.6903C405.75 67.9205 405.662 68.1179 405.486 68.2827C405.313 68.4446 405.102 68.5256 404.855 68.5256ZM408.751 72.1648V76H407.209V69.4545H408.683V70.5668H408.76C408.91 70.2003 409.15 69.9091 409.48 69.6932C409.812 69.4773 410.223 69.3693 410.711 69.3693C411.163 69.3693 411.557 69.4659 411.892 69.6591C412.23 69.8523 412.491 70.1321 412.676 70.4986C412.863 70.8651 412.956 71.3097 412.953 71.8324V76H411.41V72.071C411.41 71.6335 411.297 71.2912 411.069 71.044C410.845 70.7969 410.534 70.6733 410.136 70.6733C409.866 70.6733 409.626 70.733 409.416 70.8523C409.209 70.9687 409.045 71.1378 408.926 71.3594C408.809 71.581 408.751 71.8494 408.751 72.1648ZM417.368 78.5909C416.814 78.5909 416.338 78.5156 415.94 78.3651C415.542 78.2173 415.223 78.0185 414.981 77.7685C414.74 77.5185 414.572 77.2415 414.479 76.9375L415.868 76.6009C415.93 76.7287 416.021 76.8551 416.14 76.9801C416.26 77.108 416.42 77.2131 416.622 77.2955C416.827 77.3807 417.084 77.4233 417.393 77.4233C417.831 77.4233 418.193 77.3168 418.48 77.1037C418.767 76.8935 418.91 76.5469 418.91 76.0639V74.8239H418.834C418.754 74.983 418.638 75.1463 418.484 75.3139C418.334 75.4815 418.133 75.6222 417.883 75.7358C417.636 75.8494 417.325 75.9062 416.95 75.9062C416.447 75.9062 415.991 75.7884 415.582 75.5526C415.176 75.3139 414.852 74.9588 414.611 74.4872C414.372 74.0128 414.253 73.419 414.253 72.706C414.253 71.9872 414.372 71.3807 414.611 70.8864C414.852 70.3892 415.177 70.0128 415.586 69.7571C415.996 69.4986 416.452 69.3693 416.954 69.3693C417.338 69.3693 417.653 69.4347 417.9 69.5653C418.15 69.6932 418.349 69.848 418.497 70.0298C418.645 70.2088 418.757 70.3778 418.834 70.5369H418.919V69.4545H420.44V76.1065C420.44 76.6662 420.307 77.1293 420.04 77.4957C419.773 77.8622 419.407 78.1364 418.944 78.3182C418.481 78.5 417.956 78.5909 417.368 78.5909ZM417.381 74.696C417.707 74.696 417.986 74.6165 418.216 74.4574C418.446 74.2983 418.621 74.0696 418.74 73.7713C418.859 73.473 418.919 73.1151 418.919 72.6974C418.919 72.2855 418.859 71.9247 418.74 71.6151C418.623 71.3054 418.45 71.0653 418.22 70.8949C417.993 70.7216 417.713 70.6349 417.381 70.6349C417.037 70.6349 416.75 70.7244 416.52 70.9034C416.29 71.0824 416.116 71.3281 416 71.6406C415.883 71.9503 415.825 72.3026 415.825 72.6974C415.825 73.098 415.883 73.4489 416 73.75C416.119 74.0483 416.294 74.2812 416.524 74.4489C416.757 74.6136 417.042 74.696 417.381 74.696ZM423.564 67.2727V76H422.021V67.2727H423.564ZM428.048 76.1278C427.392 76.1278 426.825 75.9915 426.347 75.7188C425.873 75.4432 425.508 75.054 425.252 74.5511C424.997 74.0455 424.869 73.4503 424.869 72.7656C424.869 72.0923 424.997 71.5014 425.252 70.9929C425.511 70.4815 425.872 70.0838 426.335 69.7997C426.798 69.5128 427.342 69.3693 427.967 69.3693C428.37 69.3693 428.751 69.4347 429.109 69.5653C429.47 69.6932 429.788 69.892 430.063 70.1619C430.342 70.4318 430.561 70.7756 430.72 71.1932C430.879 71.608 430.958 72.1023 430.958 72.6761V73.1491H425.593V72.1094H429.48C429.477 71.8139 429.413 71.5511 429.288 71.321C429.163 71.0881 428.988 70.9048 428.764 70.7713C428.542 70.6378 428.284 70.571 427.988 70.571C427.673 70.571 427.396 70.6477 427.157 70.8011C426.919 70.9517 426.732 71.1506 426.599 71.3977C426.468 71.642 426.401 71.9105 426.399 72.2031V73.1108C426.399 73.4915 426.468 73.8182 426.607 74.0909C426.747 74.3608 426.941 74.5682 427.191 74.7131C427.441 74.8551 427.734 74.9261 428.069 74.9261C428.294 74.9261 428.497 74.8949 428.678 74.8324C428.86 74.767 429.018 74.6719 429.151 74.5469C429.285 74.4219 429.386 74.267 429.454 74.0824L430.894 74.2443C430.803 74.625 430.63 74.9574 430.374 75.2415C430.122 75.5227 429.798 75.7415 429.403 75.8977C429.008 76.0511 428.556 76.1278 428.048 76.1278ZM440.051 69.6719C440.011 69.2997 439.844 69.0099 439.548 68.8026C439.256 68.5952 438.875 68.4915 438.406 68.4915C438.077 68.4915 437.794 68.5412 437.558 68.6406C437.322 68.7401 437.142 68.875 437.017 69.0455C436.892 69.2159 436.828 69.4105 436.825 69.6293C436.825 69.8111 436.866 69.9687 436.949 70.1023C437.034 70.2358 437.149 70.3494 437.294 70.4432C437.439 70.5341 437.599 70.6108 437.775 70.6733C437.952 70.7358 438.129 70.7884 438.308 70.831L439.126 71.0355C439.456 71.1122 439.773 71.2159 440.077 71.3466C440.383 71.4773 440.657 71.642 440.899 71.8409C441.143 72.0398 441.336 72.2798 441.479 72.5611C441.621 72.8423 441.692 73.1719 441.692 73.5497C441.692 74.0611 441.561 74.5114 441.3 74.9006C441.038 75.2869 440.66 75.5895 440.166 75.8082C439.675 76.0241 439.079 76.1321 438.381 76.1321C437.702 76.1321 437.112 76.027 436.612 75.8168C436.115 75.6065 435.726 75.2997 435.444 74.8963C435.166 74.4929 435.015 74.0014 434.993 73.4219H436.548C436.571 73.7259 436.665 73.9787 436.829 74.1804C436.994 74.3821 437.209 74.5327 437.473 74.6321C437.74 74.7315 438.038 74.7812 438.368 74.7812C438.711 74.7812 439.013 74.7301 439.271 74.6278C439.532 74.5227 439.737 74.3778 439.885 74.1932C440.032 74.0057 440.108 73.7869 440.111 73.5369C440.108 73.3097 440.041 73.1222 439.91 72.9744C439.78 72.8239 439.596 72.6989 439.361 72.5994C439.128 72.4972 438.855 72.4062 438.542 72.3267L437.55 72.071C436.831 71.8864 436.263 71.6065 435.845 71.2315C435.43 70.8537 435.223 70.3523 435.223 69.7273C435.223 69.2131 435.362 68.7628 435.64 68.3764C435.922 67.9901 436.304 67.6903 436.787 67.4773C437.27 67.2614 437.817 67.1534 438.427 67.1534C439.047 67.1534 439.589 67.2614 440.055 67.4773C440.524 67.6903 440.892 67.9872 441.159 68.3679C441.426 68.7457 441.564 69.1804 441.572 69.6719H440.051ZM445.931 76.1278C445.274 76.1278 444.708 75.9915 444.23 75.7188C443.756 75.4432 443.391 75.054 443.135 74.5511C442.879 74.0455 442.752 73.4503 442.752 72.7656C442.752 72.0923 442.879 71.5014 443.135 70.9929C443.394 70.4815 443.754 70.0838 444.218 69.7997C444.681 69.5128 445.225 69.3693 445.85 69.3693C446.253 69.3693 446.634 69.4347 446.992 69.5653C447.352 69.6932 447.671 69.892 447.946 70.1619C448.225 70.4318 448.443 70.7756 448.602 71.1932C448.762 71.608 448.841 72.1023 448.841 72.6761V73.1491H443.476V72.1094H447.362C447.36 71.8139 447.296 71.5511 447.171 71.321C447.046 71.0881 446.871 70.9048 446.646 70.7713C446.425 70.6378 446.166 70.571 445.871 70.571C445.556 70.571 445.279 70.6477 445.04 70.8011C444.801 70.9517 444.615 71.1506 444.482 71.3977C444.351 71.642 444.284 71.9105 444.281 72.2031V73.1108C444.281 73.4915 444.351 73.8182 444.49 74.0909C444.629 74.3608 444.824 74.5682 445.074 74.7131C445.324 74.8551 445.617 74.9261 445.952 74.9261C446.176 74.9261 446.379 74.8949 446.561 74.8324C446.743 74.767 446.901 74.6719 447.034 74.5469C447.168 74.4219 447.269 74.267 447.337 74.0824L448.777 74.2443C448.686 74.625 448.513 74.9574 448.257 75.2415C448.004 75.5227 447.681 75.7415 447.286 75.8977C446.891 76.0511 446.439 76.1278 445.931 76.1278ZM455.319 71.1847L453.913 71.3381C453.873 71.196 453.804 71.0625 453.704 70.9375C453.608 70.8125 453.477 70.7116 453.312 70.6349C453.148 70.5582 452.946 70.5199 452.707 70.5199C452.386 70.5199 452.116 70.5895 451.898 70.7287C451.682 70.8679 451.575 71.0483 451.578 71.2699C451.575 71.4602 451.645 71.6151 451.787 71.7344C451.932 71.8537 452.17 71.9517 452.503 72.0284L453.619 72.267C454.238 72.4006 454.699 72.6122 455 72.902C455.304 73.1918 455.457 73.571 455.46 74.0398C455.457 74.4517 455.336 74.8153 455.098 75.1307C454.862 75.4432 454.534 75.6875 454.113 75.8636C453.693 76.0398 453.21 76.1278 452.665 76.1278C451.863 76.1278 451.219 75.9602 450.73 75.625C450.241 75.2869 449.95 74.8168 449.856 74.2145L451.361 74.0696C451.429 74.3651 451.574 74.5881 451.795 74.7386C452.017 74.8892 452.305 74.9645 452.66 74.9645C453.027 74.9645 453.321 74.8892 453.542 74.7386C453.767 74.5881 453.879 74.402 453.879 74.1804C453.879 73.9929 453.807 73.8381 453.662 73.7159C453.52 73.5937 453.298 73.5 452.997 73.4347L451.881 73.2003C451.253 73.0696 450.788 72.8494 450.487 72.5398C450.186 72.2273 450.037 71.8324 450.04 71.3551C450.037 70.9517 450.146 70.6023 450.368 70.3068C450.592 70.0085 450.903 69.7784 451.301 69.6165C451.702 69.4517 452.163 69.3693 452.686 69.3693C453.453 69.3693 454.057 69.5327 454.497 69.8594C454.94 70.1861 455.214 70.6278 455.319 71.1847ZM461.905 71.1847L460.499 71.3381C460.459 71.196 460.39 71.0625 460.29 70.9375C460.194 70.8125 460.063 70.7116 459.898 70.6349C459.733 70.5582 459.532 70.5199 459.293 70.5199C458.972 70.5199 458.702 70.5895 458.483 70.7287C458.268 70.8679 458.161 71.0483 458.164 71.2699C458.161 71.4602 458.231 71.6151 458.373 71.7344C458.518 71.8537 458.756 71.9517 459.089 72.0284L460.205 72.267C460.824 72.4006 461.285 72.6122 461.586 72.902C461.89 73.1918 462.043 73.571 462.046 74.0398C462.043 74.4517 461.922 74.8153 461.684 75.1307C461.448 75.4432 461.12 75.6875 460.699 75.8636C460.279 76.0398 459.796 76.1278 459.251 76.1278C458.449 76.1278 457.805 75.9602 457.316 75.625C456.827 75.2869 456.536 74.8168 456.442 74.2145L457.947 74.0696C458.015 74.3651 458.16 74.5881 458.381 74.7386C458.603 74.8892 458.891 74.9645 459.246 74.9645C459.613 74.9645 459.907 74.8892 460.128 74.7386C460.353 74.5881 460.465 74.402 460.465 74.1804C460.465 73.9929 460.393 73.8381 460.248 73.7159C460.106 73.5937 459.884 73.5 459.583 73.4347L458.466 73.2003C457.839 73.0696 457.374 72.8494 457.073 72.5398C456.772 72.2273 456.623 71.8324 456.626 71.3551C456.623 70.9517 456.732 70.6023 456.954 70.3068C457.178 70.0085 457.489 69.7784 457.887 69.6165C458.287 69.4517 458.749 69.3693 459.272 69.3693C460.039 69.3693 460.643 69.5327 461.083 69.8594C461.526 70.1861 461.8 70.6278 461.905 71.1847ZM463.318 76V69.4545H464.861V76H463.318ZM464.094 68.5256C463.849 68.5256 463.639 68.4446 463.463 68.2827C463.287 68.1179 463.199 67.9205 463.199 67.6903C463.199 67.4574 463.287 67.2599 463.463 67.098C463.639 66.9332 463.849 66.8509 464.094 66.8509C464.341 66.8509 464.551 66.9332 464.724 67.098C464.9 67.2599 464.988 67.4574 464.988 67.6903C464.988 67.9205 464.9 68.1179 464.724 68.2827C464.551 68.4446 464.341 68.5256 464.094 68.5256ZM469.302 76.1278C468.663 76.1278 468.109 75.9872 467.64 75.706C467.171 75.4247 466.808 75.0312 466.549 74.5256C466.294 74.0199 466.166 73.429 466.166 72.7528C466.166 72.0767 466.294 71.4844 466.549 70.9759C466.808 70.4673 467.171 70.0724 467.64 69.7912C468.109 69.5099 468.663 69.3693 469.302 69.3693C469.941 69.3693 470.495 69.5099 470.964 69.7912C471.433 70.0724 471.795 70.4673 472.051 70.9759C472.309 71.4844 472.438 72.0767 472.438 72.7528C472.438 73.429 472.309 74.0199 472.051 74.5256C471.795 75.0312 471.433 75.4247 470.964 75.706C470.495 75.9872 469.941 76.1278 469.302 76.1278ZM469.311 74.892C469.657 74.892 469.947 74.7969 470.18 74.6065C470.413 74.4134 470.586 74.1548 470.7 73.831C470.816 73.5071 470.874 73.1463 470.874 72.7486C470.874 72.348 470.816 71.9858 470.7 71.6619C470.586 71.3352 470.413 71.0753 470.18 70.8821C469.947 70.6889 469.657 70.5923 469.311 70.5923C468.955 70.5923 468.66 70.6889 468.424 70.8821C468.191 71.0753 468.017 71.3352 467.9 71.6619C467.786 71.9858 467.73 72.348 467.73 72.7486C467.73 73.1463 467.786 73.5071 467.9 73.831C468.017 74.1548 468.191 74.4134 468.424 74.6065C468.66 74.7969 468.955 74.892 469.311 74.892ZM475.29 72.1648V76H473.748V69.4545H475.222V70.5668H475.299C475.449 70.2003 475.689 69.9091 476.019 69.6932C476.351 69.4773 476.762 69.3693 477.251 69.3693C477.702 69.3693 478.096 69.4659 478.431 69.6591C478.769 69.8523 479.03 70.1321 479.215 70.4986C479.403 70.8651 479.495 71.3097 479.492 71.8324V76H477.949V72.071C477.949 71.6335 477.836 71.2912 477.608 71.044C477.384 70.7969 477.073 70.6733 476.675 70.6733C476.405 70.6733 476.165 70.733 475.955 70.8523C475.748 70.9687 475.584 71.1378 475.465 71.3594C475.349 71.581 475.29 71.8494 475.29 72.1648ZM483.721 68.598V67.2727H490.684V68.598H487.987V76H486.419V68.598H483.721ZM493.865 76.1278C493.225 76.1278 492.671 75.9872 492.203 75.706C491.734 75.4247 491.37 75.0312 491.112 74.5256C490.856 74.0199 490.728 73.429 490.728 72.7528C490.728 72.0767 490.856 71.4844 491.112 70.9759C491.37 70.4673 491.734 70.0724 492.203 69.7912C492.671 69.5099 493.225 69.3693 493.865 69.3693C494.504 69.3693 495.058 69.5099 495.526 69.7912C495.995 70.0724 496.357 70.4673 496.613 70.9759C496.872 71.4844 497.001 72.0767 497.001 72.7528C497.001 73.429 496.872 74.0199 496.613 74.5256C496.357 75.0312 495.995 75.4247 495.526 75.706C495.058 75.9872 494.504 76.1278 493.865 76.1278ZM493.873 74.892C494.22 74.892 494.509 74.7969 494.742 74.6065C494.975 74.4134 495.149 74.1548 495.262 73.831C495.379 73.5071 495.437 73.1463 495.437 72.7486C495.437 72.348 495.379 71.9858 495.262 71.6619C495.149 71.3352 494.975 71.0753 494.742 70.8821C494.509 70.6889 494.22 70.5923 493.873 70.5923C493.518 70.5923 493.222 70.6889 492.987 70.8821C492.754 71.0753 492.579 71.3352 492.463 71.6619C492.349 71.9858 492.292 72.348 492.292 72.7486C492.292 73.1463 492.349 73.5071 492.463 73.831C492.579 74.1548 492.754 74.4134 492.987 74.6065C493.222 74.7969 493.518 74.892 493.873 74.892ZM499.716 73.946L499.712 72.0838H499.959L502.312 69.4545H504.114L501.221 72.6761H500.901L499.716 73.946ZM498.31 76V67.2727H499.853V76H498.31ZM502.418 76L500.287 73.0213L501.327 71.9347L504.263 76H502.418ZM507.77 76.1278C507.114 76.1278 506.547 75.9915 506.07 75.7188C505.596 75.4432 505.231 75.054 504.975 74.5511C504.719 74.0455 504.591 73.4503 504.591 72.7656C504.591 72.0923 504.719 71.5014 504.975 70.9929C505.233 70.4815 505.594 70.0838 506.057 69.7997C506.52 69.5128 507.064 69.3693 507.689 69.3693C508.093 69.3693 508.474 69.4347 508.831 69.5653C509.192 69.6932 509.51 69.892 509.786 70.1619C510.064 70.4318 510.283 70.7756 510.442 71.1932C510.601 71.608 510.681 72.1023 510.681 72.6761V73.1491H505.316V72.1094H509.202C509.199 71.8139 509.135 71.5511 509.01 71.321C508.885 71.0881 508.711 70.9048 508.486 70.7713C508.265 70.6378 508.006 70.571 507.711 70.571C507.395 70.571 507.118 70.6477 506.88 70.8011C506.641 70.9517 506.455 71.1506 506.322 71.3977C506.191 71.642 506.124 71.9105 506.121 72.2031V73.1108C506.121 73.4915 506.191 73.8182 506.33 74.0909C506.469 74.3608 506.664 74.5682 506.914 74.7131C507.164 74.8551 507.456 74.9261 507.792 74.9261C508.016 74.9261 508.219 74.8949 508.401 74.8324C508.583 74.767 508.741 74.6719 508.874 74.5469C509.008 74.4219 509.108 74.267 509.177 74.0824L510.617 74.2443C510.526 74.625 510.353 74.9574 510.097 75.2415C509.844 75.5227 509.52 75.7415 509.126 75.8977C508.731 76.0511 508.279 76.1278 507.77 76.1278ZM513.529 72.1648V76H511.986V69.4545H513.46V70.5668H513.537C513.688 70.2003 513.928 69.9091 514.257 69.6932C514.59 69.4773 515 69.3693 515.489 69.3693C515.941 69.3693 516.334 69.4659 516.669 69.6591C517.007 69.8523 517.269 70.1321 517.453 70.4986C517.641 70.8651 517.733 71.3097 517.73 71.8324V76H516.188V72.071C516.188 71.6335 516.074 71.2912 515.847 71.044C515.622 70.7969 515.311 70.6733 514.914 70.6733C514.644 70.6733 514.404 70.733 514.193 70.8523C513.986 70.9687 513.823 71.1378 513.703 71.3594C513.587 71.581 513.529 71.8494 513.529 72.1648Z" fill="#FFEAD5"/>
</svg>
