<svg width="115" height="24" viewBox="0 0 115 24" fill="none" xmlns="http://www.w3.org/2000/svg">
<g clip-path="url(#clip0_101_2)">
<path d="M3.96048 8.48691C6.80749 3.50694 8.231 1.01696 10.1636 0.324562C11.3714 -0.108187 12.6911 -0.108187 13.8989 0.324562C15.8315 1.01696 17.255 3.50694 20.102 8.48691C22.9308 13.4349 24.3451 15.909 23.9726 17.9296C23.7396 19.1927 23.0808 20.3366 22.1069 21.1687C20.5491 22.5 17.7098 22.5 12.0312 22.5C6.35268 22.5 3.5134 22.5 1.95556 21.1687C0.981716 20.3366 0.322887 19.1927 0.0899526 17.9296C-0.282668 15.909 1.13172 13.4349 3.96048 8.48691Z" fill="#FA5B30"/>
<path d="M16.0074 15.6847C14.632 17.8895 13.9442 18.992 13.0314 19.3242C12.3872 19.5586 11.6753 19.5586 11.0311 19.3242C10.1183 18.992 9.43053 17.8895 8.05512 15.6847C6.62166 13.3868 5.90494 12.2378 6.04954 11.2944C6.15147 10.6297 6.51081 10.0255 7.05653 9.60159C7.83085 9 9.23098 9 12.0313 9C14.8316 9 16.2316 9 17.006 9.60159C17.5517 10.0255 17.9111 10.6297 18.013 11.2944C18.1575 12.2378 17.4408 13.3868 16.0074 15.6847Z" fill="white"/>
<path d="M34.8294 19.6931C35.3354 19.6931 35.7815 19.6254 36.1677 19.49C36.5539 19.3546 36.8846 19.166 37.1598 18.924C37.435 18.6821 37.6547 18.4014 37.819 18.0818H37.8989V19.5H40.5889V12.6019C40.5889 11.9938 40.4712 11.4711 40.236 11.0339C40.0007 10.5966 39.68 10.2382 39.2738 9.95853C38.8677 9.67888 38.4038 9.47247 37.8822 9.3393C37.3607 9.20613 36.8158 9.13955 36.2476 9.13955C35.4308 9.13955 34.7128 9.26273 34.0936 9.50909C33.4744 9.75545 32.9695 10.1061 32.5788 10.5611C32.1882 11.0161 31.9263 11.5543 31.7931 12.1758L34.4165 12.3888C34.5142 12.0515 34.714 11.7707 35.0158 11.5466C35.3176 11.3224 35.7238 11.2103 36.2343 11.2103C36.7181 11.2103 37.0921 11.3257 37.3562 11.5565C37.6203 11.7874 37.7524 12.1136 37.7524 12.5353V12.5753C37.7524 12.7928 37.6703 12.957 37.506 13.068C37.3418 13.179 37.0777 13.2622 36.7137 13.3177C36.3497 13.3732 35.8703 13.432 35.2755 13.4941C34.7694 13.543 34.2867 13.6273 33.8273 13.7471C33.3679 13.867 32.9584 14.0446 32.5988 14.2798C32.2393 14.5151 31.9552 14.8258 31.7465 15.212C31.5379 15.5982 31.4336 16.0754 31.4336 16.6435C31.4336 17.3183 31.5812 17.8809 31.8764 18.3314C32.1716 18.782 32.5744 19.1216 33.0849 19.3502C33.5953 19.5788 34.1768 19.6931 34.8294 19.6931ZM35.6417 17.7355C35.2067 17.7355 34.8482 17.6345 34.5664 17.4326C34.2845 17.2306 34.1436 16.9365 34.1436 16.5503C34.1436 16.284 34.2124 16.0609 34.35 15.8812C34.4876 15.7014 34.6807 15.5582 34.9292 15.4517C35.1778 15.3452 35.4686 15.2675 35.8015 15.2186C35.9569 15.1965 36.13 15.1709 36.3208 15.1421C36.5117 15.1132 36.7026 15.0799 36.8935 15.0422C37.0843 15.0045 37.2563 14.9623 37.4095 14.9157C37.5626 14.8691 37.6836 14.8169 37.7724 14.7592V15.8445C37.7724 16.2041 37.6814 16.5259 37.4994 16.81C37.3174 17.0941 37.0666 17.3194 36.747 17.4858C36.4274 17.6523 36.0589 17.7355 35.6417 17.7355ZM45.6266 23.3352V17.862H45.7131C45.8419 18.1461 46.0283 18.4269 46.2724 18.7043C46.5166 18.9817 46.8306 19.2115 47.2146 19.3935C47.5986 19.5754 48.0658 19.6664 48.6162 19.6664C49.393 19.6664 50.0955 19.4656 50.7236 19.0639C51.3517 18.6621 51.8488 18.0695 52.2151 17.2861C52.5813 16.5026 52.7644 15.5405 52.7644 14.3997C52.7644 13.2278 52.5757 12.2523 52.1984 11.4733C51.8211 10.6943 51.3173 10.1106 50.687 9.72216C50.0566 9.33375 49.3686 9.13955 48.6229 9.13955C48.0502 9.13955 47.5719 9.23609 47.188 9.42919C46.804 9.62228 46.4933 9.86198 46.2558 10.1483C46.0183 10.4346 45.8374 10.7154 45.7131 10.9906H45.5866V9.27272H42.7901V23.3352H45.6266ZM47.7173 17.4093C47.2601 17.4093 46.8717 17.2839 46.5521 17.0331C46.2325 16.7823 45.9884 16.4305 45.8197 15.9777C45.651 15.5249 45.5667 14.9945 45.5667 14.3864C45.5667 13.7782 45.651 13.25 45.8197 12.8017C45.9884 12.3533 46.2314 12.0071 46.5488 11.7629C46.8662 11.5188 47.2557 11.3967 47.7173 11.3967C48.1834 11.3967 48.5762 11.5232 48.8959 11.7763C49.2155 12.0293 49.4574 12.38 49.6216 12.8283C49.7859 13.2766 49.868 13.796 49.868 14.3864C49.868 14.9812 49.7847 15.5061 49.6183 15.9611C49.4518 16.416 49.2088 16.7712 48.8892 17.0264C48.5696 17.2816 48.179 17.4093 47.7173 17.4093ZM56.0789 7.95436C56.5006 7.95436 56.8613 7.81342 57.1609 7.53155C57.4605 7.24968 57.6103 6.91121 57.6103 6.51615C57.6103 6.12552 57.4605 5.78927 57.1609 5.5074C56.8613 5.22553 56.4984 5.08459 56.0722 5.08459C55.655 5.08459 55.2954 5.22553 54.9936 5.5074C54.6917 5.78927 54.5408 6.12552 54.5408 6.51615C54.5408 6.91121 54.6917 7.24968 54.9936 7.53155C55.2954 7.81342 55.6572 7.95436 56.0789 7.95436ZM57.4838 19.5V9.27272H54.6473V19.5H57.4838ZM61.4082 19.6731C61.6968 19.6731 61.9609 19.601 62.2006 19.4567C62.4403 19.3124 62.6345 19.1194 62.7832 18.8774C62.9319 18.6355 63.0062 18.3681 63.0062 18.0751C63.0062 17.6401 62.8464 17.2672 62.5268 16.9565C62.2072 16.6458 61.8344 16.4904 61.4082 16.4904C60.9688 16.4904 60.5926 16.6458 60.2796 16.9565C59.9667 17.2672 59.8102 17.6401 59.8102 18.0751C59.8102 18.5145 59.9667 18.8907 60.2796 19.2037C60.5926 19.5166 60.9688 19.6731 61.4082 19.6731ZM71.2919 19.5L74.8675 9.27272H71.8645L69.7472 16.5903H69.6406L67.5166 9.27272H64.5203L68.0959 19.5H71.2919ZM77.7479 7.95436C78.1696 7.95436 78.5302 7.81342 78.8298 7.53155C79.1295 7.24968 79.2793 6.91121 79.2793 6.51615C79.2793 6.12552 79.1295 5.78927 78.8298 5.5074C78.5302 5.22553 78.1673 5.08459 77.7412 5.08459C77.3239 5.08459 76.9644 5.22553 76.6625 5.5074C76.3607 5.78927 76.2098 6.12552 76.2098 6.51615C76.2098 6.91121 76.3607 7.24968 76.6625 7.53155C76.9644 7.81342 77.3262 7.95436 77.7479 7.95436ZM79.1528 19.5V9.27272H76.3163V19.5H79.1528ZM85.1879 19.6664C85.7383 19.6664 86.2055 19.5754 86.5895 19.3935C86.9735 19.2115 87.2864 18.9817 87.5283 18.7043C87.7703 18.4269 87.9578 18.1461 88.091 17.862H88.2108V19.5H91.0073V5.86363H88.1775V10.9906H88.091C87.9667 10.7154 87.7858 10.4346 87.5483 10.1483C87.3108 9.86198 87.0001 9.62228 86.6161 9.42919C86.2322 9.23609 85.7539 9.13955 85.1813 9.13955C84.4311 9.13955 83.7419 9.33375 83.1138 9.72216C82.4857 10.1106 81.983 10.6943 81.6057 11.4733C81.2284 12.2523 81.0397 13.2278 81.0397 14.3997C81.0397 15.5405 81.2228 16.5026 81.5891 17.2861C81.9553 18.0695 82.4524 18.6621 83.0805 19.0639C83.7086 19.4656 84.4111 19.6664 85.1879 19.6664ZM86.0868 17.4093C85.6207 17.4093 85.229 17.2816 84.9116 17.0264C84.5942 16.7712 84.3523 16.416 84.1858 15.9611C84.0194 15.5061 83.9361 14.9812 83.9361 14.3864C83.9361 13.796 84.0183 13.2766 84.1825 12.8283C84.3467 12.38 84.5887 12.0293 84.9083 11.7763C85.2279 11.5232 85.6207 11.3967 86.0868 11.3967C86.544 11.3967 86.9324 11.5188 87.252 11.7629C87.5716 12.0071 87.8157 12.3533 87.9844 12.8017C88.1531 13.25 88.2375 13.7782 88.2375 14.3864C88.2375 14.9945 88.152 15.5249 87.9811 15.9777C87.8102 16.4305 87.5661 16.7823 87.2487 17.0331C86.9313 17.2839 86.544 17.4093 86.0868 17.4093ZM97.9906 19.6997C98.834 19.6997 99.5787 19.5699 100.225 19.3102C100.87 19.0505 101.399 18.6866 101.809 18.2183C102.22 17.7499 102.492 17.2006 102.625 16.5703L100.001 16.3972C99.9038 16.6546 99.7618 16.8721 99.5753 17.0497C99.3889 17.2273 99.1647 17.3604 98.9028 17.4492C98.6409 17.538 98.3524 17.5824 98.0372 17.5824C97.5623 17.5824 97.1517 17.4825 96.8054 17.2827C96.4592 17.083 96.1918 16.7989 96.0031 16.4305C95.8145 16.062 95.7201 15.6248 95.7201 15.1188L95.72 15.1123L102.685 15.1121V14.3331C102.685 13.4631 102.563 12.7029 102.319 12.0526C102.074 11.4023 101.734 10.8618 101.297 10.4313C100.859 10.0007 100.349 9.67777 99.7651 9.46248C99.1814 9.24719 98.5522 9.13955 97.8774 9.13955C96.8742 9.13955 96.0009 9.36149 95.2574 9.80539C94.5138 10.2493 93.9379 10.8685 93.5295 11.6631C93.1211 12.4576 92.9169 13.3809 92.9169 14.433C92.9169 15.5116 93.1211 16.4449 93.5295 17.2328C93.9379 18.0207 94.5205 18.6289 95.2773 19.0572C96.0342 19.4856 96.9386 19.6997 97.9906 19.6997ZM95.7268 13.2879C95.7516 12.9463 95.8449 12.6322 96.0064 12.3456C96.1929 12.0149 96.4514 11.7507 96.7821 11.5532C97.1128 11.3557 97.4935 11.2569 97.9241 11.2569C98.3369 11.2569 98.6998 11.3468 99.0127 11.5266C99.3256 11.7064 99.5709 11.9538 99.7484 12.269C99.926 12.5842 100.015 12.9459 100.015 13.3543L95.7228 13.3545L95.7268 13.2879ZM109.158 19.6997C110.192 19.6997 111.086 19.4789 111.838 19.0372C112.59 18.5956 113.171 17.9785 113.579 17.1862C113.988 16.3939 114.192 15.4739 114.192 14.4263C114.192 13.3698 113.988 12.4454 113.579 11.6531C113.171 10.8607 112.59 10.2437 111.838 9.80206C111.086 9.36038 110.192 9.13955 109.158 9.13955C108.124 9.13955 107.23 9.36038 106.478 9.80206C105.726 10.2437 105.145 10.8607 104.737 11.6531C104.329 12.4454 104.124 13.3698 104.124 14.4263C104.124 15.4739 104.329 16.3939 104.737 17.1862C105.145 17.9785 105.726 18.5956 106.478 19.0372C107.23 19.4789 108.124 19.6997 109.158 19.6997ZM109.171 17.5025C108.696 17.5025 108.298 17.3682 107.976 17.0996C107.654 16.8311 107.412 16.4638 107.25 15.9977C107.088 15.5316 107.007 15.0011 107.007 14.4063C107.007 13.8115 107.088 13.2811 107.25 12.815C107.412 12.3489 107.654 11.9805 107.976 11.7097C108.298 11.4389 108.696 11.3035 109.171 11.3035C109.642 11.3035 110.035 11.4389 110.35 11.7097C110.665 11.9805 110.904 12.3489 111.066 12.815C111.228 13.2811 111.309 13.8115 111.309 14.4063C111.309 15.0011 111.228 15.5316 111.066 15.9977C110.904 16.4638 110.665 16.8311 110.35 17.0996C110.035 17.3682 109.642 17.5025 109.171 17.5025Z" fill="#060C19"/>
</g>
<defs>
<clipPath id="clip0_101_2">
<rect width="115" height="24" fill="white"/>
</clipPath>
</defs>
</svg>
