<svg width="40" height="40" viewBox="0 0 40 40" fill="none" xmlns="http://www.w3.org/2000/svg">
<path opacity="0.1" d="M40 38C40 39.1046 39.1046 40 38 40L2 40C0.895432 40 -7.8281e-08 39.1046 -1.74846e-07 38L-3.32207e-06 2C-3.41863e-06 0.895435 0.895428 3.41863e-06 2 3.32207e-06L38 1.74846e-07C39.1046 7.82811e-08 40 0.895432 40 2L40 38Z" fill="#642180"/>
<path d="M24.5 20C24.5 19.32 24.44 18.66 24.36 18H27.74C27.9 18.64 28 19.31 28 20C28 20.37 27.97 20.73 27.92 21.08C28.61 21.18 29.25 21.4 29.84 21.72C29.94 21.16 30 20.59 30 20C30 14.5 25.5 10 20 10C14.47 10 10 14.5 10 20C10 25.5 14.5 30 20 30C20.59 30 21.16 29.94 21.72 29.84C21.26 29 21 28.03 21 27C21 26.71 21.03 26.43 21.07 26.15C20.75 26.78 20.4 27.39 20 27.96C19.17 26.76 18.5 25.43 18.09 24H21.81C22.41 22.96 23.31 22.12 24.4 21.6C24.46 21.07 24.5 20.54 24.5 20ZM20 12.03C20.83 13.23 21.5 14.57 21.91 16H18.09C18.5 14.57 19.17 13.23 20 12.03ZM12.26 22C12.1 21.36 12 20.69 12 20C12 19.31 12.1 18.64 12.26 18H15.64C15.56 18.66 15.5 19.32 15.5 20C15.5 20.68 15.56 21.34 15.64 22H12.26ZM13.08 24H16C16.35 25.25 16.8 26.45 17.4 27.56C15.57 26.93 14.03 25.65 13.08 24ZM16 16H13.08C14.03 14.34 15.57 13.06 17.4 12.44C16.8 13.55 16.35 14.75 16 16ZM22.34 22H17.66C17.56 21.34 17.5 20.68 17.5 20C17.5 19.32 17.56 18.65 17.66 18H22.34C22.43 18.65 22.5 19.32 22.5 20C22.5 20.68 22.43 21.34 22.34 22ZM22.59 12.44C24.43 13.07 25.96 14.34 26.92 16H23.97C23.65 14.75 23.19 13.55 22.59 12.44ZM31 26V28H28V31H26V28H23V26H26V23H28V26H31Z" fill="#642180"/>
</svg>
