<svg width="40" height="40" viewBox="0 0 40 40" fill="none" xmlns="http://www.w3.org/2000/svg">
<rect width="40" height="40" rx="4" fill="#EFE9F2"/>
<g opacity="0.8" clip-path="url(#clip0_6244_1224)">
<path d="M20 8C13.37 8 8 13.37 8 20C8 25.31 11.435 29.795 16.205 31.385C16.805 31.49 17.03 31.13 17.03 30.815C17.03 30.53 17.015 29.585 17.015 28.58C14 29.135 13.22 27.845 12.98 27.17C12.845 26.825 12.26 25.76 11.75 25.475C11.33 25.25 10.73 24.695 11.735 24.68C12.68 24.665 13.355 25.55 13.58 25.91C14.66 27.725 16.385 27.215 17.075 26.9C17.18 26.12 17.495 25.595 17.84 25.295C15.17 24.995 12.38 23.96 12.38 19.37C12.38 18.065 12.845 16.985 13.61 16.145C13.49 15.845 13.07 14.615 13.73 12.965C13.73 12.965 14.735 12.65 17.03 14.195C17.99 13.925 19.01 13.79 20.03 13.79C21.05 13.79 22.07 13.925 23.03 14.195C25.325 12.635 26.33 12.965 26.33 12.965C26.99 14.615 26.57 15.845 26.45 16.145C27.215 16.985 27.68 18.05 27.68 19.37C27.68 23.975 24.875 24.995 22.205 25.295C22.64 25.67 23.015 26.39 23.015 27.515C23.015 29.12 23 30.41 23 30.815C23 31.13 23.225 31.505 23.825 31.385C26.2073 30.581 28.2775 29.05 29.744 27.0076C31.2106 24.9653 31.9996 22.5144 32 20C32 13.37 26.63 8 20 8Z" fill="#642180"/>
</g>
<defs>
<clipPath id="clip0_6244_1224">
<rect width="24" height="24" fill="white" transform="translate(8 8)"/>
</clipPath>
</defs>
</svg>
