<svg width="40" height="40" viewBox="0 0 40 40" fill="none" xmlns="http://www.w3.org/2000/svg">
<rect width="40" height="40" rx="4" fill="#EFE9F2"/>
<g clip-path="url(#clip0_6270_154)">
<path d="M27.0706 12.9289C27.9992 13.8575 28.7358 14.9599 29.2384 16.1732C29.7409 17.3864 29.9996 18.6868 29.9996 20C29.9996 21.3132 29.7409 22.6136 29.2384 23.8268C28.7358 25.0401 27.9992 26.1425 27.0706 27.0711L25.6564 25.6569C26.3993 24.914 26.9886 24.0321 27.3906 23.0615C27.7926 22.0909 27.9996 21.0506 27.9996 20C27.9996 18.9494 27.7926 17.9091 27.3906 16.9385C26.9886 15.9679 26.3993 15.086 25.6564 14.3431L27.0706 12.9289Z" fill="#642180"/>
<path d="M24.6066 16.4645C25.0709 16.9288 25.4392 17.48 25.6905 18.0866C25.9417 18.6932 26.0711 19.3434 26.0711 20C26.0711 20.6566 25.9417 21.3068 25.6905 21.9134C25.4392 22.52 25.0709 23.0712 24.6066 23.5355L23.2277 22.1567C23.511 21.8735 23.7356 21.5372 23.8889 21.1672C24.0422 20.7971 24.1211 20.4005 24.1211 20C24.1211 19.5995 24.0422 19.2029 23.8889 18.8328C23.7356 18.4628 23.511 18.1265 23.2277 17.8433L24.6066 16.4645Z" fill="#642180"/>
<rect x="22" y="21" width="9" height="9" fill="#EFE9F2"/>
<path d="M30.6037 27.43C30.6337 27.14 30.6437 26.85 30.6137 26.57L31.6838 25.72C31.7838 25.64 31.8038 25.51 31.7438 25.4L30.7137 23.61C30.6537 23.5 30.5238 23.46 30.4038 23.5L29.1237 24C28.8937 23.83 28.6437 23.69 28.3737 23.58L28.1738 22.22C28.1538 22.09 28.0538 22 27.9238 22H25.8537C25.7337 22 25.6237 22.09 25.6037 22.21L25.4037 23.57C25.1437 23.68 24.8938 23.83 24.6638 23.99L23.3837 23.49C23.2637 23.44 23.1338 23.49 23.0738 23.6L22.0437 25.39C21.9837 25.5 22.0037 25.63 22.1037 25.71L23.1737 26.57C23.1437 26.86 23.1338 27.15 23.1638 27.43L22.0937 28.28C21.9937 28.36 21.9738 28.49 22.0338 28.6L23.0637 30.39C23.1237 30.5 23.2537 30.54 23.3737 30.5L24.6437 30C24.8737 30.17 25.1237 30.31 25.3937 30.42L25.5938 31.78C25.6138 31.9 25.7138 31.99 25.8438 31.99H27.9138C28.0338 31.99 28.1438 31.9 28.1638 31.78L28.3637 30.42C28.6237 30.31 28.8737 30.16 29.1037 30L30.3837 30.5C30.5037 30.55 30.6337 30.5 30.6937 30.39L31.7238 28.6C31.7838 28.49 31.7638 28.36 31.6638 28.28L30.6037 27.43ZM26.8937 28.5C26.0637 28.5 25.3937 27.83 25.3937 27C25.3937 26.17 26.0637 25.5 26.8937 25.5C27.7237 25.5 28.3937 26.17 28.3937 27C28.3937 27.83 27.7237 28.5 26.8937 28.5Z" fill="#642180"/>
<path d="M12.9284 27.0711C11.9998 26.1425 11.2632 25.0401 10.7607 23.8268C10.2581 22.6136 9.99947 21.3132 9.99947 20C9.99947 18.6868 10.2581 17.3864 10.7607 16.1732C11.2632 14.9599 11.9998 13.8575 12.9284 12.9289L14.3426 14.3431C13.5997 15.086 13.0105 15.9679 12.6084 16.9385C12.2064 17.9091 11.9995 18.9494 11.9995 20C11.9995 21.0506 12.2064 22.0909 12.6084 23.0615C13.0105 24.0321 13.5997 24.914 14.3426 25.6569L12.9284 27.0711Z" fill="#642180"/>
<path d="M15.3934 23.5355C14.9291 23.0712 14.5608 22.52 14.3095 21.9134C14.0583 21.3068 13.9289 20.6566 13.9289 20C13.9289 19.3434 14.0583 18.6932 14.3095 18.0866C14.5608 17.48 14.9291 16.9288 15.3934 16.4645L16.7723 17.8433C16.489 18.1265 16.2644 18.4628 16.1111 18.8328C15.9578 19.2029 15.8789 19.5995 15.8789 20C15.8789 20.4005 15.9578 20.7971 16.1111 21.1672C16.2644 21.5372 16.489 21.8735 16.7723 22.1567L15.3934 23.5355Z" fill="#642180"/>
<circle cx="20" cy="20" r="2" fill="#642180"/>
</g>
<defs>
<clipPath id="clip0_6270_154">
<rect width="28.2843" height="28.2843" fill="white" transform="translate(5.85742 5.85786)"/>
</clipPath>
</defs>
</svg>
