<svg width="40" height="40" viewBox="0 0 40 40" fill="none" xmlns="http://www.w3.org/2000/svg">
<rect width="40" height="40" rx="4" fill="#EFE9F2"/>
<g clip-path="url(#clip0_6244_1305)">
<path d="M27.0706 12.9289C27.9992 13.8575 28.7358 14.9599 29.2384 16.1732C29.7409 17.3864 29.9996 18.6868 29.9996 20C29.9996 21.3132 29.7409 22.6136 29.2384 23.8268C28.7358 25.0401 27.9992 26.1425 27.0706 27.0711L25.6564 25.6569C26.3993 24.914 26.9886 24.0321 27.3906 23.0615C27.7926 22.0909 27.9996 21.0506 27.9996 20C27.9996 18.9494 27.7926 17.9091 27.3906 16.9385C26.9886 15.9679 26.3993 15.086 25.6564 14.3431L27.0706 12.9289Z" fill="#642180"/>
<path d="M24.6066 16.4645C25.0709 16.9288 25.4392 17.48 25.6905 18.0866C25.9417 18.6932 26.0711 19.3434 26.0711 20C26.0711 20.6566 25.9417 21.3068 25.6905 21.9134C25.4392 22.52 25.0709 23.0712 24.6066 23.5355L23.2277 22.1567C23.511 21.8735 23.7356 21.5372 23.8889 21.1672C24.0422 20.7971 24.1211 20.4005 24.1211 20C24.1211 19.5995 24.0422 19.2029 23.8889 18.8328C23.7356 18.4628 23.511 18.1265 23.2277 17.8433L24.6066 16.4645Z" fill="#642180"/>
<rect x="21" y="22" width="9" height="9" fill="#EFE9F2"/>
<path d="M12.9294 27.0711C12.0008 26.1425 11.2642 25.0401 10.7616 23.8268C10.2591 22.6136 10.0004 21.3132 10.0004 20C10.0004 18.6868 10.2591 17.3864 10.7616 16.1732C11.2642 14.9599 12.0008 13.8575 12.9294 12.9289L14.3436 14.3431C13.6007 15.086 13.0114 15.9679 12.6094 16.9385C12.2074 17.9091 12.0004 18.9494 12.0004 20C12.0004 21.0506 12.2074 22.0909 12.6094 23.0615C13.0114 24.0321 13.6007 24.914 14.3436 25.6569L12.9294 27.0711Z" fill="#642180"/>
<path d="M15.3934 23.5355C14.9291 23.0712 14.5608 22.52 14.3095 21.9134C14.0583 21.3068 13.9289 20.6566 13.9289 20C13.9289 19.3434 14.0583 18.6932 14.3095 18.0866C14.5608 17.48 14.9291 16.9288 15.3934 16.4645L16.7723 17.8433C16.489 18.1265 16.2644 18.4628 16.1111 18.8328C15.9578 19.2029 15.8789 19.5995 15.8789 20C15.8789 20.4005 15.9578 20.7971 16.1111 21.1672C16.2644 21.5372 16.489 21.8735 16.7723 22.1567L15.3934 23.5355Z" fill="#642180"/>
<circle cx="20" cy="20" r="2" fill="#642180"/>
<path d="M22.6464 26.1764L22.2929 26.53L22.6464 26.8836L26.1864 30.4236L26.5406 30.7777L26.8942 30.4229L32.5342 24.7629L32.8865 24.4094L32.5336 24.0564L31.1236 22.6464L30.77 22.2929L30.4164 22.6464L26.53 26.5329L24.7636 24.7664L24.41 24.4129L24.0564 24.7664L22.6464 26.1764Z" fill="#642180" stroke="#EFE9F2"/>
</g>
<defs>
<clipPath id="clip0_6244_1305">
<rect width="24" height="24" fill="white" transform="translate(8 8)"/>
</clipPath>
</defs>
</svg>
