<svg width="40" height="40" viewBox="0 0 40 40" fill="none" xmlns="http://www.w3.org/2000/svg">
<rect width="40" height="40" rx="4" fill="#EFE9F2"/>
<g clip-path="url(#clip0_6272_751)">
<path d="M27.0706 12.9289C27.9992 13.8575 28.7358 14.9599 29.2384 16.1732C29.7409 17.3864 29.9996 18.6868 29.9996 20C29.9996 21.3132 29.7409 22.6136 29.2384 23.8268C28.7358 25.0401 27.9992 26.1425 27.0706 27.0711L25.6564 25.6569C26.3993 24.914 26.9886 24.0321 27.3906 23.0615C27.7926 22.0909 27.9996 21.0506 27.9996 20C27.9996 18.9494 27.7926 17.9091 27.3906 16.9385C26.9886 15.9679 26.3993 15.086 25.6564 14.3431L27.0706 12.9289Z" fill="#642180"/>
<path d="M24.6066 16.4645C25.0709 16.9288 25.4392 17.48 25.6905 18.0866C25.9417 18.6932 26.0711 19.3434 26.0711 20C26.0711 20.6566 25.9417 21.3068 25.6905 21.9134C25.4392 22.52 25.0709 23.0712 24.6066 23.5355L23.2277 22.1567C23.511 21.8735 23.7356 21.5372 23.8889 21.1672C24.0422 20.7971 24.1211 20.4005 24.1211 20C24.1211 19.5995 24.0422 19.2029 23.8889 18.8328C23.7356 18.4628 23.511 18.1265 23.2277 17.8433L24.6066 16.4645Z" fill="#642180"/>
<rect x="21" y="21" width="9" height="10" fill="#EFE9F2"/>
<path d="M30.5 29.95C30.5 30.14 30.395 30.305 30.235 30.39L26.285 32.61C26.205 32.67 26.105 32.7 26 32.7C25.895 32.7 25.795 32.67 25.715 32.61L21.765 30.39C21.605 30.305 21.5 30.14 21.5 29.95V25.45C21.5 25.26 21.605 25.095 21.765 25.01L25.715 22.79C25.795 22.73 25.895 22.7 26 22.7C26.105 22.7 26.205 22.73 26.285 22.79L30.235 25.01C30.395 25.095 30.5 25.26 30.5 25.45V29.95ZM26 23.775L25.055 24.31L28 26.005L28.98 25.45L26 23.775ZM23.02 25.45L26 27.125L26.98 26.575L24.04 24.875L23.02 25.45ZM22.5 29.655L25.5 31.345V27.99L22.5 26.305V29.655ZM29.5 29.655V26.305L26.5 27.99V31.345L29.5 29.655Z" fill="#642180" stroke="#642180" stroke-width="0.5"/>
<path d="M12.9284 27.0711C11.9998 26.1425 11.2632 25.0401 10.7607 23.8268C10.2581 22.6136 9.99947 21.3132 9.99947 20C9.99947 18.6868 10.2581 17.3864 10.7607 16.1732C11.2632 14.9599 11.9998 13.8575 12.9284 12.9289L14.3426 14.3431C13.5997 15.086 13.0105 15.9679 12.6084 16.9385C12.2064 17.9091 11.9995 18.9494 11.9995 20C11.9995 21.0506 12.2064 22.0909 12.6084 23.0615C13.0105 24.0321 13.5997 24.914 14.3426 25.6569L12.9284 27.0711Z" fill="#642180"/>
<path d="M15.3934 23.5355C14.9291 23.0712 14.5608 22.52 14.3095 21.9134C14.0583 21.3068 13.9289 20.6566 13.9289 20C13.9289 19.3434 14.0583 18.6932 14.3095 18.0866C14.5608 17.48 14.9291 16.9288 15.3934 16.4645L16.7723 17.8433C16.489 18.1265 16.2644 18.4628 16.1111 18.8328C15.9578 19.2029 15.8789 19.5995 15.8789 20C15.8789 20.4005 15.9578 20.7971 16.1111 21.1672C16.2644 21.5372 16.489 21.8735 16.7723 22.1567L15.3934 23.5355Z" fill="#642180"/>
<circle cx="20" cy="20" r="2" fill="#642180"/>
</g>
<defs>
<clipPath id="clip0_6272_751">
<rect width="28.2843" height="28.2843" fill="white" transform="translate(5.85742 5.85785)"/>
</clipPath>
</defs>
</svg>
