<svg width="40" height="40" viewBox="0 0 40 40" fill="none" xmlns="http://www.w3.org/2000/svg">
<rect width="40" height="40" rx="4" fill="#EFE9F2"/>
<g clip-path="url(#clip0_6244_1258)">
<path d="M27 11H22.82C22.4 9.84 21.3 9 20 9C18.7 9 17.6 9.84 17.18 11H13C12.86 11 12.73 11.01 12.6 11.04C12.21 11.12 11.86 11.32 11.59 11.59C11.41 11.77 11.26 11.99 11.16 12.23C11.06 12.46 11 12.72 11 13V23V24V27C11 27.27 11.06 27.54 11.16 27.78C11.26 28.02 11.41 28.23 11.59 28.42C11.86 28.69 12.21 28.89 12.6 28.97C12.73 28.99 12.86 29 13 29H27C28.1 29 29 28.1 29 27V24V23V13C29 11.9 28.1 11 27 11ZM20 10.75C20.41 10.75 20.75 11.09 20.75 11.5C20.75 11.91 20.41 12.25 20 12.25C19.59 12.25 19.25 11.91 19.25 11.5C19.25 11.09 19.59 10.75 20 10.75ZM27 23V24V27H13V24V23V13H27V23Z" fill="#642180"/>
<rect x="20" y="20" width="10" height="11" fill="#EFE9F2"/>
<path d="M19 22.17L16.83 20L19 17.83L17.59 16.41L14 20L17.59 23.59L19 22.17Z" fill="#642180"/>
<path d="M22.41 23.59L26 20L22.41 16.41L21 17.83L23.17 20L21 22.17L22.41 23.59Z" fill="#642180"/>
<path d="M24 25.41L25.41 24L27.5 26.09L29.59 24L31 25.41L28.92 27.5L31 29.59L29.59 31L27.5 28.92L25.41 31L24 29.59L26.09 27.5L24 25.41Z" fill="#642180"/>
</g>
<defs>
<clipPath id="clip0_6244_1258">
<rect width="24" height="24" fill="white" transform="translate(8 8)"/>
</clipPath>
</defs>
</svg>
