<svg width="40" height="40" viewBox="0 0 40 40" fill="none" xmlns="http://www.w3.org/2000/svg">
<rect width="40" height="40" rx="4" fill="#EFE9F2"/>
<path d="M29 24.5C29 24.88 28.79 25.21 28.47 25.38L20.57 29.82C20.41 29.94 20.21 30 20 30C19.79 30 19.59 29.94 19.43 29.82L11.53 25.38C11.21 25.21 11 24.88 11 24.5V15.5C11 15.12 11.21 14.79 11.53 14.62L19.43 10.18C19.59 10.06 19.79 10 20 10C20.21 10 20.41 10.06 20.57 10.18L28.47 14.62C28.79 14.79 29 15.12 29 15.5V24.5ZM20 12.15L18.11 13.22L24 16.61L25.96 15.5L20 12.15ZM14.04 15.5L20 18.85L21.96 17.75L16.08 14.35L14.04 15.5ZM13 23.91L19 27.29V20.58L13 17.21V23.91ZM27 23.91V17.21L21 20.58V27.29L27 23.91Z" fill="#642180"/>
</svg>
