<svg width="40" height="40" viewBox="0 0 40 40" fill="none" xmlns="http://www.w3.org/2000/svg">
<rect width="40" height="40" rx="4" fill="#EFE9F2"/>
<g clip-path="url(#clip0_6244_1630)">
<path d="M11 14H29V19H31V14C31 12.9 30.1 12 29 12H11C9.9 12 9 12.9 9 14V26C9 27.1 9.9 28 11 28H20V26H11V14Z" fill="#642180"/>
<path d="M23 20L17 16V24L23 20Z" fill="#642180"/>
<path d="M30.7102 26.43C30.7402 26.14 30.7502 25.85 30.7202 25.57L31.7902 24.72C31.8902 24.64 31.9102 24.51 31.8502 24.4L30.8202 22.61C30.7602 22.5 30.6302 22.46 30.5102 22.5L29.2302 23C29.0002 22.83 28.7502 22.69 28.4802 22.58L28.2802 21.22C28.2602 21.09 28.1602 21 28.0302 21H25.9602C25.8402 21 25.7302 21.09 25.7102 21.21L25.5102 22.57C25.2502 22.68 25.0002 22.83 24.7702 22.99L23.4902 22.49C23.3702 22.44 23.2402 22.49 23.1802 22.6L22.1502 24.39C22.0902 24.5 22.1102 24.63 22.2102 24.71L23.2802 25.57C23.2502 25.86 23.2402 26.15 23.2702 26.43L22.2002 27.28C22.1002 27.36 22.0802 27.49 22.1402 27.6L23.1702 29.39C23.2302 29.5 23.3602 29.54 23.4802 29.5L24.7502 29C24.9802 29.17 25.2302 29.31 25.5002 29.42L25.7002 30.78C25.7202 30.9 25.8202 30.99 25.9502 30.99H28.0202C28.1402 30.99 28.2502 30.9 28.2702 30.78L28.4702 29.42C28.7302 29.31 28.9802 29.16 29.2102 29L30.4902 29.5C30.6102 29.55 30.7402 29.5 30.8002 29.39L31.8302 27.6C31.8902 27.49 31.8702 27.36 31.7702 27.28L30.7102 26.43ZM27.0002 27.5C26.1702 27.5 25.5002 26.83 25.5002 26C25.5002 25.17 26.1702 24.5 27.0002 24.5C27.8302 24.5 28.5002 25.17 28.5002 26C28.5002 26.83 27.8302 27.5 27.0002 27.5Z" fill="#642180"/>
</g>
<defs>
<clipPath id="clip0_6244_1630">
<rect width="24" height="24" fill="white" transform="translate(8 8)"/>
</clipPath>
</defs>
</svg>
