<svg width="40" height="40" viewBox="0 0 40 40" fill="none" xmlns="http://www.w3.org/2000/svg">
<rect width="40" height="40" rx="4" fill="#EFE9F2"/>
<g clip-path="url(#clip0_6270_112)">
<path d="M17.9998 19L17.0598 21.06L14.9998 22L17.0598 22.94L17.9998 25L18.9398 22.94L20.9998 22L18.9398 21.06L17.9998 19ZM26.0098 12L28.0098 16H25.0098L23.0098 12H21.0098L23.0098 16H20.0098L18.0098 12H16.0098L18.0098 16H15.0098L13.0098 12H12.0098C10.9098 12 10.0198 12.9 10.0198 14L10.0098 26C10.0098 27.1 10.9098 28 12.0098 28H28.0098C29.1098 28 29.9998 27.1 29.9998 26V12H26.0098ZM28.0098 26H12.0098V14.47L13.7698 18H23.9998L23.3698 19.37L21.9998 20L23.3698 20.63L23.9998 22L24.6298 20.63L25.9998 20L24.6298 19.37L23.9998 18H28.0098V26Z" fill="#642180"/>
</g>
<defs>
<clipPath id="clip0_6270_112">
<rect width="24" height="24" fill="white" transform="translate(8 8)"/>
</clipPath>
</defs>
</svg>
