<svg width="40" height="40" viewBox="0 0 40 40" fill="none" xmlns="http://www.w3.org/2000/svg">
<path opacity="0.1" d="M40 38C40 39.1046 39.1046 40 38 40L2 40C0.895432 40 -7.8281e-08 39.1046 -1.74846e-07 38L-3.32207e-06 2C-3.41863e-06 0.895435 0.895428 3.41863e-06 2 3.32207e-06L38 1.74846e-07C39.1046 7.82811e-08 40 0.895432 40 2L40 38Z" fill="#642180"/>
<g clip-path="url(#clip0_6244_1405)">
<path d="M29 15L20 10L11 15V25L20 30L29 25V15ZM20 12.29L25.91 15.57L22.9 17.24C22.17 16.48 21.14 16 20 16C18.86 16 17.83 16.48 17.1 17.24L14.09 15.57L20 12.29ZM19 27.16L13 23.83V17.26L16.13 19C16.04 19.31 16 19.65 16 20C16 21.86 17.27 23.43 19 23.87V27.16ZM18 20C18 18.9 18.9 18 20 18C21.1 18 22 18.9 22 20C22 21.1 21.1 22 20 22C18.9 22 18 21.1 18 20ZM21 27.16V23.88C22.73 23.44 24 21.87 24 20.01C24 19.66 23.96 19.32 23.87 19L27 17.26V23.83L21 27.16Z" fill="#642180"/>
</g>
<defs>
<clipPath id="clip0_6244_1405">
<rect width="24" height="24" fill="white" transform="translate(8 8)"/>
</clipPath>
</defs>
</svg>
