<svg width="40" height="40" viewBox="0 0 40 40" fill="none" xmlns="http://www.w3.org/2000/svg">
<path d="M40 38C40 39.1046 39.1046 40 38 40L2 40C0.895432 40 -7.8281e-08 39.1046 -1.74846e-07 38L-3.32207e-06 2C-3.41863e-06 0.895435 0.895428 3.41863e-06 2 3.32207e-06L38 1.74846e-07C39.1046 7.82811e-08 40 0.895432 40 2L40 38Z" fill="#EFE9F2"/>
<g clip-path="url(#clip0_6244_1394)">
<path d="M28 12H12C10.9 12 10 12.9 10 14V26C10 27.1 10.9 28 12 28H28C29.1 28 30 27.1 30 26V14C30 12.9 29.1 12 28 12ZM28 26.01H12V13.99H28V26.01Z" fill="#642180"/>
<path d="M19 22.17L16.83 20L19 17.83L17.59 16.41L14 20L17.59 23.59L19 22.17Z" fill="#642180"/>
<path d="M22.41 23.59L26 20L22.41 16.41L21 17.83L23.17 20L21 22.17L22.41 23.59Z" fill="#642180"/>
</g>
<defs>
<clipPath id="clip0_6244_1394">
<rect width="24" height="24" fill="white" transform="translate(8 8)"/>
</clipPath>
</defs>
</svg>
