<svg width="40" height="40" viewBox="0 0 40 40" fill="none" xmlns="http://www.w3.org/2000/svg">
<rect width="40" height="40" rx="4" fill="#EFE9F2"/>
<g clip-path="url(#clip0_6244_1267)">
<path d="M28 12H12C10.9 12 10 12.9 10 14V26C10 27.1 10.9 28 12 28H28C29.1 28 30 27.1 30 26V14C30 12.9 29.1 12 28 12ZM28 26.01H12V13.99H28V26.01Z" fill="#642180"/>
</g>
<g clip-path="url(#clip1_6244_1267)">
<rect x="20" y="20" width="11" height="10" fill="#EFE9F2"/>
<path d="M19 22.17L16.83 20L19 17.83L17.59 16.41L14 20L17.59 23.59L19 22.17Z" fill="#642180"/>
<path d="M22.41 23.59L26 20L22.41 16.41L21 17.83L23.17 20L21 22.17L22.41 23.59Z" fill="#642180"/>
<path d="M31.6037 27.43C31.6337 27.14 31.6437 26.85 31.6137 26.57L32.6838 25.72C32.7838 25.64 32.8038 25.51 32.7438 25.4L31.7137 23.61C31.6537 23.5 31.5238 23.46 31.4038 23.5L30.1237 24C29.8937 23.83 29.6437 23.69 29.3737 23.58L29.1738 22.22C29.1538 22.09 29.0538 22 28.9238 22H26.8537C26.7337 22 26.6237 22.09 26.6037 22.21L26.4037 23.57C26.1437 23.68 25.8938 23.83 25.6638 23.99L24.3837 23.49C24.2637 23.44 24.1338 23.49 24.0738 23.6L23.0437 25.39C22.9837 25.5 23.0037 25.63 23.1037 25.71L24.1737 26.57C24.1437 26.86 24.1338 27.15 24.1638 27.43L23.0937 28.28C22.9937 28.36 22.9738 28.49 23.0338 28.6L24.0637 30.39C24.1237 30.5 24.2537 30.54 24.3737 30.5L25.6437 30C25.8737 30.17 26.1237 30.31 26.3937 30.42L26.5938 31.78C26.6138 31.9 26.7138 31.99 26.8438 31.99H28.9138C29.0338 31.99 29.1438 31.9 29.1638 31.78L29.3637 30.42C29.6237 30.31 29.8737 30.16 30.1037 30L31.3837 30.5C31.5037 30.55 31.6337 30.5 31.6937 30.39L32.7238 28.6C32.7838 28.49 32.7638 28.36 32.6638 28.28L31.6037 27.43ZM27.8937 28.5C27.0637 28.5 26.3937 27.83 26.3937 27C26.3937 26.17 27.0637 25.5 27.8937 25.5C28.7237 25.5 29.3937 26.17 29.3937 27C29.3937 27.83 28.7237 28.5 27.8937 28.5Z" fill="#642180"/>
</g>
<defs>
<clipPath id="clip0_6244_1267">
<rect width="24" height="24" fill="white" transform="translate(8 8)"/>
</clipPath>
<clipPath id="clip1_6244_1267">
<rect width="25" height="24" fill="white" transform="translate(8 8)"/>
</clipPath>
</defs>
</svg>
