<svg width="40" height="40" viewBox="0 0 40 40" fill="none" xmlns="http://www.w3.org/2000/svg">
<rect width="40" height="40" rx="4" fill="#EFE9F2"/>
<g clip-path="url(#clip0_6244_1276)">
<path d="M27.35 18.04C26.67 14.59 23.64 12 20 12C17.11 12 14.6 13.64 13.35 16.04C10.34 16.36 8 18.91 8 22C8 25.31 10.69 28 14 28H27C29.76 28 32 25.76 32 23C32 20.36 29.95 18.22 27.35 18.04ZM27 26H14C11.79 26 10 24.21 10 22C10 19.95 11.53 18.24 13.56 18.03L14.63 17.92L15.13 16.97C16.08 15.14 17.94 14 20 14C22.62 14 24.88 15.86 25.39 18.43L25.69 19.93L27.22 20.04C28.78 20.14 30 21.45 30 23C30 24.65 28.65 26 27 26ZM16 21H18.55V24H21.45V21H24L20 17L16 21Z" fill="#642180"/>
</g>
<defs>
<clipPath id="clip0_6244_1276">
<rect width="24" height="24" fill="white" transform="translate(8 8)"/>
</clipPath>
</defs>
</svg>
