<svg width="40" height="40" viewBox="0 0 40 40" fill="none" xmlns="http://www.w3.org/2000/svg">
<rect width="40" height="40" rx="4" fill="#EFE9F2"/>
<path d="M32.5 28.25C32.5 28.44 32.395 28.605 32.235 28.69L28.285 30.91C28.205 30.97 28.105 31 28 31C27.895 31 27.795 30.97 27.715 30.91L23.765 28.69C23.605 28.605 23.5 28.44 23.5 28.25V23.75C23.5 23.56 23.605 23.395 23.765 23.31L27.715 21.09C27.795 21.03 27.895 21 28 21C28.105 21 28.205 21.03 28.285 21.09L32.235 23.31C32.395 23.395 32.5 23.56 32.5 23.75V28.25ZM28 22.075L27.055 22.61L30 24.305L30.98 23.75L28 22.075ZM25.02 23.75L28 25.425L28.98 24.875L26.04 23.175L25.02 23.75ZM24.5 27.955L27.5 29.645V26.29L24.5 24.605V27.955ZM31.5 27.955V24.605L28.5 26.29V29.645L31.5 27.955Z" fill="#642180" stroke="#642180" stroke-width="0.5"/>
<g clip-path="url(#clip0_6272_738)">
<path d="M11 14H29V19H31V14C31 12.9 30.1 12 29 12H11C9.9 12 9 12.9 9 14V26C9 27.1 9.9 28 11 28H20V26H11V14Z" fill="#642180"/>
<path d="M23 20L17 16V24L23 20Z" fill="#642180"/>
</g>
<defs>
<clipPath id="clip0_6272_738">
<rect width="24" height="24" fill="white" transform="translate(8 8)"/>
</clipPath>
</defs>
</svg>
