<svg width="40" height="40" viewBox="0 0 40 40" fill="none" xmlns="http://www.w3.org/2000/svg">
<path opacity="0.1" d="M40 38C40 39.1046 39.1046 40 38 40L2 40C0.895432 40 -7.8281e-08 39.1046 -1.74846e-07 38L-3.32207e-06 2C-3.41863e-06 0.895435 0.895428 3.41863e-06 2 3.32207e-06L38 1.74846e-07C39.1046 7.82811e-08 40 0.895432 40 2L40 38Z" fill="#642180"/>
<g clip-path="url(#clip0_6244_1416)">
<path d="M18 23H23.88C24.15 22.69 24.55 22.5 25 22.5C25.83 22.5 26.5 23.17 26.5 24C26.5 24.83 25.83 25.5 25 25.5C24.56 25.5 24.16 25.31 23.88 25H19.9C19.44 27.28 17.42 29 15 29C12.24 29 10 26.76 10 24C10 21.58 11.72 19.56 14 19.1V21.17C12.84 21.58 12 22.7 12 24C12 25.65 13.35 27 15 27C16.65 27 18 25.65 18 24V23ZM20.5 12C22.15 12 23.5 13.35 23.5 15H25.5C25.5 12.24 23.26 10 20.5 10C17.74 10 15.5 12.24 15.5 15C15.5 16.43 16.1 17.71 17.05 18.62L14.7 22.52C14.02 22.66 13.5 23.27 13.5 24C13.5 24.83 14.17 25.5 15 25.5C15.83 25.5 16.5 24.83 16.5 24C16.5 23.84 16.48 23.69 16.43 23.55L19.81 17.92C18.49 17.61 17.5 16.42 17.5 15C17.5 13.35 18.85 12 20.5 12ZM25 21C24.36 21 23.77 21.2 23.28 21.54L20.23 16.47C19.53 16.35 19 15.74 19 15C19 14.17 19.67 13.5 20.5 13.5C21.33 13.5 22 14.17 22 15C22 15.15 21.98 15.29 21.94 15.43L24.13 19.08C24.41 19.03 24.7 19 25 19C27.76 19 30 21.24 30 24C30 26.76 27.76 29 25 29C23.15 29 21.53 27.99 20.67 26.5H23.34C23.82 26.82 24.39 27 25 27C26.65 27 28 25.65 28 24C28 22.35 26.65 21 25 21Z" fill="#642180"/>
</g>
<defs>
<clipPath id="clip0_6244_1416">
<rect width="24" height="24" fill="white" transform="translate(8 8)"/>
</clipPath>
</defs>
</svg>
