<svg width="56" height="56" viewBox="0 0 56 56" fill="none" xmlns="http://www.w3.org/2000/svg">
<rect width="56" height="56" rx="4" fill="url(#paint0_linear_7178_2974)"/>
<rect x="0.25" y="0.25" width="55.5" height="55.5" rx="3.75" stroke="black" stroke-opacity="0.05" stroke-width="0.5"/>
<rect width="56" height="56" rx="4" fill="url(#paint1_linear_7178_2974)"/>
<rect x="0.25" y="0.25" width="55.5" height="55.5" rx="3.75" stroke="black" stroke-opacity="0.05" stroke-width="0.5"/>
<g clip-path="url(#clip0_7178_2974)">
<path d="M10.7907 39.8735C9.41526 39.8735 8.00098 40.9757 8.00098 42.9048C8.00098 44.6685 9.24446 45.9142 10.7907 45.9142C12.067 45.9142 12.6358 45.0575 12.6358 45.0575V45.4309C12.6358 45.6074 12.8027 45.8043 13.0092 45.8043H13.9318V40.0053H12.6358V40.7412C12.6358 40.7412 12.0622 39.8735 10.7907 39.8735ZM11.0215 41.0593C12.1538 41.0593 12.7477 42.0551 12.7477 42.9044C12.7477 43.8504 12.0425 44.7489 11.0239 44.7489C10.1724 44.7489 9.3195 44.0593 9.3195 42.8919C9.3195 41.8382 10.0535 41.0593 11.0215 41.0593Z" fill="black"/>
<path d="M15.7328 45.8044C15.5337 45.8044 15.3594 45.6616 15.3594 45.431V40.0054H16.6554V40.723C16.949 40.2816 17.5228 39.8718 18.4034 39.8718C19.8428 39.8718 20.6092 41.0192 20.6092 42.0921V45.8044H19.7086C19.4725 45.8044 19.3133 45.6067 19.3133 45.409V42.3777C19.3133 41.783 18.9489 41.0607 18.1061 41.0607C17.1968 41.0607 16.6554 41.9201 16.6554 42.7292V45.8044L15.7328 45.8044Z" fill="black"/>
<path d="M24.3873 39.8737C23.0119 39.8737 21.5977 40.9758 21.5977 42.905C21.5977 44.6686 22.8411 45.9143 24.3873 45.9143C25.6636 45.9143 26.2325 45.0576 26.2325 45.0576V45.4311C26.2325 45.6076 26.3993 45.8045 26.6059 45.8045H27.5285V37.106H26.2325V40.7413C26.2325 40.7413 25.6589 39.8737 24.3873 39.8737ZM24.6182 41.0595C25.7504 41.0595 26.3444 42.0552 26.3444 42.9046C26.3444 43.8506 25.6392 44.749 24.6206 44.749C23.7691 44.749 22.9162 44.0594 22.9162 42.8921C22.9162 41.8383 23.6502 41.0595 24.6182 41.0595Z" fill="black"/>
<path d="M29.3295 45.8044C29.1304 45.8044 28.9561 45.6615 28.9561 45.4309V40.0053H30.252V40.9718C30.4751 40.4304 30.9565 39.9395 31.8116 39.9395C32.05 39.9395 32.2729 39.9834 32.2729 39.9834V41.3233C32.2729 41.3233 31.9946 41.2135 31.6579 41.2135C30.7485 41.2135 30.252 42.0728 30.252 42.8819V45.8044H29.3295Z" fill="black"/>
<path d="M40.1371 45.8044C39.938 45.8044 39.7637 45.6616 39.7637 45.4309V40.0054H41.0597V45.8044L40.1371 45.8044Z" fill="black"/>
<path d="M44.86 39.8737C43.4846 39.8737 42.0703 40.9758 42.0703 42.905C42.0703 44.6686 43.3138 45.9143 44.86 45.9143C46.1363 45.9143 46.7051 45.0576 46.7051 45.0576V45.4311C46.7051 45.6076 46.872 45.8045 47.0786 45.8045H48.0011V37.106H46.7051V40.7413C46.7051 40.7413 46.1315 39.8737 44.86 39.8737ZM45.0909 41.0595C46.2231 41.0595 46.817 42.0552 46.817 42.9046C46.817 43.8506 46.1119 44.749 45.0933 44.749C44.2418 44.749 43.3888 44.0594 43.3888 42.8921C43.3888 41.8383 44.1228 41.0595 45.0909 41.0595Z" fill="black"/>
<path d="M40.4028 38.7549C40.8761 38.7549 41.2597 38.3712 41.2597 37.8979C41.2597 37.4247 40.8761 37.041 40.4028 37.041C39.9296 37.041 39.5459 37.4247 39.5459 37.8979C39.5459 38.3712 39.9296 38.7549 40.4028 38.7549Z" fill="black"/>
<path d="M35.6909 39.8716C34.2505 39.8716 32.668 40.9468 32.668 42.8945C32.668 44.6694 34.0159 45.9144 35.6878 45.9144C37.7482 45.9144 38.7542 44.258 38.7542 42.9058C38.7542 41.2464 37.4587 39.8716 35.6909 39.8716ZM35.6956 41.0819C36.6917 41.0819 37.4347 41.8847 37.4347 42.8982C37.4347 43.9292 36.646 44.7249 35.6986 44.7249C34.8191 44.7249 33.9642 44.0092 33.9642 42.9155C33.9642 41.8036 34.7773 41.0819 35.6956 41.0819Z" fill="black"/>
<path d="M37.7629 17.7533L41.0788 12.0092C41.2659 11.6872 41.1528 11.2782 40.8351 11.0911C40.5174 10.9039 40.1041 11.0127 39.9213 11.3347L36.5619 17.1528C33.9988 15.9822 31.1138 15.3295 28.0111 15.3295C24.9084 15.3295 22.0234 15.9822 19.4603 17.1528L16.1009 11.3347C15.9138 11.0127 15.5047 10.9039 15.1827 11.0911C14.8607 11.2782 14.7519 11.6872 14.939 12.0092L18.2549 17.7533C12.537 20.8516 8.66408 26.6391 8.02441 33.4145H47.9978C47.3581 26.6391 43.4852 20.8515 37.7629 17.7533ZM18.8337 27.801C17.9068 27.801 17.1583 27.0482 17.1583 26.1257C17.1583 25.1988 17.9111 24.4503 18.8337 24.4503C19.7605 24.4503 20.509 25.2031 20.509 26.1257C20.5134 27.0482 19.7605 27.801 18.8337 27.801ZM37.1842 27.801C36.2573 27.801 35.5089 27.0482 35.5089 26.1257C35.5089 25.1988 36.2617 24.4503 37.1842 24.4503C38.1111 24.4503 38.8595 25.2031 38.8595 26.1257C38.8639 27.0482 38.1111 27.801 37.1842 27.801Z" fill="#32DE84"/>
</g>
<defs>
<linearGradient id="paint0_linear_7178_2974" x1="10.7059" y1="100.745" x2="41.451" y2="20.0392" gradientUnits="userSpaceOnUse">
<stop stop-color="#C4D3D8"/>
<stop offset="1" stop-color="white"/>
</linearGradient>
<linearGradient id="paint1_linear_7178_2974" x1="10.7059" y1="100.745" x2="41.451" y2="20.0392" gradientUnits="userSpaceOnUse">
<stop stop-color="#C4D3D8"/>
<stop offset="1" stop-color="white"/>
</linearGradient>
<clipPath id="clip0_7178_2974">
<rect width="40" height="34.9152" fill="white" transform="translate(8 11)"/>
</clipPath>
</defs>
</svg>
