<svg width="56" height="56" viewBox="0 0 56 56" fill="none" xmlns="http://www.w3.org/2000/svg">
<rect width="56" height="56" rx="4" fill="url(#paint0_linear_7178_2858)"/>
<rect x="0.25" y="0.25" width="55.5" height="55.5" rx="3.75" stroke="black" stroke-opacity="0.05" stroke-width="0.5"/>
<g clip-path="url(#clip0_7178_2858)">
<path d="M45.4957 19.7295C45.4954 19.0587 45.3519 18.4659 45.0618 17.9571C44.7768 17.4569 44.35 17.0376 43.7775 16.706C39.0518 13.9812 34.3215 11.2646 29.5974 8.537C28.3238 7.80172 27.0889 7.82852 25.8247 8.57436C23.9438 9.68366 14.5264 15.0791 11.7201 16.7045C10.5644 17.3735 10.0021 18.3974 10.0018 19.7282C10 25.2081 10.0018 30.6878 10 36.1678C10 36.8239 10.1376 37.4052 10.415 37.9063C10.7001 38.4217 11.1329 38.8526 11.7186 39.1916C14.525 40.817 23.9436 46.212 25.8242 47.3216C27.0889 48.0678 28.3238 48.0945 29.5978 47.3589C34.3221 44.6312 39.0526 41.9148 43.779 39.1899C44.3647 38.851 44.7975 38.4199 45.0826 37.9049C45.3596 37.4038 45.4975 36.8226 45.4975 36.1663C45.4975 36.1663 45.4975 25.2095 45.4957 19.7295Z" fill="#A179DC"/>
<path d="M27.8031 27.8945L10.415 37.9062C10.7002 38.4216 11.133 38.8524 11.7187 39.1915C14.525 40.8169 23.9437 46.2119 25.8242 47.3215C27.0889 48.0677 28.3238 48.0944 29.5978 47.3588C34.3221 44.6311 39.0527 41.9147 43.7791 39.1898C44.3648 38.8509 44.7975 38.4198 45.0827 37.9048L27.8031 27.8945Z" fill="#280068"/>
<path d="M45.4954 19.7294C45.4951 19.0586 45.3516 18.4658 45.0615 17.957L27.8027 27.8945L45.0823 37.9048C45.3593 37.4037 45.4969 36.8224 45.4972 36.1662C45.4972 36.1662 45.4972 25.2094 45.4954 19.7294Z" fill="#390091"/>
<path d="M38.0404 24.1519V26.0232H39.9118V24.1519H40.8474V26.0232H42.7188V26.9589H40.8474V28.8302H42.7188V29.7659H40.8474V31.6372H39.9118V29.7659H38.0404V31.6372H37.1047V29.7659H35.2334V28.8302H37.1047V26.9589H35.2334V26.0232H37.1047V24.1519H38.0404ZM39.9118 26.9589H38.0404V28.8302H39.9118V26.9589Z" fill="white"/>
<path d="M27.841 14.7537C32.7221 14.7537 36.9837 17.4045 39.2663 21.3448L39.244 21.3069L33.5011 24.6136C32.3696 22.6978 30.2954 21.4049 27.916 21.3783L27.841 21.3779C24.2125 21.3779 21.2707 24.3195 21.2707 27.948C21.2707 29.1346 21.5871 30.2469 22.1372 31.2077C23.2698 33.1848 25.3988 34.5183 27.841 34.5183C30.2983 34.5183 32.4395 33.1679 33.5662 31.1696L33.5388 31.2176L39.2731 34.5395C37.0155 38.4464 32.8123 41.0891 27.988 41.1418L27.841 41.1426C22.9445 41.1426 18.6708 38.4754 16.394 34.5143C15.2825 32.5805 14.6465 30.3387 14.6465 27.948C14.6465 20.6611 20.5537 14.7537 27.841 14.7537Z" fill="white"/>
</g>
<defs>
<linearGradient id="paint0_linear_7178_2858" x1="10.7059" y1="100.745" x2="41.451" y2="20.0392" gradientUnits="userSpaceOnUse">
<stop stop-color="#C4D3D8"/>
<stop offset="1" stop-color="white"/>
</linearGradient>
<clipPath id="clip0_7178_2858">
<rect width="35.5556" height="40" fill="white" transform="translate(10 8)"/>
</clipPath>
</defs>
</svg>
