<svg width="56" height="56" viewBox="0 0 56 56" fill="none" xmlns="http://www.w3.org/2000/svg">
<rect width="56" height="56" rx="4" fill="url(#paint0_linear_7178_2821)"/>
<rect x="0.25" y="0.25" width="55.5" height="55.5" rx="3.75" stroke="black" stroke-opacity="0.05" stroke-width="0.5"/>
<path d="M7.23185 24.849C7.14844 24.849 7.12758 24.8073 7.16929 24.7447L7.60722 24.1817C7.64893 24.1191 7.7532 24.0774 7.83662 24.0774H15.2815C15.3649 24.0774 15.3857 24.14 15.344 24.2025L14.9895 24.7447C14.9478 24.8073 14.8435 24.8698 14.781 24.8698L7.23185 24.849Z" fill="#00ACD7"/>
<path d="M4.08342 26.7626C4 26.7626 3.97915 26.7209 4.02085 26.6583L4.45879 26.0952C4.50049 26.0327 4.60476 25.991 4.68818 25.991H14.1976C14.281 25.991 14.3227 26.0535 14.3018 26.1161L14.135 26.6166C14.1142 26.7 14.0307 26.7417 13.9473 26.7417L4.08342 26.7626Z" fill="#00ACD7"/>
<path d="M9.13029 28.6835C9.04687 28.6835 9.02602 28.6209 9.06773 28.5583L9.35968 28.037C9.40139 27.9744 9.48481 27.9119 9.56822 27.9119H13.739C13.8224 27.9119 13.8641 27.9744 13.8641 28.0578L13.8224 28.5583C13.8224 28.6418 13.739 28.7043 13.6764 28.7043L9.13029 28.6835Z" fill="#00ACD7"/>
<path d="M30.7761 24.4699C29.4623 24.8036 28.5656 25.0538 27.2726 25.3875C26.9598 25.4709 26.939 25.4917 26.6679 25.1789C26.3551 24.8244 26.1257 24.595 25.6877 24.3865C24.3739 23.74 23.1019 23.9277 21.9132 24.6993C20.4951 25.6169 19.7652 26.9724 19.7861 28.6615C19.8069 30.3299 20.9539 31.7062 22.6014 31.9356C24.0194 32.1233 25.2081 31.6228 26.1465 30.5592C26.3342 30.3299 26.501 30.0796 26.7096 29.7876C25.9588 29.7876 25.0204 29.7876 22.6848 29.7876C22.2468 29.7876 22.1426 29.5165 22.2886 29.162C22.5597 28.5156 23.0601 27.4312 23.3521 26.889C23.4147 26.7638 23.5606 26.5553 23.8735 26.5553C24.937 26.5553 28.8575 26.5553 31.4643 26.5553C31.4226 27.1183 31.4226 27.6814 31.3392 28.2445C31.1098 29.7459 30.5467 31.1223 29.6291 32.3318C28.1277 34.313 26.1674 35.5433 23.6858 35.877C21.6421 36.1481 19.7444 35.7519 18.0761 34.5006C16.5329 33.3328 15.657 31.7896 15.4276 29.8711C15.1565 27.598 15.8238 25.5543 17.2002 23.7609C18.6808 21.8215 20.6411 20.5911 23.0393 20.1531C24.9996 19.7986 26.8764 20.028 28.5656 21.175C29.6708 21.9049 30.4633 22.9059 30.9846 24.1154C31.1098 24.3031 31.0264 24.4073 30.7761 24.4699Z" fill="#00ACD7"/>
<path d="M37.679 36.0002C35.7813 35.9585 34.0504 35.4163 32.5906 34.165C31.3603 33.1015 30.5887 31.746 30.3384 30.1402C29.9631 27.7837 30.6095 25.6983 32.0276 23.8423C33.5499 21.8404 35.3851 20.7977 37.8667 20.3597C39.9938 19.9844 41.9958 20.1929 43.8101 21.4233C45.4575 22.5494 46.4794 24.0717 46.7505 26.0737C47.105 28.889 46.2917 31.1829 44.3523 33.1432C42.9759 34.5404 41.2867 35.4163 39.3473 35.8125C38.7843 35.9168 38.2212 35.9376 37.679 36.0002ZM42.6422 27.5752C42.6214 27.3041 42.6214 27.0956 42.5797 26.887C42.2043 24.8225 40.3066 23.6547 38.3255 24.1134C36.3861 24.5514 35.1348 25.7818 34.676 27.742C34.3007 29.3686 35.0931 31.0161 36.5946 31.6834C37.7416 32.1839 38.8885 32.1213 39.9938 31.5583C41.6412 30.7033 42.538 29.3686 42.6422 27.5752Z" fill="#00ACD7"/>
<defs>
<linearGradient id="paint0_linear_7178_2821" x1="10.7059" y1="100.745" x2="41.451" y2="20.0392" gradientUnits="userSpaceOnUse">
<stop stop-color="#C4D3D8"/>
<stop offset="1" stop-color="white"/>
</linearGradient>
</defs>
</svg>
