<svg width="56" height="56" viewBox="0 0 56 56" fill="none" xmlns="http://www.w3.org/2000/svg">
<rect width="56" height="56" rx="4" fill="url(#paint0_linear_7178_2758)"/>
<rect x="0.25" y="0.25" width="55.5" height="55.5" rx="3.75" stroke="black" stroke-opacity="0.05" stroke-width="0.5"/>
<rect width="56" height="56" rx="4" fill="url(#paint1_linear_7178_2758)"/>
<rect x="0.25" y="0.25" width="55.5" height="55.5" rx="3.75" stroke="black" stroke-opacity="0.05" stroke-width="0.5"/>
<g clip-path="url(#clip0_7178_2758)">
<path fill-rule="evenodd" clip-rule="evenodd" d="M22.5327 27.4614C22.5327 27.4614 21.2753 28.1933 23.4286 28.4403C26.0378 28.7382 27.371 28.6953 30.2454 28.1519C30.2454 28.1519 31.0026 28.6256 32.0583 29.0359C25.6126 31.7975 17.4704 28.8759 22.5327 27.4614Z" fill="#0074BD"/>
<path fill-rule="evenodd" clip-rule="evenodd" d="M21.7439 23.8569C21.7439 23.8569 20.3334 24.9013 22.4883 25.124C25.2757 25.4117 27.4761 25.4353 31.2858 24.7021C31.2858 24.7021 31.8115 25.2361 32.6394 25.528C24.8474 27.8072 16.1687 25.7073 21.7439 23.8569Z" fill="#0074BD"/>
<path fill-rule="evenodd" clip-rule="evenodd" d="M28.3841 17.7422C29.9731 19.5713 27.9674 21.216 27.9674 21.216C27.9674 21.216 31.9999 19.1347 30.1484 16.5271C28.4185 14.0965 27.0922 12.8891 34.2723 8.7251C34.2723 8.7251 23.0013 11.5394 28.3841 17.7422Z" fill="#EA2D2E"/>
<path fill-rule="evenodd" clip-rule="evenodd" d="M36.9081 30.1277C36.9081 30.1277 37.839 30.895 35.8829 31.4885C32.1633 32.6151 20.3986 32.9549 17.131 31.5335C15.9571 31.0223 18.1594 30.3136 18.8523 30.1639C19.5748 30.0076 19.9873 30.0362 19.9873 30.0362C18.681 29.1163 11.5436 31.8429 16.3624 32.6249C29.5033 34.7549 40.3163 31.6655 36.9081 30.1277Z" fill="#0074BD"/>
<path fill-rule="evenodd" clip-rule="evenodd" d="M23.1372 20.1221C23.1372 20.1221 17.1537 21.5437 21.0184 22.0604C22.6507 22.2788 25.9027 22.2285 28.9341 21.9742C31.4108 21.7663 33.8963 21.3218 33.8963 21.3218C33.8963 21.3218 33.0237 21.6961 32.3918 22.1273C26.3145 23.7257 14.5764 22.9813 17.9561 21.3471C20.8131 19.965 23.1372 20.1221 23.1372 20.1221Z" fill="#0074BD"/>
<path fill-rule="evenodd" clip-rule="evenodd" d="M33.8715 26.1217C40.0489 22.9126 37.1924 19.8282 35.1987 20.2436C34.7112 20.3454 34.4925 20.4335 34.4925 20.4335C34.4925 20.4335 34.6741 20.149 35.02 20.0265C38.9642 18.6406 41.9968 24.1157 33.748 26.2841C33.748 26.2841 33.8429 26.1982 33.8715 26.1217Z" fill="#0074BD"/>
<path fill-rule="evenodd" clip-rule="evenodd" d="M30.1481 2C30.1481 2 33.5685 5.42235 26.9029 10.6835C21.5576 14.9055 25.6842 17.3118 26.901 20.0626C23.7806 17.2474 21.4918 14.7689 23.027 12.4625C25.2814 9.07733 31.5278 7.43556 30.1481 2Z" fill="#EA2D2E"/>
<path fill-rule="evenodd" clip-rule="evenodd" d="M23.7453 34.8205C29.6735 35.1995 38.7796 34.6096 38.9951 31.8042C38.9951 31.8042 38.5808 32.8677 34.0953 33.7115C29.0349 34.6642 22.792 34.5533 19.0908 33.9422C19.0908 33.9422 19.8491 34.5698 23.7453 34.8205Z" fill="#0074BD"/>
<path fill-rule="evenodd" clip-rule="evenodd" d="M38.7206 39.8517H38.54V39.7508H39.0263V39.8517H38.8464V40.3563H38.7205V39.8517H38.7206ZM39.6914 39.8772H39.6891L39.5099 40.3562H39.4274L39.2493 39.8772H39.2475V40.3562H39.1282V39.7507H39.3031L39.468 40.1793L39.6334 39.7507H39.8073V40.3562H39.6915L39.6914 39.8772Z" fill="#EA2D2E"/>
<path fill-rule="evenodd" clip-rule="evenodd" d="M22.7733 45.5397C22.2143 46.0243 21.6231 46.2969 21.0924 46.2969C20.3366 46.2969 19.9266 45.8427 19.9266 45.1158C19.9266 44.329 20.3656 43.7532 22.1234 43.7532H22.7733V45.5397ZM24.3165 47.2806V41.8914C24.3165 40.5137 23.5309 39.6047 21.6377 39.6047C20.5329 39.6047 19.5644 39.8779 18.777 40.2256L19.0036 41.1802C19.6237 40.9524 20.4257 40.7409 21.213 40.7409C22.3039 40.7409 22.7733 41.1802 22.7733 42.0887V42.7701H22.2282C19.5783 42.7701 18.3828 43.7977 18.3828 45.3436C18.3828 46.6754 19.1708 47.4326 20.6541 47.4326C21.6073 47.4326 22.3197 47.0389 22.9847 46.4628L23.1059 47.2806H24.3165Z" fill="#EA2D2E"/>
<path fill-rule="evenodd" clip-rule="evenodd" d="M29.4666 47.2806H27.5421L25.2256 39.7424H26.9063L28.3442 44.3745L28.664 45.7663C29.3898 43.7533 29.9045 41.7095 30.1619 39.7424H31.7966C31.3595 42.2245 30.5708 44.9493 29.4666 47.2806Z" fill="#EA2D2E"/>
<path fill-rule="evenodd" clip-rule="evenodd" d="M36.8517 45.5397C36.2909 46.0243 35.6995 46.2969 35.1703 46.2969C34.4142 46.2969 34.0042 45.8427 34.0042 45.1158C34.0042 44.329 34.4441 43.7532 36.2004 43.7532H36.8517V45.5397H36.8517ZM38.3955 47.2806V41.8914C38.3955 40.5137 37.6076 39.6047 35.7161 39.6047C34.6099 39.6047 33.6415 39.8779 32.8542 40.2256L33.0811 41.1802C33.7016 40.9524 34.5046 40.7409 35.2919 40.7409C36.3815 40.7409 36.8517 41.1802 36.8517 42.0887V42.7701H36.3065C33.6561 42.7701 32.4609 43.7977 32.4609 45.3436C32.4609 46.6754 33.2478 47.4326 34.731 47.4326C35.685 47.4326 36.3961 47.0389 37.0629 46.4628L37.1849 47.2806H38.3955Z" fill="#EA2D2E"/>
<path fill-rule="evenodd" clip-rule="evenodd" d="M16.6905 48.5617C16.2508 49.2042 15.5397 49.7131 14.762 50.0001L14 49.1025C14.5925 48.7982 15.1 48.3078 15.3361 47.8511C15.5397 47.444 15.6245 46.9208 15.6245 45.6683V37.061H17.2646V45.5496C17.2646 47.2248 17.1309 47.9021 16.6905 48.5617Z" fill="#EA2D2E"/>
</g>
<defs>
<linearGradient id="paint0_linear_7178_2758" x1="10.7059" y1="100.745" x2="41.451" y2="20.0392" gradientUnits="userSpaceOnUse">
<stop stop-color="#C4D3D8"/>
<stop offset="1" stop-color="white"/>
</linearGradient>
<linearGradient id="paint1_linear_7178_2758" x1="10.7059" y1="100.745" x2="41.451" y2="20.0392" gradientUnits="userSpaceOnUse">
<stop stop-color="#C4D3D8"/>
<stop offset="1" stop-color="white"/>
</linearGradient>
<clipPath id="clip0_7178_2758">
<rect width="25.8076" height="48" fill="white" transform="translate(14 2)"/>
</clipPath>
</defs>
</svg>
