<svg width="56" height="56" viewBox="0 0 56 56" fill="none" xmlns="http://www.w3.org/2000/svg">
<rect width="56" height="56" rx="4" fill="url(#paint0_linear_7178_2489)"/>
<rect x="0.25" y="0.25" width="55.5" height="55.5" rx="3.75" stroke="black" stroke-opacity="0.05" stroke-width="0.5"/>
<g clip-path="url(#clip0_7178_2489)">
<path d="M27.7706 40.498C27.6385 40.498 27.5074 40.4634 27.3917 40.3967L26.1857 39.6828C26.0056 39.582 26.0935 39.5464 26.1529 39.5259C26.3931 39.4418 26.4418 39.4228 26.6981 39.2772C26.7251 39.2618 26.7604 39.2673 26.7879 39.2835L27.7144 39.8333C27.7479 39.8514 27.7953 39.8514 27.8263 39.8333L31.4387 37.7482C31.4721 37.7292 31.4939 37.6903 31.4939 37.6505V33.4821C31.4939 33.4405 31.4721 33.4034 31.438 33.3826L27.8271 31.2993C27.7936 31.2794 27.7493 31.2794 27.7158 31.2993L24.1057 33.3826C24.0707 33.4025 24.0484 33.4414 24.0484 33.4812V37.6496C24.0484 37.6894 24.0701 37.7274 24.1045 37.7464L25.0937 38.3178C25.6308 38.5864 25.959 38.2699 25.959 37.9516V33.8374C25.959 33.7787 26.0052 33.7334 26.0639 33.7334H26.5215C26.5784 33.7334 26.6254 33.7787 26.6254 33.8374V37.9534C26.6254 38.6696 26.2348 39.081 25.5558 39.081C25.3469 39.081 25.1823 39.081 24.723 38.8549L23.7754 38.3088C23.5412 38.1732 23.3965 37.92 23.3965 37.6496V33.4812C23.3965 33.2099 23.5412 32.9567 23.7754 32.8229L27.3913 30.7369C27.6201 30.6076 27.9239 30.6076 28.1509 30.7369L31.7623 32.8238C31.9956 32.9585 32.1412 33.2108 32.1412 33.4821V37.6505C32.1412 37.9209 31.9956 38.1732 31.7623 38.3088L28.1509 40.3948C28.0351 40.4617 27.904 40.4961 27.7702 40.4961" fill="#689F63"/>
<path d="M28.8866 37.6257C27.306 37.6257 26.9746 36.9001 26.9746 36.2916C26.9746 36.2337 27.0213 36.1876 27.0792 36.1876H27.5458C27.5973 36.1876 27.6407 36.2251 27.6489 36.276C27.7194 36.7515 27.9292 36.9913 28.885 36.9913C29.6463 36.9913 29.97 36.8193 29.97 36.4155C29.97 36.1832 29.8778 36.0105 28.6951 35.8947C27.7059 35.7971 27.0946 35.5791 27.0946 34.788C27.0946 34.0592 27.7095 33.6251 28.7394 33.6251C29.8959 33.6251 30.4691 34.0266 30.5415 34.8892C30.5442 34.9191 30.5333 34.948 30.5135 34.9697C30.4936 34.9905 30.4655 35.0032 30.4366 35.0032H29.9673C29.9185 35.0032 29.876 34.9688 29.866 34.9218C29.753 34.4217 29.4799 34.2617 28.7376 34.2617C27.9066 34.2617 27.8098 34.551 27.8098 34.7681C27.8098 35.0312 27.9238 35.108 29.045 35.2563C30.1554 35.4037 30.6825 35.6117 30.6825 36.392C30.6825 37.1787 30.0261 37.6299 28.8813 37.6299M33.2813 33.2092H33.4024C33.5019 33.2092 33.5209 33.1396 33.5209 33.0989C33.5209 32.9922 33.4476 32.9922 33.4069 32.9922H33.2822L33.2813 33.2092ZM33.1339 32.8674H33.4024C33.4947 32.8674 33.6755 32.8674 33.6755 33.0736C33.6755 33.2173 33.5833 33.2472 33.5281 33.2652C33.6357 33.2725 33.6429 33.343 33.6574 33.4425C33.6647 33.5049 33.6764 33.6125 33.6981 33.6486H33.5326C33.5281 33.6125 33.5028 33.4135 33.5028 33.4027C33.4919 33.3584 33.4766 33.3367 33.4214 33.3367H33.2849V33.6495H33.1339V32.8674ZM32.8111 33.2562C32.8111 33.5799 33.0724 33.8421 33.3934 33.8421C33.7171 33.8421 33.9784 33.5745 33.9784 33.2562C33.9784 32.9316 33.7135 32.6739 33.3925 32.6739C33.076 32.6739 32.8102 32.928 32.8102 33.2553M34.0905 33.258C34.0905 33.6414 33.7768 33.9543 33.3943 33.9543C33.0145 33.9543 32.698 33.645 32.698 33.258C32.698 32.8638 33.0218 32.5618 33.3943 32.5618C33.7695 32.5618 34.0896 32.8647 34.0896 33.258" fill="#689F63"/>
<path fill-rule="evenodd" clip-rule="evenodd" d="M16.5843 24.1877C16.5843 24.0213 16.4966 23.8685 16.353 23.7858L12.5231 21.5822C12.4584 21.5442 12.386 21.5243 12.3126 21.5216H12.273C12.1995 21.5243 12.1271 21.5442 12.0614 21.5822L8.23166 23.7858C8.08898 23.8689 8 24.0218 8 24.1881L8.00841 30.1234C8.00841 30.2057 8.05091 30.2826 8.12324 30.3233C8.19377 30.3667 8.28239 30.3667 8.35292 30.3233L10.6297 29.0194C10.7735 28.9338 10.8612 28.7826 10.8612 28.6179V25.8451C10.8612 25.6796 10.9489 25.5268 11.0922 25.4445L12.0616 24.8863C12.1335 24.8447 12.2126 24.8241 12.293 24.8241C12.3723 24.8241 12.4531 24.8445 12.5231 24.8862L13.4919 25.4443C13.6354 25.5266 13.7234 25.6794 13.7234 25.8448V28.6174C13.7234 28.782 13.8123 28.9339 13.9554 29.0189L16.2307 30.3219C16.3022 30.3644 16.3911 30.3644 16.4622 30.3219C16.5324 30.2812 16.5769 30.2043 16.5769 30.1221L16.5843 24.1877ZM34.6567 27.2779C34.6567 27.3193 34.6347 27.3575 34.5988 27.3779L33.2834 28.1362C33.2477 28.1567 33.2035 28.1567 33.1679 28.1362L31.8523 27.3779C31.8161 27.3574 31.7944 27.3192 31.7944 27.2779V25.7592C31.7944 25.7178 31.8161 25.6796 31.8514 25.6588L33.1661 24.8993C33.2023 24.8785 33.2466 24.8785 33.2827 24.8993L34.5984 25.6588C34.6346 25.6796 34.6563 25.7178 34.6563 25.7592L34.6567 27.2779ZM35.0121 16.0293C34.9403 15.9893 34.8529 15.9904 34.782 16.0317C34.7115 16.0733 34.6679 16.1493 34.6679 16.2316V22.109C34.6679 22.1668 34.6372 22.2202 34.5871 22.2491C34.5374 22.2781 34.4754 22.2781 34.4252 22.2491L33.4659 21.6966C33.323 21.6139 33.147 21.6139 33.0036 21.6966L29.1724 23.9076C29.0293 23.9899 28.941 24.1427 28.941 24.3073V28.7307C28.941 28.8962 29.0293 29.0481 29.1724 29.1313L33.0036 31.3439C33.1467 31.4262 33.3228 31.4262 33.4663 31.3439L37.2975 29.1304C37.4403 29.0472 37.529 28.8953 37.529 28.7298V17.7056C37.529 17.5378 37.4376 17.3834 37.2911 17.3014L35.0121 16.0293ZM47.7699 25.7192C47.9123 25.6366 47.9999 25.484 47.9999 25.3194V24.2474C47.9999 24.0824 47.9122 23.9302 47.7696 23.8472L43.9628 21.6373C43.8191 21.5541 43.6427 21.5541 43.499 21.6373L39.6687 23.8481C39.5249 23.9313 39.4372 24.0832 39.4372 24.2487V28.6703C39.4372 28.8367 39.5267 28.9904 39.6705 29.0727L43.4764 31.2419C43.6165 31.3224 43.7883 31.3233 43.9303 31.2447L46.2324 29.9652C46.3048 29.9245 46.3509 29.8476 46.3509 29.7644C46.3509 29.6813 46.3066 29.6035 46.2342 29.5628L42.3804 27.3511C42.3081 27.3104 42.2638 27.2335 42.2638 27.1513V25.7642C42.2638 25.6814 42.3072 25.605 42.3795 25.5638L43.5785 24.8721C43.65 24.8305 43.7377 24.8305 43.8091 24.8721L45.009 25.5638C45.0804 25.6045 45.1247 25.6814 45.1247 25.7636V26.8541C45.1247 26.9364 45.1691 27.0133 45.2405 27.0549C45.3119 27.0956 45.4005 27.0956 45.472 27.054L47.7699 25.7192Z" fill="#333333"/>
<path fill-rule="evenodd" clip-rule="evenodd" d="M43.6744 25.5124C43.7015 25.4964 43.7355 25.4964 43.763 25.5124L44.4982 25.9364C44.5257 25.9524 44.5425 25.9817 44.5425 26.0133V26.8624C44.5425 26.894 44.5257 26.9233 44.4982 26.9392L43.763 27.3633C43.7355 27.3793 43.7015 27.3793 43.6744 27.3633L42.9397 26.9392C42.9117 26.9233 42.8945 26.894 42.8945 26.8624V26.0133C42.8945 25.9817 42.9108 25.9524 42.9388 25.9364L43.6744 25.5124Z" fill="#689F63"/>
<mask id="mask0_7178_2489" style="mask-type:luminance" maskUnits="userSpaceOnUse" x="18" y="21" width="10" height="11">
<path d="M22.5328 21.6594L18.7234 23.8582C18.5807 23.9405 18.4932 24.0924 18.4932 24.2566V28.6572C18.4932 28.8215 18.5807 28.9733 18.7234 29.0556L22.5331 31.2561C22.6755 31.3381 22.8511 31.3381 22.9934 31.2561L26.8025 29.0556C26.9444 28.9733 27.0321 28.8214 27.0321 28.6572V24.2566C27.0321 24.0924 26.9444 23.9405 26.8016 23.8582L22.993 21.6594C22.9216 21.6184 22.842 21.5979 22.7624 21.5979C22.6829 21.5979 22.6033 21.6184 22.5319 21.6594" fill="white"/>
</mask>
<g mask="url(#mask0_7178_2489)">
<path d="M30.882 23.4848L20.1475 18.2231L14.6436 29.4512L25.3777 34.7131L30.882 23.4848Z" fill="url(#paint1_linear_7178_2489)"/>
</g>
<mask id="mask1_7178_2489" style="mask-type:luminance" maskUnits="userSpaceOnUse" x="18" y="21" width="9" height="11">
<path d="M18.5879 28.9367C18.6243 28.984 18.6699 29.0249 18.7235 29.0557L21.9914 30.9432L22.5357 31.2561C22.6171 31.3031 22.7099 31.323 22.801 31.3162C22.8314 31.3138 22.8618 31.3081 22.8914 31.2997L26.9092 23.9429C26.8785 23.9095 26.8425 23.8815 26.8022 23.8579L24.3078 22.4175L22.9893 21.6589C22.9518 21.6372 22.9112 21.6218 22.8699 21.611L18.5879 28.9367Z" fill="white"/>
</mask>
<g mask="url(#mask1_7178_2489)">
<path d="M13.9463 25.0411L21.5259 35.2997L31.5501 27.8936L23.97 17.6353L13.9463 25.0411Z" fill="url(#paint2_linear_7178_2489)"/>
</g>
<mask id="mask2_7178_2489" style="mask-type:luminance" maskUnits="userSpaceOnUse" x="18" y="21" width="10" height="11">
<path d="M22.717 21.6005C22.6531 21.6068 22.5906 21.6267 22.533 21.6594L18.7344 23.8519L22.8305 31.3126C22.8874 31.3045 22.9435 31.2855 22.9941 31.2562L26.8036 29.0557C26.9212 28.9875 27.0016 28.8721 27.0261 28.7414L22.8504 21.608C22.8196 21.6019 22.7889 21.5988 22.7572 21.5988C22.7446 21.5988 22.7319 21.5994 22.7193 21.6006" fill="white"/>
</mask>
<g mask="url(#mask2_7178_2489)">
<path d="M18.7344 21.5988V31.3128H27.0245V21.5988H18.7344Z" fill="url(#paint3_linear_7178_2489)"/>
</g>
</g>
<defs>
<linearGradient id="paint0_linear_7178_2489" x1="10.7059" y1="100.745" x2="41.451" y2="20.0392" gradientUnits="userSpaceOnUse">
<stop stop-color="#C4D3D8"/>
<stop offset="1" stop-color="white"/>
</linearGradient>
<linearGradient id="paint1_linear_7178_2489" x1="25.5115" y1="20.8457" x2="20.0079" y2="32.073" gradientUnits="userSpaceOnUse">
<stop offset="0.3" stop-color="#3E863D"/>
<stop offset="0.5" stop-color="#55934F"/>
<stop offset="0.8" stop-color="#5AAD45"/>
</linearGradient>
<linearGradient id="paint2_linear_7178_2489" x1="17.7815" y1="30.2292" x2="27.8061" y2="22.8222" gradientUnits="userSpaceOnUse">
<stop offset="0.57" stop-color="#3E863D"/>
<stop offset="0.72" stop-color="#619857"/>
<stop offset="1" stop-color="#76AC64"/>
</linearGradient>
<linearGradient id="paint3_linear_7178_2489" x1="18.7372" y1="26.456" x2="27.0261" y2="26.456" gradientUnits="userSpaceOnUse">
<stop offset="0.16" stop-color="#6BBF47"/>
<stop offset="0.38" stop-color="#79B461"/>
<stop offset="0.47" stop-color="#75AC64"/>
<stop offset="0.7" stop-color="#659E5A"/>
<stop offset="0.9" stop-color="#3E863D"/>
</linearGradient>
<clipPath id="clip0_7178_2489">
<rect width="40" height="24.4979" fill="white" transform="translate(8 16)"/>
</clipPath>
</defs>
</svg>
