<svg width="56" height="56" viewBox="0 0 56 56" fill="none" xmlns="http://www.w3.org/2000/svg">
<rect width="56" height="56" rx="4" fill="url(#paint0_linear_7178_2562)"/>
<rect x="0.25" y="0.25" width="55.5" height="55.5" rx="3.75" stroke="black" stroke-opacity="0.05" stroke-width="0.5"/>
<g clip-path="url(#clip0_7178_2562)">
<path d="M11.1653 22.217H17.0975C18.8387 22.2318 20.1004 22.731 20.8825 23.7148C21.6646 24.6987 21.9229 26.0423 21.6572 27.7457C21.5539 28.524 21.3252 29.2876 20.9711 30.0365C20.6316 30.7854 20.1594 31.4608 19.5544 32.0629C18.8166 32.8265 18.0271 33.3111 17.186 33.5167C16.3449 33.7222 15.4742 33.825 14.5741 33.825H11.9179L11.0768 38.0101H8L11.1653 22.217ZM13.7551 24.7281L12.427 31.336C12.5155 31.3507 12.6041 31.3581 12.6926 31.3581H13.0025C14.4191 31.3727 15.5996 31.2332 16.5441 30.9395C17.4885 30.6312 18.123 29.5592 18.4477 27.7237C18.7133 26.1818 18.4477 25.2934 17.6508 25.0585C16.8687 24.8235 15.8874 24.7134 14.7069 24.7281C14.5298 24.7427 14.3601 24.7501 14.1978 24.7501C14.0502 24.7501 13.8953 24.7501 13.7329 24.7501L13.7551 24.7281Z" fill="black"/>
<path d="M25.163 18.0112H28.2176L27.3544 22.2183H30.0991C31.6043 22.2477 32.7258 22.5561 33.4636 23.1434C34.2162 23.7308 34.4375 24.8468 34.1277 26.4915L32.6446 33.8263H29.5457L30.9624 26.8218C31.1099 26.0877 31.0656 25.5663 30.8296 25.258C30.5934 24.9496 30.0843 24.7954 29.3022 24.7954L26.8453 24.7734L25.0302 33.8263H21.9756L25.163 18.0112Z" fill="black"/>
<path d="M37.4085 22.217H43.3406C45.0819 22.2318 46.3436 22.731 47.1257 23.7148C47.9078 24.6987 48.166 26.0423 47.9004 27.7457C47.7971 28.524 47.5684 29.2876 47.2142 30.0365C46.8748 30.7854 46.4026 31.4608 45.7976 32.0629C45.0597 32.8265 44.2703 33.3111 43.4292 33.5167C42.588 33.7222 41.7174 33.825 40.8172 33.825H38.161L37.3199 38.0101H34.2432L37.4085 22.217ZM39.9982 24.7281L38.6701 31.336C38.7587 31.3507 38.8472 31.3581 38.9358 31.3581H39.2457C40.6623 31.3727 41.8428 31.2332 42.7872 30.9395C43.7316 30.6312 44.3662 29.5592 44.6908 27.7237C44.9564 26.1818 44.6908 25.2934 43.894 25.0585C43.1119 24.8235 42.1305 24.7134 40.95 24.7281C40.773 24.7427 40.6033 24.7501 40.4409 24.7501C40.2934 24.7501 40.1384 24.7501 39.9761 24.7501L39.9982 24.7281Z" fill="black"/>
</g>
<defs>
<linearGradient id="paint0_linear_7178_2562" x1="10.7059" y1="100.745" x2="41.451" y2="20.0392" gradientUnits="userSpaceOnUse">
<stop stop-color="#C4D3D8"/>
<stop offset="1" stop-color="white"/>
</linearGradient>
<clipPath id="clip0_7178_2562">
<rect width="40" height="20" fill="white" transform="translate(8 18)"/>
</clipPath>
</defs>
</svg>
