<svg width="56" height="56" viewBox="0 0 56 56" fill="none" xmlns="http://www.w3.org/2000/svg">
<rect width="56" height="56" rx="4" fill="url(#paint0_linear_7178_2511)"/>
<rect x="0.25" y="0.25" width="55.5" height="55.5" rx="3.75" stroke="black" stroke-opacity="0.05" stroke-width="0.5"/>
<path d="M27.5687 9.00031C26.0189 9.00751 24.5389 9.13969 23.2366 9.37012C19.4003 10.0479 18.7038 11.4664 18.7038 14.0826V17.5376H27.7695V18.6893H18.7038H15.3016C12.6669 18.6893 10.3598 20.273 9.6382 23.2855C8.80583 26.7387 8.76891 28.8935 9.6382 32.4991C10.2826 35.183 11.8216 37.0953 14.4563 37.0953H17.5733V32.9534C17.5733 29.9612 20.1622 27.3218 23.2366 27.3218H32.2917C34.8123 27.3218 36.8245 25.2464 36.8245 22.715V14.0826C36.8245 11.6257 34.7519 9.78016 32.2917 9.37012C30.7344 9.11088 29.1185 8.99311 27.5687 9.00031ZM22.6661 11.7792C23.6025 11.7792 24.3672 12.5564 24.3672 13.512C24.3672 14.4642 23.6025 15.2342 22.6661 15.2342C21.7263 15.2342 20.9649 14.4642 20.9649 13.512C20.9649 12.5564 21.7263 11.7792 22.6661 11.7792Z" fill="url(#paint1_linear_7178_2511)"/>
<path d="M37.9544 18.6892V22.7149C37.9544 25.8359 35.3083 28.4628 32.291 28.4628H23.2359C20.7556 28.4628 18.7031 30.5856 18.7031 33.0695V41.702C18.7031 44.1588 20.8395 45.6039 23.2359 46.3087C26.1056 47.1525 28.8575 47.305 32.291 46.3087C34.5733 45.6479 36.8238 44.3181 36.8238 41.702V38.2469H27.7688V37.0952H36.8238H41.3566C43.9914 37.0952 44.9732 35.2574 45.8894 32.499C46.8359 29.6592 46.7956 26.9283 45.8894 23.2854C45.2383 20.6625 43.9947 18.6892 41.3566 18.6892H37.9544ZM32.8616 40.5503C33.8013 40.5503 34.5627 41.3203 34.5627 42.2725C34.5627 43.2281 33.8013 44.0053 32.8616 44.0053C31.9251 44.0053 31.1604 43.2281 31.1604 42.2725C31.1604 41.3203 31.9251 40.5503 32.8616 40.5503Z" fill="url(#paint2_linear_7178_2511)"/>
<defs>
<linearGradient id="paint0_linear_7178_2511" x1="10.7059" y1="100.745" x2="41.451" y2="20.0392" gradientUnits="userSpaceOnUse">
<stop stop-color="#C4D3D8"/>
<stop offset="1" stop-color="white"/>
</linearGradient>
<linearGradient id="paint1_linear_7178_2511" x1="9" y1="9" x2="29.9043" y2="26.8134" gradientUnits="userSpaceOnUse">
<stop stop-color="#5A9FD4"/>
<stop offset="1" stop-color="#306998"/>
</linearGradient>
<linearGradient id="paint2_linear_7178_2511" x1="32.6437" y1="41.982" x2="25.144" y2="31.4727" gradientUnits="userSpaceOnUse">
<stop stop-color="#FFD43B"/>
<stop offset="1" stop-color="#FFE873"/>
</linearGradient>
</defs>
</svg>
