<svg width="56" height="56" viewBox="0 0 56 56" fill="none" xmlns="http://www.w3.org/2000/svg">
<rect width="56" height="56" rx="4" fill="url(#paint0_linear_7293_1204)"/>
<rect x="0.25" y="0.25" width="55.5" height="55.5" rx="3.75" stroke="black" stroke-opacity="0.05" stroke-width="0.5"/>
<g clip-path="url(#clip0_7293_1204)">
<path d="M28.4788 32.0072C30.6919 32.0072 32.486 30.2131 32.486 28.0001C32.486 25.787 30.6919 23.9929 28.4788 23.9929C26.2657 23.9929 24.4717 25.787 24.4717 28.0001C24.4717 30.2131 26.2657 32.0072 28.4788 32.0072Z" fill="#61DAFB"/>
<path fill-rule="evenodd" clip-rule="evenodd" d="M9.32197 25.5297C8.35474 26.4028 7.9547 27.2392 7.9547 27.9998C7.9547 28.7605 8.35474 29.5968 9.32197 30.47C10.2891 31.343 11.7434 32.174 13.6237 32.8919C17.3775 34.3252 22.6294 35.2322 28.4791 35.2322C34.3287 35.2322 39.5806 34.3252 43.3345 32.8919C45.2147 32.174 46.6691 31.343 47.6362 30.47C48.6034 29.5968 49.0034 28.7605 49.0034 27.9998C49.0034 27.2392 48.6034 26.4028 47.6362 25.5297C46.6691 24.6567 45.2147 23.8257 43.3345 23.1077C39.5806 21.6744 34.3287 20.7674 28.4791 20.7674C22.6294 20.7674 17.3775 21.6744 13.6237 23.1077C11.7434 23.8257 10.2891 24.6567 9.32197 25.5297ZM12.9264 21.2816C16.9547 19.7436 22.4536 18.8127 28.4791 18.8127C34.5045 18.8127 40.0035 19.7436 44.0317 21.2816C46.0425 22.0494 47.737 22.9874 48.946 24.0788C50.1549 25.17 50.9581 26.4934 50.9581 27.9998C50.9581 29.5063 50.1549 30.8296 48.946 31.9209C47.737 33.0123 46.0425 33.9503 44.0317 34.7181C40.0035 36.2561 34.5045 37.1869 28.4791 37.1869C22.4536 37.1869 16.9547 36.2561 12.9264 34.7181C10.9157 33.9503 9.22114 33.0123 8.01216 31.9209C6.80329 30.8296 6 29.5063 6 27.9998C6 26.4934 6.80329 25.17 8.01216 24.0788C9.22114 22.9874 10.9157 22.0494 12.9264 21.2816Z" fill="#61DAFB"/>
<path fill-rule="evenodd" clip-rule="evenodd" d="M21.0392 10.1744C19.7995 9.77328 18.8751 9.84502 18.2164 10.2253C17.5577 10.6057 17.0334 11.3703 16.7608 12.6445C16.4883 13.9185 16.4958 15.5935 16.8142 17.5809C17.4499 21.5484 19.2903 26.5502 22.2151 31.6162C25.14 36.6821 28.5514 40.7769 31.6696 43.3112C33.2315 44.5806 34.6783 45.4245 35.9179 45.8256C37.1577 46.2266 38.082 46.1549 38.7408 45.7746C39.3995 45.3943 39.9238 44.6296 40.1963 43.3554C40.4688 42.0814 40.4614 40.4064 40.143 38.4191C39.5073 34.4515 37.6669 29.4497 34.742 24.3838C31.8172 19.3178 28.4058 15.223 25.2876 12.6888C23.7257 11.4194 22.2789 10.5754 21.0392 10.1744ZM26.5204 11.1719C29.8665 13.8914 33.4221 18.1882 36.4348 23.4064C39.4476 28.6246 41.3909 33.8522 42.0731 38.1098C42.4136 40.2351 42.4485 42.1716 42.1078 43.7643C41.7672 45.3568 41.0227 46.7142 39.7181 47.4674C38.4135 48.2206 36.8658 48.1866 35.3163 47.6854C33.7666 47.184 32.107 46.1856 30.4368 44.8281C27.0906 42.1085 23.535 37.8117 20.5223 32.5935C17.5096 27.3753 15.5662 22.1477 14.8841 17.8901C14.5436 15.7649 14.5087 13.8283 14.8494 12.2356C15.19 10.6431 15.9344 9.28573 17.2391 8.53251C18.5437 7.7793 20.0914 7.81328 21.6409 8.31456C23.1905 8.81588 24.8502 9.81437 26.5204 11.1719Z" fill="#61DAFB"/>
<path fill-rule="evenodd" clip-rule="evenodd" d="M40.1968 12.6444C39.9242 11.3702 39.3999 10.6056 38.7412 10.2252C38.0825 9.84493 37.1581 9.7732 35.9184 10.1743C34.6787 10.5753 33.2319 11.4193 31.67 12.6887C28.5518 15.223 25.1404 19.3177 22.2156 24.3837C19.2907 29.4496 17.4503 34.4514 16.8146 38.419C16.4962 40.4063 16.4887 42.0813 16.7613 43.3554C17.0338 44.6296 17.5581 45.3942 18.2168 45.7745C18.8755 46.1548 19.7999 46.2266 21.0396 45.8255C22.2793 45.4244 23.7261 44.5805 25.288 43.3111C28.4062 40.7768 31.8176 36.682 34.7424 31.6161C37.6673 26.5501 39.5077 21.5484 40.1434 17.5808C40.4618 15.5934 40.4693 13.9185 40.1968 12.6444ZM42.0735 17.89C41.3914 22.1476 39.448 27.3753 36.4353 32.5934C33.4226 37.8116 29.867 42.1084 26.5208 44.828C24.8506 46.1855 23.1909 47.184 21.6413 47.6853C20.0918 48.1866 18.5441 48.2205 17.2395 47.4673C15.9349 46.7141 15.1904 45.3567 14.8498 43.7642C14.5091 42.1715 14.544 40.235 14.8845 38.1097C15.5667 33.8521 17.51 28.6245 20.5227 23.4063C23.5355 18.1882 27.091 13.8913 30.4372 11.1718C32.1074 9.81428 33.7671 8.81579 35.3167 8.31447C36.8662 7.81319 38.4139 7.77921 39.7185 8.53243C41.0231 9.28564 41.7676 10.643 42.1082 12.2355C42.4489 13.8282 42.414 15.7648 42.0735 17.89Z" fill="#61DAFB"/>
</g>
<defs>
<linearGradient id="paint0_linear_7293_1204" x1="10.7059" y1="100.745" x2="41.451" y2="20.0392" gradientUnits="userSpaceOnUse">
<stop stop-color="#C4D3D8"/>
<stop offset="1" stop-color="white"/>
</linearGradient>
<clipPath id="clip0_7293_1204">
<rect width="44.9581" height="40" fill="white" transform="translate(6 8)"/>
</clipPath>
</defs>
</svg>
