<svg width="56" height="56" viewBox="0 0 56 56" fill="none" xmlns="http://www.w3.org/2000/svg">
<rect width="56" height="56" rx="4" fill="url(#paint0_linear_7178_2912)"/>
<rect x="0.25" y="0.25" width="55.5" height="55.5" rx="3.75" stroke="black" stroke-opacity="0.05" stroke-width="0.5"/>
<g clip-path="url(#clip0_7178_2912)">
<path d="M16.891 8C17.1254 8 38.6566 8 39.0473 8C40.1254 8 41.1723 8.17188 42.1879 8.53125C43.6566 9.0625 44.9848 10 45.9848 11.2188C47.0004 12.4375 47.6723 13.9375 47.9066 15.5C48.0004 16.0781 48.016 16.6562 48.016 17.2344C48.016 17.7656 48.016 36.4844 48.016 37.3281C48.016 37.8281 48.016 38.3437 48.016 38.8437C48.016 39.5312 47.9848 40.2344 47.8441 40.9063C47.5316 42.4531 46.7973 43.9063 45.7348 45.0781C44.6879 46.25 43.3129 47.125 41.8285 47.5937C40.9223 47.875 39.9848 48 39.0316 48C38.6098 48 16.8285 48 16.5004 47.9844C14.9066 47.9062 13.3285 47.3906 12.0004 46.5C10.7035 45.625 9.64102 44.4062 8.95352 43C8.35977 41.7969 8.06289 40.4531 8.06289 39.1094C8.06289 38.7969 8.06289 17.2031 8.06289 16.8906C8.03164 15.5625 8.31289 14.25 8.89102 13.0625C9.56289 11.6563 10.6098 10.4219 11.9066 9.54687C13.2348 8.64062 14.7973 8.10938 16.391 8.03125C16.5473 8 16.7191 8 16.891 8Z" fill="url(#paint1_linear_7178_2912)"/>
<path d="M41.75 40.7187C41.6094 40.5 41.4531 40.2813 41.2812 40.0781C40.8906 39.6094 40.4375 39.2031 39.9375 38.8594C39.3125 38.4375 38.5781 38.1719 37.8281 38.1406C37.2969 38.1094 36.7656 38.2031 36.2656 38.3906C35.7656 38.5625 35.2812 38.8125 34.8125 39.0625C34.2656 39.3438 33.7187 39.625 33.1406 39.8594C32.4531 40.1406 31.7344 40.3594 31 40.5156C30.0781 40.6875 29.1406 40.75 28.2187 40.7344C26.5469 40.7031 24.875 40.4531 23.2812 39.9844C21.875 39.5625 20.5312 38.9844 19.2656 38.25C18.1562 37.6094 17.125 36.875 16.1562 36.0469C15.3594 35.3594 14.625 34.625 13.9375 33.8437C13.4687 33.2969 13.0156 32.7187 12.5937 32.125C12.4219 31.8906 12.2656 31.6406 12.125 31.3906L8 26.9375V16.8594C8 11.9688 11.9531 8 16.8437 8H24.7344L30.5781 13.9375C43.7656 22.9063 39.5 32.7969 39.5 32.7969C39.5 32.7969 43.25 37.0156 41.75 40.7187Z" fill="url(#paint2_linear_7178_2912)"/>
<path d="M30.6094 13.9375C43.7969 22.9063 39.5313 32.7969 39.5313 32.7969C39.5313 32.7969 43.2813 37.0312 41.7656 40.7344C41.7656 40.7344 40.2188 38.1406 37.625 38.1406C35.125 38.1406 33.6562 40.7344 28.625 40.7344C17.4219 40.7344 12.125 31.375 12.125 31.375C22.2187 38.0156 29.1094 33.3125 29.1094 33.3125C24.5625 30.6719 14.8906 18.0469 14.8906 18.0469C23.3125 25.2188 26.9531 27.1094 26.9531 27.1094C24.7813 25.3125 18.6875 16.5312 18.6875 16.5312C23.5625 21.4687 33.25 28.3594 33.25 28.3594C36 20.7344 30.6094 13.9375 30.6094 13.9375Z" fill="white"/>
</g>
<defs>
<linearGradient id="paint0_linear_7178_2912" x1="10.7059" y1="100.745" x2="41.451" y2="20.0392" gradientUnits="userSpaceOnUse">
<stop stop-color="#C4D3D8"/>
<stop offset="1" stop-color="white"/>
</linearGradient>
<linearGradient id="paint1_linear_7178_2912" x1="31.7957" y1="6.57269" x2="24.2384" y2="49.4323" gradientUnits="userSpaceOnUse">
<stop stop-color="#FAAE42"/>
<stop offset="1" stop-color="#EF3E31"/>
</linearGradient>
<linearGradient id="paint2_linear_7178_2912" x1="28.4081" y1="8.6463" x2="22.877" y2="40.0145" gradientUnits="userSpaceOnUse">
<stop stop-color="#E39F3A"/>
<stop offset="1" stop-color="#D33929"/>
</linearGradient>
<clipPath id="clip0_7178_2912">
<rect width="40" height="40" fill="white" transform="translate(8 8)"/>
</clipPath>
</defs>
</svg>
